<svg width="734" height="228" xmlns="http://www.w3.org/2000/svg" xmlns:xlink="http://www.w3.org/1999/xlink" overflow="hidden"><defs><clipPath id="clip0"><rect x="235" y="155" width="734" height="228"/></clipPath></defs><g clip-path="url(#clip0)" transform="translate(-235 -155)"><path d="M762.55 281.831C762.489 282.985 761.906 285.282 760.802 288.722L757.973 297.513C756.507 301.988 755.774 305.711 755.774 308.683 755.774 311.669 756.26 314.111 757.231 316.009L757.436 316.348 757.213 315.469C756.898 313.853 756.741 312.108 756.741 310.236 756.741 304.114 759.139 295.515 763.934 284.44ZM626.55 281.831C626.489 282.985 625.906 285.282 624.802 288.722L621.973 297.513C620.507 301.988 619.774 305.711 619.774 308.683 619.774 311.669 620.26 314.111 621.231 316.009L621.436 316.348 621.213 315.469C620.898 313.853 620.741 312.108 620.741 310.236 620.741 304.114 623.139 295.515 627.934 284.44ZM570.86 277.744 571.103 278.06C574.149 282.968 575.673 288.76 575.673 295.436 575.673 305.358 571.938 313.691 564.467 320.435 556.997 327.18 547.792 330.553 536.852 330.553 530.084 330.553 522.611 329.543 514.435 327.524L503.575 324.846C500.111 324.022 497.155 323.609 494.708 323.609 492.333 323.609 489.582 324.236 486.456 325.491L485.781 325.795 486.151 326.087 485.243 327.775 487.381 326.829C490.208 325.737 492.88 325.191 495.397 325.191 498.958 325.191 503.39 325.815 508.692 327.062L520.898 330.017C526.024 331.253 531.458 331.871 537.201 331.871 548.231 331.871 557.605 328.366 565.324 321.357 573.043 314.348 576.903 305.904 576.903 296.025 576.903 289.784 575.154 284.023 571.656 278.743ZM409.884 272.808 409.884 317.633 411.817 317.633 411.817 273.336 431.2 273.336 430.692 272.808ZM301.003 271.404 285.335 291.451 285.335 316.923 286.477 318.217 286.477 291.25 301.513 273.226ZM502.82 271.212 503.491 271.989C506.128 274.192 510.697 276.086 517.199 277.67L531.072 281.115C540.653 283.51 547.142 285.627 550.539 287.465 551.389 287.924 552.181 288.475 552.916 289.118L554.865 291.229 554.354 290.212C553.62 289.071 552.764 288.003 551.786 287.01 545.507 283.722 535.472 280.727 521.68 278.024 516.082 276.928 511.237 275.452 507.145 273.595ZM444.688 248.325 450.489 250.15 450.489 291.036 444.688 289.274ZM782.938 245.895 775.294 268.775C775.629 268.976 775.826 269.137 775.885 269.256L778.315 272.369C780.226 274.26 782.259 276.692 784.414 279.664L786.529 282.7 788.922 279.302C790.068 277.975 791.419 276.66 792.975 275.354ZM646.938 245.895 639.294 268.775C639.629 268.976 639.826 269.137 639.885 269.256L642.315 272.369C644.226 274.26 646.259 276.692 648.414 279.664L650.529 282.7 652.922 279.302C654.068 277.975 655.419 276.66 656.975 275.354ZM882.315 236.586 882.315 284.468C882.315 300.022 883.272 310.05 885.187 314.553 885.665 315.679 886.316 316.732 887.14 317.712L888.237 318.712 887.237 317.281C884.659 312.752 883.37 306.697 883.37 299.118L883.458 291.017 883.458 244.336ZM779.032 235.897 767.193 269.94C771.283 273.97 774.921 278.186 778.107 282.589L781.583 287.427 782.008 286.911C782.2 286.654 782.438 286.535 782.721 286.554 778.963 281.216 774.28 275.83 768.674 270.396L779.704 240.8ZM643.032 235.897 631.193 269.94C635.283 273.97 638.921 278.186 642.107 282.589L645.583 287.427 646.008 286.911C646.2 286.654 646.438 286.535 646.721 286.554 642.963 281.216 638.28 275.83 632.674 270.396L643.704 240.8ZM423.545 225.26C419.295 225.26 414.741 225.375 409.884 225.606L409.884 261.822 411.817 261.822 411.817 226.924C417.44 226.4 422.187 226.138 426.058 226.138 433.604 226.138 439.246 226.982 442.985 228.668L443.369 228.875 443.317 228.832C442.907 228.527 442.495 228.26 442.08 228.029 438.763 226.183 432.584 225.26 423.545 225.26ZM527.838 223.062C522.184 223.062 517.507 224.615 513.809 227.72 510.11 230.825 508.26 234.692 508.26 239.321 508.26 242.6 509.215 245.496 511.125 248.006L512.976 249.987 510.708 246.102C510.131 244.512 509.843 242.815 509.843 241.011 509.843 235.987 511.631 231.91 515.207 228.78 518.783 225.65 523.382 224.085 529.005 224.085 531.628 224.085 534.1 224.371 536.42 224.942L538.842 225.712 538.689 225.626C535.327 223.917 531.71 223.062 527.838 223.062ZM964.588 221.092 962.36 226.984C957.963 228.013 955.08 229.734 953.713 232.147 952.345 234.56 951.661 238.93 951.661 245.257L951.661 335.826 930.207 335.826 928.451 330.025 945.772 330.025 945.772 246.118C945.772 237.655 946.933 231.654 949.255 228.114 951.577 224.574 956.688 222.233 964.588 221.092ZM472.935 218.931 475.81 222.587 474.987 224.138C468.004 233.524 462.99 241.72 459.946 248.726L456.092 245.454C460.1 235.738 465.715 226.897 472.935 218.931ZM571.789 218.131 576.521 220.302 575.745 220.546C573.249 226.239 571.238 230.53 569.713 233.418 565.556 242.581 563.17 247.744 562.554 248.909L561.293 250.22 556.802 248.552 557.284 246.135C558.957 242.321 561.388 237.335 564.578 231.177L570.501 219.659ZM860.307 214.713 907.556 214.713 895.301 225.257 933.468 304.253 933.468 296.12 897.652 225.481 911.75 216.091 914.978 219.754 904.277 227.304 933.468 289.259 933.468 250.773 933.468 246.205C933.468 236.513 932.718 230.13 931.218 227.055 929.718 223.98 925.607 219.866 918.883 214.713L961.606 214.713C954.695 220.157 950.367 224.176 948.622 226.767 945.96 230.813 944.63 237.063 944.63 245.516L944.63 251.117 944.63 328.795 927.152 328.795 889.346 249.858 889.346 293.677 889.232 298.674 890.258 310.957C891.303 316.169 893.719 320.054 897.508 322.611L898.063 324.147 899.204 324.564 907.556 335.826 857.949 335.826 855.826 330.025 899.034 330.025 895.532 328.795 854.362 328.795C861.713 324.15 866.451 319.861 868.578 315.926 870.705 311.992 871.768 305.01 871.768 294.98L871.768 226.906ZM762.729 214.713 806.057 214.713 797.095 227.037 810.354 262.459 811.071 261.517 798.317 228.012 808.708 216.091 813.296 218.153 804.593 229.246 815.335 258.363 817.365 256.641C819.252 255.131 821.163 253.911 823.1 252.979 825.117 260.326 827.709 267.357 830.875 274.075 827.871 273.934 826.049 273.863 825.411 273.863 820.355 273.863 816.977 274.37 815.279 275.385L830.606 316.016 831.439 316.823 816.673 276.321C819.667 275.386 822.493 274.918 825.153 274.918 826.726 274.918 828.228 274.986 829.659 275.121L832.487 275.544 828.181 266.018C826.913 262.524 825.95 259.011 825.29 255.479L831.346 257.804C832.695 263.32 835.928 271.358 841.045 281.917 838.385 281.746 836.997 281.661 836.879 281.661L829.899 281.059C828.318 280.916 826.967 280.809 825.846 280.738L823.319 280.637 837.381 316.105 856.901 335.826 804.217 335.826 801.764 330.025 847.524 330.025 838.153 323.324 843.802 328.795 796.68 328.795 808.573 316.509 800.107 293.636C795.219 299.556 790.886 305.617 787.107 311.819L782.461 310.658C784.278 307.104 786.502 303.547 789.134 299.986L798.24 289.316 797.76 287.776C792.311 293.068 786.894 299.675 781.508 307.597L778.401 304.273C776.15 300.681 773.499 296.806 770.446 292.648L767.651 288.92 765.729 294.16C763.721 300.265 762.718 305.53 762.718 309.957 762.718 313.331 763.296 316.18 764.453 318.504 765.609 320.828 768.505 324.851 773.139 330.572 773.554 331.098 774.33 332.85 775.466 335.826L726.176 335.826 723.605 330.025 765.522 330.025 764.538 328.795 719.124 328.795C727.683 322.49 734.295 315.846 738.961 308.861 743.043 302.75 747.172 293.48 751.347 281.05L753.019 275.898 751.097 274.746C748.564 273.562 744.886 272.695 740.064 272.145 743.335 265.924 746.097 259.938 748.349 254.187 750.531 255.272 751.85 256.037 752.304 256.481L756.336 260.762C757.295 261.326 757.994 262.093 758.433 263.062L759.022 261.561 758.179 261.171C755.48 258.797 753.224 256.89 751.41 255.449L749.975 253.81 752.69 249.791C756.746 252.041 759.568 254.368 761.153 256.771L771.862 226.706ZM626.729 214.713 670.057 214.713 661.095 227.037 674.354 262.459 675.071 261.517 662.317 228.012 672.708 216.091 677.296 218.153 668.593 229.246 679.335 258.363 681.365 256.641C683.252 255.131 685.163 253.911 687.1 252.979 689.117 260.326 691.709 267.357 694.875 274.075 691.871 273.934 690.049 273.863 689.411 273.863 684.355 273.863 680.977 274.37 679.279 275.385L694.606 316.016 695.439 316.823 680.673 276.321C683.667 275.386 686.493 274.918 689.153 274.918 690.726 274.918 692.228 274.986 693.659 275.121L696.487 275.544 692.181 266.018C690.913 262.524 689.95 259.011 689.29 255.479L695.346 257.804C696.695 263.32 699.928 271.358 705.045 281.917 702.385 281.746 700.997 281.661 700.879 281.661L693.899 281.059C692.318 280.916 690.967 280.809 689.846 280.738L687.319 280.637 701.381 316.105 720.901 335.826 668.217 335.826 665.764 330.025 711.524 330.025 702.153 323.324 707.802 328.795 660.68 328.795 672.573 316.509 664.107 293.636C659.219 299.556 654.886 305.617 651.107 311.819L646.461 310.658C648.278 307.104 650.502 303.547 653.135 299.986L662.24 289.316 661.76 287.776C656.311 293.068 650.894 299.675 645.508 307.597L642.401 304.273C640.15 300.681 637.499 296.806 634.446 292.648L631.651 288.92 629.729 294.16C627.721 300.265 626.718 305.53 626.718 309.957 626.718 313.331 627.296 316.18 628.453 318.504 629.609 320.828 632.505 324.851 637.139 330.572 637.554 331.098 638.33 332.85 639.466 335.826L590.176 335.826 587.605 330.025 629.522 330.025 628.538 328.795 583.124 328.795C591.683 322.49 598.295 315.846 602.961 308.861 607.043 302.75 611.172 293.48 615.347 281.05L617.019 275.898 615.097 274.746C612.564 273.562 608.886 272.695 604.064 272.145 607.335 265.924 610.097 259.938 612.349 254.187 614.531 255.272 615.85 256.037 616.304 256.481L620.336 260.762C621.295 261.326 621.994 262.093 622.433 263.062L623.022 261.561 622.179 261.171C619.48 258.797 617.224 256.89 615.41 255.449L613.975 253.81 616.69 249.791C620.746 252.041 623.568 254.368 625.153 256.771L635.862 226.706ZM376.131 214.713 471.657 214.713 470.019 219.022C464.208 226.14 459.083 234.662 454.645 244.587 452.876 242.578 451.848 241.261 451.56 240.638L451.463 240.436 449.734 239.832C448.882 239.496 448.339 239.23 448.105 239.034 443.903 235.686 440.862 233.695 438.983 233.063 437.104 232.431 433.236 232.115 427.381 232.115 425.604 232.115 422.365 232.242 417.665 232.497L417.618 232.5 417.618 261.822 430.694 261.822 444.512 246.594 444.512 287.158 435.805 278.117 436.35 279.049 417.618 279.049 417.618 317.633C427.918 317.633 435.375 316.852 439.99 315.291 444.605 313.73 448.712 310.399 452.31 305.296L455.344 298.334C455.437 298.147 456.538 297.218 458.646 295.547 460.809 302.631 462.956 308.004 465.087 311.666 467.218 315.329 470.96 320.628 476.311 327.564L376.131 327.564 389.229 314.92 389.229 279.049C385.999 279.589 382.043 281.084 377.361 283.535L374.925 279.529C379.132 276.199 383.9 274.206 389.229 273.553L389.229 272.624C389.281 272.63 389.177 272.633 388.919 272.633 383.536 272.633 377.608 274.771 371.133 279.049 374.061 267.564 380.093 261.822 389.229 261.822L389.229 227.661ZM253.388 214.713 297.361 214.713 285.335 228.565 285.335 278.142 286.477 273.79 286.477 227.806 298.238 217.384 301.066 221.27 292.19 230.36 292.19 270.043 315.712 238.786C319.308 234.496 321.106 230.735 321.106 227.502 321.106 225.851 320.166 224.173 318.285 222.47 316.404 220.766 313.599 219.536 309.871 218.779L309.871 214.713 358.89 214.713 358.89 218.72C348.407 221.266 337.692 229.088 326.746 242.185L314.768 256.102 346.144 316.476 346.793 317.013 316.598 255.692 333.066 236.692C341.76 226.985 351.2 221.67 361.386 220.747L363.117 225.886C353.971 226.55 345.334 231.389 337.204 240.406L322.614 256.23 352.641 316.493 377.421 335.826 320.025 335.826 316.598 330.025 366.493 330.025 355.447 324.168 361.043 328.795 312.715 328.795 324.004 318.073 304.039 277.608 292.19 293.597 292.19 317.059 306.236 335.826 259.411 335.826 256.06 330.025 297.462 330.025 293.269 325.915 295.81 328.795 252.698 328.795 264.505 316.154 264.505 227.538ZM526.351 212.779C533.173 212.779 541.165 214.017 550.327 216.494 554.318 217.592 557.265 218.14 559.168 218.14 561.66 218.14 564.699 217.17 568.283 215.23L571.178 216.741C568.049 221.781 565.617 226.43 563.882 230.688 560.356 239.358 557.983 244.731 556.762 246.805L554.161 248.134C553.219 246.722 552.664 245.675 552.494 244.994 552.106 243.784 551.737 242.667 551.387 241.644L550.535 239.252 549.187 239.924C542.563 233.194 535.885 229.83 529.155 229.83 525.28 229.83 522.088 230.933 519.581 233.139 517.073 235.346 515.819 238.142 515.819 241.528 515.819 245.236 518.486 249.145 523.82 253.253L525.247 254.533 524.402 256.154 528.629 257.356 543.179 260.891C554.01 263.504 562.134 267.69 567.549 273.447L567.574 273.48 567.574 270.639C577.778 277.192 582.88 285.879 582.88 296.701 582.88 308.175 578.442 317.887 569.566 325.836 560.691 333.785 549.924 337.76 537.266 337.76 530.842 337.76 525.095 337.115 520.026 335.825L506.24 332.442C503.096 331.651 499.796 331.256 496.34 331.256 493.357 331.256 490.031 331.918 486.362 333.241L484.73 328.73 480.916 335.826 384.708 335.826 382.585 330.025 477.642 330.025 479.876 326.739C471.778 319.543 465.947 310.67 462.382 300.119L468.291 301.576C469.925 305.38 472.116 309.234 474.863 313.137L482.397 322.155 490.692 307.444C493.282 302.052 495.365 296.76 496.94 291.569L501.369 292.409C502.619 301.724 506.08 308.725 511.753 313.413L513.528 314.735 511.435 312.77C507.602 308.543 505.088 303.037 503.892 296.252L509.414 295.444C511.653 306.148 517.477 313.69 526.885 318.071L526.885 319.878 527.601 320.006C529.704 320.299 531.922 320.445 534.254 320.445 541.545 320.445 547.268 318.815 551.423 315.556 555.578 312.297 557.655 307.938 557.655 302.478 557.655 300.894 557.533 299.383 557.288 297.946L557.231 297.734 555.161 298.702C552.115 295.524 549.164 293.282 546.306 291.976 543.449 290.67 537.802 289.027 529.367 287.047 516.824 284.144 508.272 281.569 503.71 279.32 499.148 277.071 496.394 273.143 495.446 267.538L499.816 269.086 497.125 266.882C491.951 261.646 489.364 254.39 489.364 245.115 489.364 235.513 492.808 227.723 499.696 221.745 506.584 215.768 515.469 212.779 526.351 212.779Z" fill="#E2F0D9" fill-rule="evenodd"/><path d="M494.763 324.141 491.044 324.629 486.647 325.991 486.558 326.032 486.623 326.381 486.396 326.79 487.239 326.429 491.416 325.16C491.445 325.151 491.475 325.145 491.505 325.142L495.38 324.704C495.413 324.7 495.445 324.7 495.478 324.703L501.478 325.203 506.941 326.228 503.503 325.374 498.716 324.442ZM756.606 306.112 756.314 308.706 756.349 309.084ZM620.606 306.112 620.314 308.706 620.349 309.084ZM757.891 299.891 756.867 303.793 756.737 304.943ZM621.891 299.891 620.867 303.793 620.737 304.943ZM285.999 291.464 285.874 291.624 285.874 316.766 285.999 316.912ZM575.719 289.736 575.866 290.55 576.185 295.419C576.187 295.445 576.187 295.472 576.184 295.499L575.496 302.624C575.493 302.66 575.486 302.696 575.474 302.73L573.349 309.292C573.338 309.327 573.323 309.361 573.305 309.392L569.805 315.33C569.787 315.359 569.767 315.387 569.744 315.412L564.869 320.787C564.848 320.811 564.824 320.832 564.798 320.851L558.861 325.289C558.835 325.308 558.808 325.324 558.78 325.338L552.217 328.526C552.187 328.54 552.156 328.552 552.124 328.56L544.874 330.435C544.846 330.442 544.817 330.447 544.788 330.449L536.913 331.074C536.889 331.076 536.864 331.076 536.839 331.075L526.151 330.325 516.687 328.515 521.056 329.59 528.959 330.958 537.275 331.389 545.1 330.769 552.385 328.793 558.986 325.585 565.036 321.017 570.034 315.588 573.603 309.619 575.694 303.097 576.435 296.067 576.128 291.524ZM550.975 287.19 551.712 287.695 551.496 287.421ZM546.049 285.033 546.312 285.13 546.234 285.096ZM626.826 283.44 626.546 284.572 626.045 286.513 625.288 288.914 622.475 297.666 622.218 298.644 624.336 292.109 627.385 284.482ZM762.826 283.44 762.546 284.572 762.045 286.513 761.288 288.914 758.475 297.666 758.218 298.644 760.336 292.109 763.385 284.482ZM762.468 281.397C762.682 281.357 762.899 281.46 763.002 281.652L764.377 284.215C764.447 284.345 764.455 284.499 764.401 284.637L761.287 292.418 759.049 299.313 757.684 305.244 757.251 310.261 757.738 315.409 757.925 316.284C757.978 316.53 757.839 316.777 757.602 316.86 757.364 316.944 757.102 316.837 756.989 316.612L756.802 316.237C756.791 316.215 756.781 316.192 756.774 316.169L755.711 312.919C755.699 312.883 755.692 312.847 755.688 312.809L755.313 308.747C755.31 308.713 755.311 308.679 755.314 308.645L755.877 303.645C755.88 303.621 755.884 303.597 755.89 303.574L757.523 297.36 760.334 288.613 761.077 286.264 761.576 284.33 761.94 282.893 762.065 281.83C762.09 281.613 762.253 281.438 762.468 281.397ZM626.468 281.397C626.682 281.357 626.899 281.46 627.002 281.652L628.377 284.215C628.447 284.345 628.455 284.499 628.401 284.637L625.287 292.418 623.049 299.313 621.684 305.244 621.251 310.261 621.738 315.409 621.925 316.284C621.978 316.53 621.839 316.777 621.602 316.86 621.364 316.944 621.102 316.837 620.989 316.612L620.802 316.237C620.791 316.215 620.781 316.192 620.774 316.169L619.711 312.919C619.699 312.883 619.692 312.847 619.688 312.809L619.313 308.747C619.31 308.713 619.311 308.679 619.314 308.645L619.877 303.645C619.88 303.621 619.884 303.597 619.89 303.574L621.523 297.36 624.335 288.613 625.077 286.264 625.576 284.33 625.94 282.893 626.065 281.83C626.09 281.613 626.253 281.438 626.468 281.397ZM530.697 280.518 531.244 280.653 537.876 282.405 541.039 283.35 539.402 282.8 531.183 280.622ZM774.641 277.415 778.516 282.329 781.66 286.65 781.685 286.622C781.724 286.577 781.77 286.54 781.822 286.512L781.989 286.421 776.044 278.886ZM638.641 277.415 642.516 282.329 645.66 286.65 645.685 286.622C645.724 286.577 645.77 286.54 645.822 286.512L645.989 286.421 640.044 278.886ZM570.56 277.374C570.774 277.201 571.088 277.234 571.262 277.448L572.074 278.448C572.092 278.469 572.107 278.492 572.121 278.516L574.433 282.579C574.446 282.601 574.457 282.624 574.466 282.647L576.111 286.965 577.111 291.34C577.117 291.365 577.121 291.391 577.123 291.417L577.435 296.042C577.437 296.071 577.437 296.1 577.434 296.128L576.684 303.253C576.68 303.287 576.673 303.321 576.662 303.354L574.537 309.979C574.526 310.015 574.51 310.05 574.49 310.083L570.865 316.145C570.848 316.174 570.827 316.202 570.804 316.227L565.742 321.727C565.721 321.749 565.699 321.769 565.675 321.787L559.55 326.412C559.524 326.432 559.497 326.449 559.467 326.463L552.78 329.713C552.752 329.727 552.722 329.738 552.692 329.746L545.317 331.746C545.287 331.754 545.257 331.759 545.226 331.762L537.223 332.388 528.788 331.944 520.817 330.561 508.656 327.567 501.395 326.199 495.444 325.703 491.663 326.13 487.633 327.348 485.446 328.286C485.249 328.37 485.021 328.32 484.878 328.161 484.734 328.002 484.708 327.77 484.812 327.583L485.548 326.258 485.491 326.21C485.359 326.1 485.293 325.93 485.316 325.759 485.339 325.589 485.448 325.442 485.604 325.371L486.351 325.036 490.788 323.661C490.815 323.652 490.843 323.646 490.871 323.643L494.684 323.143C494.718 323.138 494.753 323.137 494.787 323.14L498.907 323.46 503.744 324.403 514.53 327.085 526.221 329.327 536.872 330.075 544.666 329.456 551.825 327.604 558.3 324.459 564.161 320.079 568.969 314.778 572.415 308.932 574.506 302.474 575.185 295.443 574.882 290.727 574.076 286.265 572.663 282.148 570.702 278.35 570.483 278.076C570.311 277.861 570.346 277.547 570.56 277.374ZM695.306 274.159 695.286 274.359C695.189 274.5 695.028 274.581 694.858 274.576L692.858 274.513 691.23 274.451 690.096 274.388 689.436 274.388 685.954 274.513 683.168 274.762 681.022 275.243 679.952 275.671 680.224 276.394 680.245 276.09C680.312 275.965 680.43 275.874 680.568 275.84L684.943 274.778C684.97 274.771 684.996 274.767 685.023 274.765L689.148 274.452 693.707 274.639 695.661 274.941ZM831.306 274.159 831.286 274.359C831.189 274.5 831.028 274.581 830.858 274.576L828.858 274.513 827.23 274.451 826.096 274.388 825.436 274.388 821.954 274.513 819.168 274.762 817.022 275.243 815.952 275.671 816.224 276.394 816.245 276.09C816.312 275.965 816.43 275.874 816.568 275.84L820.943 274.778C820.97 274.771 820.996 274.767 821.023 274.765L825.148 274.452 829.707 274.639 831.661 274.941ZM410.436 273.326 410.436 317.138 411.374 317.138 411.374 273.388 411.436 273.326ZM300.843 272.54 290.787 285.36 301.01 273.144ZM409.936 272.326 430.749 272.326C430.892 272.326 431.028 272.387 431.122 272.494L431.622 273.056C431.753 273.203 431.786 273.414 431.705 273.593 431.624 273.773 431.446 273.888 431.249 273.888L412.374 273.888 412.374 317.638C412.374 317.915 412.15 318.138 411.874 318.138L409.936 318.138C409.66 318.138 409.436 317.915 409.436 317.638L409.436 272.826C409.436 272.55 409.66 272.326 409.936 272.326ZM301.16 270.961C301.345 270.998 301.493 271.136 301.543 271.318L302.043 273.13C302.087 273.289 302.05 273.458 301.945 273.584L286.999 291.445 286.999 318.263C286.999 318.473 286.868 318.66 286.672 318.732 286.476 318.805 286.255 318.748 286.119 318.589L284.994 317.276C284.917 317.186 284.874 317.07 284.874 316.951L284.874 291.451C284.874 291.339 284.911 291.23 284.98 291.142L300.668 271.142C300.784 270.994 300.975 270.924 301.16 270.961ZM503.115 270.825 507.396 273.183 513.994 275.653 521.791 277.587 531.439 279.655 539.721 281.852 546.638 284.181 552.013 286.556C552.088 286.589 552.153 286.64 552.204 286.704L554.766 289.954C554.787 289.981 554.806 290.009 554.821 290.04L555.321 291.04C555.433 291.263 555.363 291.534 555.157 291.676 554.951 291.817 554.673 291.785 554.504 291.6L552.606 289.518 550.314 287.95 547.264 286.545 543.043 284.993 537.621 283.372 531.004 281.624 517.115 278.183 512.579 276.921 508.716 275.525 505.599 273.994 503.224 272.431C503.183 272.404 503.146 272.371 503.115 272.334L502.49 271.584C502.336 271.399 502.335 271.131 502.488 270.945 502.641 270.76 502.904 270.71 503.115 270.825ZM757.447 261.216 758.28 262.15 758.409 261.841 757.989 261.661C757.941 261.64 757.895 261.611 757.856 261.576ZM621.447 261.216 622.28 262.15 622.409 261.841 621.989 261.661C621.941 261.64 621.896 261.611 621.856 261.576ZM672.568 256.257 674.534 261.513 674.555 261.487ZM808.568 256.255 810.534 261.513 810.555 261.487ZM445.249 249.015 445.249 288.955 449.999 290.401 449.999 250.564ZM782.942 247.514 775.904 268.63 776.223 268.854C776.264 268.882 776.3 268.917 776.331 268.956L778.768 272.081 781.682 275.303 784.833 279.396 786.56 281.834 788.527 279.038C788.545 279.013 788.566 278.989 788.588 278.967L792.423 275.25ZM646.942 247.514 639.904 268.63 640.223 268.854C640.264 268.882 640.3 268.917 640.331 268.956L642.768 272.081 645.682 275.303 648.833 279.396 650.56 281.834 652.527 279.038C652.545 279.013 652.566 278.989 652.588 278.967L656.423 275.25ZM782.934 245.451C783.149 245.45 783.34 245.586 783.409 245.789L793.472 275.227C793.535 275.41 793.486 275.613 793.347 275.747L789.318 279.652 786.97 282.989C786.877 283.122 786.725 283.201 786.562 283.201 786.4 283.201 786.247 283.123 786.153 282.99L784.04 280.006 780.94 275.974 777.98 272.696 775.588 269.63 775.025 269.236C774.843 269.109 774.767 268.878 774.837 268.668L782.462 245.793C782.53 245.589 782.72 245.452 782.934 245.451ZM646.934 245.451C647.149 245.45 647.34 245.586 647.409 245.789L657.472 275.227C657.535 275.41 657.486 275.613 657.347 275.747L653.318 279.652 650.97 282.989C650.877 283.122 650.724 283.201 650.562 283.201 650.4 283.201 650.247 283.123 650.153 282.99L648.04 280.006 644.94 275.974 641.98 272.696 639.588 269.63 639.025 269.236C638.843 269.109 638.767 268.878 638.837 268.668L646.462 245.793C646.53 245.589 646.72 245.452 646.934 245.451ZM882.874 243.563 882.874 284.513 882.936 290.07 882.984 292.015 882.999 291.068 882.999 244.424ZM642.855 238.068 631.82 269.831 632.222 270.264 643.236 240.77ZM778.855 238.068 767.82 269.831 768.222 270.264 779.236 240.77ZM882.338 236.14C882.599 236.121 882.831 236.307 882.869 236.567L883.994 244.317C883.997 244.34 883.999 244.364 883.999 244.388L883.999 291.084 883.873 299.115 884.118 304.437 884.855 309.254 886.032 313.466 887.685 317.077 888.659 318.478C888.805 318.688 888.769 318.975 888.575 319.142 888.381 319.309 888.093 319.303 887.906 319.128L886.844 318.128C886.813 318.098 886.785 318.065 886.763 318.029L884.763 314.842C884.743 314.811 884.727 314.778 884.715 314.743L884.011 312.748 883.442 310.212 883.003 307.263 882.563 303.74 882.249 299.721 882.061 295.151 881.936 290.082 881.874 284.513 881.874 236.638C881.874 236.376 882.076 236.159 882.338 236.14ZM779.11 235.453C779.34 235.476 779.524 235.653 779.556 235.881L780.244 240.756C780.256 240.839 780.246 240.923 780.217 241.001L769.264 270.333 776.829 278.266 783.141 286.266C783.233 286.382 783.268 286.532 783.239 286.676 783.209 286.82 783.117 286.944 782.988 287.015L782.379 287.347 782 287.78C781.9 287.895 781.753 287.957 781.601 287.95 781.449 287.944 781.309 287.868 781.219 287.745L777.731 282.948 772.633 276.479 766.883 270.291C766.757 270.156 766.716 269.962 766.776 269.787L778.589 235.787C778.665 235.569 778.88 235.431 779.11 235.453ZM643.11 235.453C643.34 235.476 643.524 235.653 643.556 235.881L644.244 240.756C644.255 240.839 644.246 240.923 644.217 241.001L633.264 270.333 640.829 278.266 647.141 286.266C647.233 286.382 647.268 286.532 647.239 286.676 647.209 286.82 647.118 286.944 646.988 287.015L646.379 287.347 646 287.78C645.9 287.895 645.753 287.957 645.601 287.95 645.449 287.944 645.309 287.868 645.219 287.745L641.731 282.948 636.633 276.479 630.883 270.291C630.757 270.156 630.716 269.962 630.776 269.787L642.589 235.787C642.665 235.569 642.88 235.431 643.11 235.453ZM334.156 234.91 331.233 237.924 327.122 242.534 315.411 256.207 332.633 289.349 316.175 255.922C316.086 255.741 316.114 255.525 316.246 255.373L332.746 236.373ZM285.999 228.619 285.874 228.763 285.874 274.249 285.999 273.763ZM422.172 225.789 416.946 225.888 410.436 226.121 410.436 261.326 411.374 261.326 411.374 226.951C411.374 226.689 411.576 226.471 411.838 226.452L419.588 225.89ZM423.576 224.764 429.859 224.953 435.103 225.462 439.228 226.337C439.258 226.343 439.288 226.353 439.316 226.364L442.316 227.614C442.344 227.626 442.371 227.64 442.396 227.657L443.646 228.469C443.869 228.614 443.939 228.907 443.808 229.137 443.676 229.367 443.387 229.454 443.15 229.336L442.832 229.172 439.709 228.065 435.889 227.261 431.356 226.826 426.081 226.638 419.66 226.887 412.374 227.416 412.374 261.826C412.374 262.102 412.15 262.326 411.874 262.326L409.936 262.326C409.66 262.326 409.436 262.102 409.436 261.826L409.436 225.638C409.436 225.369 409.649 225.148 409.918 225.139L416.927 224.889ZM527.865 223.578 523.889 223.884 520.282 224.74 517.055 226.14 514.132 228.149 511.769 230.513 510.141 233.166 509.116 236.12 508.815 239.312 509.481 243.794 509.8 244.403 509.639 243.76C509.633 243.735 509.628 243.711 509.626 243.686L509.376 241.061C509.373 241.031 509.373 241 509.376 240.97L509.688 237.407C509.692 237.369 509.699 237.332 509.711 237.296L510.774 234.046C510.785 234.012 510.799 233.979 510.818 233.948L512.505 231.073C512.523 231.042 512.545 231.013 512.569 230.986L514.882 228.486C514.905 228.462 514.93 228.439 514.957 228.42L517.832 226.357C517.86 226.337 517.89 226.32 517.922 226.306L521.172 224.869C521.2 224.856 521.229 224.847 521.258 224.839L524.946 223.964C524.971 223.958 524.997 223.954 525.022 223.952L528.67 223.668ZM527.835 222.577C527.867 222.575 527.898 222.576 527.929 222.579L533.554 223.204C533.594 223.208 533.634 223.218 533.672 223.232L538.922 225.169C538.99 225.194 539.051 225.234 539.102 225.285L539.227 225.41C539.391 225.574 539.421 225.829 539.299 226.026 539.177 226.224 538.936 226.311 538.716 226.238L536.313 225.437 532.849 224.825 529.1 224.637 525.139 224.946 521.534 225.802 518.373 227.2 515.581 229.203 513.34 231.626 511.707 234.408 510.679 237.552 510.376 241.012 510.618 243.554 511.217 245.949 513.431 249.762C513.559 249.982 513.501 250.263 513.297 250.415 513.093 250.566 512.808 250.541 512.634 250.355L510.759 248.355C510.728 248.322 510.702 248.285 510.681 248.245L508.556 244.183C508.53 244.133 508.512 244.08 508.504 244.024L507.817 239.399C507.811 239.36 507.81 239.319 507.813 239.279L508.126 235.966C508.13 235.927 508.138 235.887 508.151 235.85L509.214 232.787C509.226 232.753 509.241 232.72 509.26 232.689L510.948 229.939C510.968 229.906 510.992 229.875 511.02 229.847L513.458 227.41C513.479 227.388 513.503 227.369 513.528 227.351L516.528 225.289C516.555 225.271 516.583 225.255 516.612 225.242L519.925 223.805C519.952 223.793 519.98 223.784 520.008 223.777L523.696 222.902C523.721 222.896 523.747 222.892 523.773 222.89ZM963.834 221.802 959.317 222.685 955.087 224.156 951.881 226.092 949.727 228.426 948.219 231.441 947.182 235.395 946.499 240.279 946.311 246.138 946.311 330.076C946.311 330.352 946.087 330.576 945.811 330.576L929.174 330.576 930.619 335.326 951.186 335.326 951.186 245.249 951.314 240.837 951.699 237.15 952.387 234.212C952.393 234.186 952.401 234.16 952.411 234.136L953.286 232.011C953.304 231.969 953.326 231.93 953.354 231.894L954.667 230.206C954.693 230.173 954.723 230.143 954.757 230.117L956.632 228.679C956.659 228.659 956.687 228.641 956.717 228.626L959.155 227.439C959.18 227.427 959.207 227.416 959.234 227.408L961.996 226.603ZM569.422 220.818 567.432 224.264 565.787 227.859ZM964.528 220.648C964.706 220.613 964.89 220.678 965.007 220.817 965.123 220.956 965.156 221.148 965.091 221.317L962.841 227.192C962.785 227.338 962.664 227.45 962.514 227.493L959.555 228.357 957.201 229.503 955.417 230.871 954.185 232.454 953.351 234.479 952.673 237.377 952.309 240.94 952.186 245.278 952.186 335.826C952.186 336.102 951.962 336.326 951.686 336.326L930.249 336.326C930.029 336.326 929.835 336.182 929.77 335.972L928.02 330.222C927.974 330.07 928.003 329.906 928.097 329.778 928.191 329.651 928.34 329.576 928.499 329.576L945.311 329.576 945.311 246.138 945.499 240.247 946.191 235.257 947.265 231.137C947.274 231.103 947.286 231.071 947.302 231.04L948.864 227.915C948.885 227.873 948.912 227.834 948.944 227.799L951.194 225.362C951.226 225.327 951.263 225.297 951.303 225.273L954.615 223.273C954.645 223.255 954.677 223.24 954.71 223.229L959.022 221.729C959.044 221.721 959.067 221.715 959.09 221.71ZM472.922 219.746 468.222 225.361 463.746 231.823 459.89 238.599 456.739 245.377 459.826 247.966 462.19 243.014 465.579 237.117 469.716 230.724 474.559 223.9 475.216 222.688ZM571.957 218.756 570.983 219.975 565.07 231.427 562.822 235.859 560.887 239.793 559.201 243.288 557.789 246.297 557.387 248.258 561.177 249.679 562.148 248.66 562.92 247.117 564.359 243.988 565.355 241.871 566.481 239.368 567.795 236.491 569.304 233.223 570.546 230.801 571.92 227.865 573.541 224.376 575.291 220.376 575.353 220.32ZM472.945 218.451C473.096 218.454 473.238 218.524 473.331 218.644L476.206 222.331C476.328 222.488 476.346 222.702 476.251 222.877L475.438 224.377 470.532 231.303 466.419 237.66 463.057 243.513 460.45 248.979C460.383 249.118 460.256 249.219 460.105 249.252 459.954 249.285 459.796 249.246 459.677 249.147L455.802 245.897C455.629 245.751 455.575 245.508 455.67 245.303L458.983 238.178 462.877 231.329 467.4 224.791 472.553 218.63C472.65 218.514 472.794 218.448 472.945 218.451ZM861.471 215.263 872.175 226.608C872.263 226.701 872.311 226.823 872.311 226.951L872.311 295.027 872.121 302.004 871.488 307.868 870.488 312.555C870.482 312.582 870.474 312.608 870.464 312.634L869.089 316.134C869.075 316.169 869.057 316.203 869.036 316.234L866.973 319.234C866.958 319.257 866.941 319.278 866.922 319.297L863.811 322.529 859.717 325.802 856 328.326 895.561 328.326C895.619 328.326 895.675 328.336 895.729 328.355L899.229 329.605C899.458 329.687 899.595 329.922 899.554 330.161 899.512 330.401 899.305 330.576 899.061 330.576L856.592 330.576 858.347 335.326 906.57 335.326 898.943 325.004 897.911 324.678C897.756 324.629 897.635 324.508 897.585 324.353L897.129 322.929 894.616 320.835C894.589 320.813 894.565 320.787 894.543 320.76L892.481 318.135C892.459 318.107 892.44 318.078 892.425 318.046L890.862 314.859C890.849 314.831 890.838 314.801 890.829 314.771L889.829 311.146C889.821 311.117 889.816 311.087 889.813 311.056L888.749 298.688 888.874 293.701 888.874 249.888C888.874 249.655 889.035 249.453 889.263 249.401 889.491 249.349 889.724 249.462 889.825 249.672L927.501 328.326 944.186 328.326 944.186 251.138 944.187 245.555 944.442 239.566 945.205 234.379 946.392 230.129C946.401 230.097 946.413 230.066 946.428 230.037L948.178 226.599C948.194 226.568 948.213 226.539 948.234 226.512L950.083 224.222 952.859 221.448 956.621 218.188 960.217 215.263 920.369 215.263 923.839 218.022 927.435 221.368 929.997 224.243C930.014 224.262 930.029 224.282 930.043 224.303L931.668 226.803C931.691 226.838 931.709 226.876 931.722 226.915L932.722 229.852C932.731 229.878 932.738 229.904 932.742 229.931L933.435 234.098 933.874 239.567 933.999 246.263 933.999 250.826 933.999 289.263C933.999 289.498 933.836 289.7 933.608 289.751 933.38 289.802 933.146 289.688 933.047 289.477L903.859 227.539C903.756 227.32 903.825 227.058 904.022 226.918L914.252 219.679 911.666 216.795 898.333 225.683 933.945 295.912C933.98 295.982 933.999 296.06 933.999 296.138L933.999 304.263C933.999 304.497 933.838 304.699 933.61 304.751 933.383 304.803 933.15 304.691 933.049 304.481L894.861 225.481C894.762 225.277 894.814 225.032 894.986 224.884L906.21 215.263ZM763.757 215.263 772.272 226.461C772.374 226.595 772.401 226.772 772.345 226.931L761.657 256.993C761.596 257.165 761.447 257.289 761.268 257.319 761.089 257.349 760.907 257.279 760.794 257.137L759.38 255.353 757.572 253.662 755.304 251.942 752.895 250.497 750.632 253.787 751.784 255.089 754.829 257.576 758.457 260.773 759.258 261.116C759.51 261.224 759.628 261.515 759.523 261.768L758.898 263.268C758.832 263.427 758.689 263.54 758.519 263.569 758.35 263.598 758.178 263.537 758.063 263.409L756.012 261.109 751.988 256.899 750.759 256.077 748.618 254.905 745.073 263.233 740.879 271.795 743.591 272.147 746.642 272.722 749.177 273.484 751.302 274.296C751.331 274.307 751.359 274.321 751.385 274.337L753.323 275.525C753.52 275.646 753.609 275.887 753.536 276.107L751.845 281.244 748.71 290.018 745.574 297.542 742.492 303.955 739.399 309.188 735.493 314.413 730.837 319.507 725.497 324.405 720.558 328.326 764.561 328.326C764.713 328.326 764.857 328.395 764.952 328.514L765.952 329.764C766.072 329.914 766.095 330.119 766.012 330.293 765.929 330.466 765.753 330.576 765.561 330.576L724.394 330.576 726.511 335.326 774.756 335.326 774.225 334.018 773.604 332.529 773.133 331.458 772.795 330.887 769.662 326.94 767.148 323.608 765.253 320.825 764.065 318.763C764.049 318.735 764.036 318.705 764.025 318.674L762.713 314.799C762.7 314.762 762.692 314.724 762.688 314.686L762.251 310.061C762.248 310.028 762.248 309.995 762.251 309.962L763.001 302.65C763.004 302.624 763.009 302.598 763.015 302.573L765.28 294.028 767.217 288.778C767.281 288.606 767.433 288.483 767.614 288.456 767.795 288.43 767.976 288.504 768.086 288.651L770.907 292.412 775.167 298.427 778.83 304.015 781.508 306.853 785.226 301.648 789.246 296.373 793.33 291.663 797.455 287.475C797.58 287.349 797.762 287.298 797.934 287.341 798.105 287.384 798.242 287.516 798.291 287.686L798.729 289.186C798.776 289.347 798.739 289.521 798.63 289.649L789.601 300.293 785.994 305.638 783.265 310.373 786.902 311.257 792.851 302.335 799.726 293.335C799.837 293.19 800.018 293.117 800.198 293.144 800.378 293.171 800.529 293.294 800.592 293.464L809.092 316.339C809.16 316.52 809.117 316.723 808.983 316.862L797.867 328.326 842.585 328.326 837.837 323.683C837.65 323.501 837.635 323.204 837.804 323.004 837.972 322.804 838.266 322.767 838.478 322.92L847.853 329.67C848.03 329.797 848.104 330.023 848.037 330.229 847.971 330.436 847.778 330.576 847.561 330.576L802.566 330.576 804.58 335.326 855.737 335.326 837.081 316.49C837.034 316.442 836.996 316.385 836.971 316.323L822.909 280.823C822.846 280.664 822.868 280.485 822.967 280.347 823.066 280.209 823.229 280.131 823.399 280.139L825.912 280.265 829.981 280.578 836.936 281.201 837.287 281.202 838.086 281.264 839.347 281.327 840.245 281.391 837.101 274.708 834.342 268.187 832.27 262.593 830.965 258.205 826.014 256.317 827.039 260.678 828.642 265.869 832.954 275.369C833.03 275.537 833.008 275.732 832.897 275.878 832.786 276.025 832.603 276.098 832.422 276.07L829.665 275.638 825.224 275.45 821.14 275.759 817.348 276.68 831.968 316.654C832.047 316.868 831.971 317.107 831.784 317.237 831.597 317.366 831.346 317.354 831.173 317.206L830.298 316.456C830.234 316.401 830.185 316.331 830.156 316.252L814.843 275.565C814.747 275.31 814.873 275.025 815.126 274.924L816.688 274.299C816.713 274.289 816.739 274.281 816.765 274.275L819.08 273.765 821.918 273.514 825.436 273.388 826.151 273.389 827.268 273.451 828.889 273.514 830.113 273.552 826.085 263.916 822.835 253.751 820.54 255.045 817.696 257.083 815.696 258.771C815.572 258.876 815.404 258.914 815.246 258.872 815.089 258.83 814.961 258.714 814.905 258.562L804.155 229.437C804.095 229.274 804.123 229.091 804.231 228.955L812.524 218.394 808.881 216.747 798.948 228.116 811.591 261.398C811.654 261.564 811.625 261.75 811.514 261.888L810.764 262.826C810.652 262.966 810.473 263.036 810.295 263.007 810.117 262.979 809.969 262.857 809.905 262.689L796.655 227.251C796.597 227.094 796.621 226.918 796.719 226.782L805.08 215.263ZM627.757 215.263 636.272 226.461C636.374 226.595 636.401 226.772 636.345 226.931L625.657 256.993C625.596 257.165 625.448 257.289 625.268 257.319 625.089 257.349 624.907 257.279 624.795 257.137L623.38 255.353 621.572 253.662 619.304 251.942 616.895 250.497 614.632 253.787 615.784 255.089 618.829 257.576 622.457 260.773 623.258 261.116C623.51 261.224 623.628 261.515 623.523 261.768L622.898 263.268C622.832 263.427 622.689 263.54 622.519 263.569 622.35 263.598 622.178 263.537 622.063 263.409L620.012 261.109 615.988 256.899 614.759 256.077 612.618 254.905 609.073 263.233 604.879 271.795 607.591 272.147 610.642 272.722 613.177 273.484 615.302 274.296C615.331 274.307 615.359 274.321 615.385 274.337L617.323 275.525C617.52 275.646 617.609 275.887 617.536 276.107L615.845 281.244 612.71 290.018 609.574 297.542 606.492 303.955 603.399 309.188 599.493 314.413 594.837 319.507 589.497 324.405 584.558 328.326 628.561 328.326C628.713 328.326 628.857 328.395 628.952 328.514L629.952 329.764C630.072 329.914 630.095 330.119 630.012 330.293 629.929 330.466 629.753 330.576 629.561 330.576L588.394 330.576 590.511 335.326 638.756 335.326 638.225 334.018 637.604 332.529 637.133 331.458 636.795 330.887 633.662 326.94 631.148 323.608 629.253 320.825 628.065 318.763C628.049 318.735 628.036 318.705 628.025 318.674L626.713 314.799C626.7 314.762 626.692 314.724 626.689 314.686L626.251 310.061C626.248 310.028 626.248 309.995 626.251 309.962L627.001 302.65C627.004 302.624 627.009 302.598 627.015 302.573L629.28 294.028 631.217 288.778C631.281 288.606 631.433 288.483 631.614 288.456 631.795 288.43 631.976 288.504 632.086 288.651L634.907 292.412 639.167 298.427 642.83 304.015 645.508 306.853 649.226 301.648 653.246 296.373 657.33 291.663 661.455 287.475C661.58 287.349 661.762 287.298 661.934 287.341 662.106 287.384 662.242 287.516 662.291 287.686L662.729 289.186C662.776 289.347 662.739 289.521 662.63 289.649L653.601 300.293 649.994 305.638 647.265 310.373 650.902 311.257 656.851 302.335 663.726 293.335C663.837 293.19 664.018 293.117 664.198 293.144 664.378 293.171 664.529 293.294 664.592 293.464L673.092 316.339C673.16 316.52 673.117 316.723 672.983 316.862L661.867 328.326 706.585 328.326 701.837 323.683C701.65 323.501 701.635 323.204 701.804 323.004 701.972 322.804 702.266 322.767 702.478 322.92L711.853 329.67C712.03 329.797 712.104 330.023 712.037 330.229 711.971 330.436 711.778 330.576 711.561 330.576L666.566 330.576 668.58 335.326 719.737 335.326 701.081 316.49C701.034 316.442 700.996 316.385 700.971 316.323L686.909 280.823C686.846 280.664 686.868 280.485 686.967 280.347 687.066 280.209 687.229 280.131 687.399 280.139L689.912 280.265 693.981 280.578 700.936 281.201 701.287 281.202 702.086 281.264 703.347 281.327 704.245 281.391 701.101 274.708 698.342 268.187 696.27 262.593 694.965 258.205 690.014 256.317 691.039 260.678 692.642 265.869 696.954 275.369C697.03 275.537 697.008 275.732 696.897 275.878 696.786 276.025 696.604 276.098 696.422 276.07L693.665 275.638 689.224 275.45 685.14 275.759 681.348 276.68 695.968 316.654C696.047 316.868 695.971 317.107 695.784 317.237 695.597 317.366 695.346 317.354 695.173 317.206L694.298 316.456C694.234 316.401 694.185 316.331 694.156 316.252L678.843 275.565C678.747 275.31 678.873 275.025 679.126 274.924L680.688 274.299C680.713 274.289 680.739 274.281 680.765 274.275L683.08 273.765 685.918 273.514 689.436 273.388 690.152 273.389 691.268 273.451 692.889 273.514 694.113 273.552 690.085 263.916 686.835 253.751 684.54 255.045 681.696 257.083 679.696 258.771C679.572 258.876 679.404 258.914 679.246 258.872 679.089 258.83 678.961 258.714 678.905 258.562L668.155 229.437C668.095 229.274 668.123 229.091 668.231 228.955L676.524 218.394 672.881 216.747 662.948 228.116 675.591 261.398C675.654 261.564 675.625 261.75 675.514 261.888L674.764 262.826C674.652 262.966 674.473 263.036 674.295 263.007 674.117 262.979 673.969 262.857 673.905 262.689L660.655 227.251C660.597 227.094 660.621 226.918 660.719 226.782L669.081 215.263ZM377.402 215.263 389.601 227.346C389.695 227.44 389.749 227.568 389.749 227.701L389.749 261.826C389.749 262.087 389.548 262.304 389.287 262.324L386.084 262.571 383.18 263.357 380.58 264.688 378.218 266.504 376.153 268.874 374.381 271.745 372.914 275.16 372.044 277.988 375.733 275.807 380.233 273.807C380.257 273.796 380.281 273.788 380.305 273.781L384.68 272.593C384.706 272.586 384.732 272.582 384.759 272.579L388.936 272.138 389.249 272.138C389.525 272.138 389.749 272.362 389.749 272.638L389.749 273.576C389.749 273.815 389.579 274.021 389.344 274.067L385.534 274.799 381.881 276.038 378.53 277.74 375.611 279.722 377.571 282.938 383.668 280.183C383.689 280.173 383.712 280.165 383.734 280.158L389.109 278.596C389.26 278.552 389.423 278.582 389.549 278.676 389.675 278.771 389.749 278.919 389.749 279.076L389.749 314.951C389.749 315.087 389.694 315.216 389.596 315.31L377.423 327.076 475.306 327.076 472.221 322.997 469.085 318.732 466.572 315.025 464.682 311.935 463.037 308.831 461.468 305.065 459.836 300.73 458.437 296.426 457.629 297.087 456.583 297.948 455.977 298.492 455.793 298.676 452.769 305.528C452.752 305.566 452.73 305.602 452.704 305.635L449.954 309.135C449.939 309.155 449.922 309.173 449.903 309.191L446.903 312.003C446.885 312.021 446.865 312.036 446.844 312.051L443.657 314.238C443.632 314.255 443.605 314.27 443.577 314.283L440.202 315.783C440.175 315.795 440.148 315.804 440.12 315.811L436.072 316.821 430.972 317.575 424.82 318.013 417.633 318.138C417.498 318.141 417.369 318.089 417.273 317.995 417.178 317.901 417.124 317.773 417.124 317.638L417.124 279.076C417.124 278.8 417.348 278.576 417.624 278.576L435.491 278.576 435.383 278.396C435.252 278.178 435.305 277.896 435.507 277.742 435.709 277.587 435.994 277.608 436.171 277.791L444.061 285.963 444.061 247.931 431.119 262.162C431.024 262.267 430.89 262.326 430.749 262.326L417.624 262.326C417.348 262.326 417.124 262.102 417.124 261.826L417.124 232.513C417.124 232.237 417.348 232.013 417.624 232.013L417.658 232.014 420.925 231.826 423.595 231.764 425.811 231.638 427.444 231.639 431.465 231.702 434.735 231.891 437.297 232.141C437.322 232.143 437.346 232.147 437.37 232.153L439.12 232.591C439.15 232.598 439.18 232.609 439.208 232.622L440.883 233.398 442.973 234.666 445.49 236.429 448.39 238.65 448.972 238.941 449.938 239.424 451.652 239.975C451.803 240.024 451.923 240.142 451.973 240.293L452.013 240.412 452.946 241.757 454.572 243.718 457.688 237.206 461.453 230.493 465.414 224.335 469.619 218.831 470.964 215.263ZM254.533 215.263 264.939 227.248C265.018 227.339 265.061 227.456 265.061 227.576L265.061 316.201C265.061 316.328 265.013 316.45 264.926 316.543L253.901 328.326 294.714 328.326 292.934 326.279C292.758 326.076 292.773 325.771 292.969 325.587 293.165 325.403 293.471 325.406 293.662 325.595L297.85 329.72C297.994 329.862 298.038 330.078 297.961 330.266 297.885 330.453 297.702 330.576 297.499 330.576L256.935 330.576 259.723 335.326 305.251 335.326 291.848 317.375C291.784 317.289 291.749 317.184 291.749 317.076L291.749 293.638C291.749 293.532 291.783 293.427 291.847 293.341L303.659 277.341C303.763 277.201 303.932 277.125 304.105 277.14 304.279 277.156 304.432 277.26 304.509 277.417L324.509 317.854C324.607 318.051 324.565 318.287 324.406 318.438L314.001 328.326 359.678 328.326 355.179 324.585C354.982 324.421 354.941 324.135 355.084 323.922 355.227 323.709 355.508 323.639 355.734 323.76L366.734 329.635C366.937 329.743 367.04 329.975 366.984 330.197 366.928 330.42 366.728 330.576 366.499 330.576L317.505 330.576 320.345 335.326 375.983 335.326 352.379 316.908C352.32 316.862 352.272 316.803 352.239 316.737L322.176 256.487C322.084 256.301 322.116 256.077 322.257 255.924L336.888 240.105 339.977 236.892 343.133 234.054 346.358 231.59 349.588 229.566 352.893 227.918 356.248 226.717 359.685 225.83 362.46 225.47 361.093 221.319 357.747 221.811 354.114 222.731 350.538 224.084 347.01 225.877 343.493 228.033 340.143 230.637 336.796 233.61 333.501 237.029 317.219 255.778 347.26 316.793C347.363 317.003 347.307 317.257 347.124 317.403 346.942 317.55 346.682 317.55 346.499 317.404L345.874 316.904C345.82 316.86 345.775 316.806 345.743 316.744L314.368 256.369C314.274 256.188 314.299 255.968 314.432 255.813L326.376 241.868 330.515 237.228 334.6 233.018 338.694 229.305 342.782 226.161 346.818 223.451 350.798 221.243 354.854 219.472 358.436 218.392 358.436 215.263 310.374 215.263 310.374 218.455 314.957 219.848C314.999 219.86 315.039 219.879 315.076 219.902L318.576 222.089C318.62 222.117 318.659 222.15 318.692 222.19L320.817 224.69C320.865 224.745 320.899 224.811 320.918 224.881L321.606 227.381C321.623 227.444 321.628 227.509 321.62 227.574L321.308 230.136C321.302 230.179 321.292 230.22 321.276 230.26L320.214 232.947C320.205 232.97 320.194 232.992 320.182 233.013L318.463 235.998 316.148 239.126 292.648 270.376C292.519 270.548 292.294 270.618 292.09 270.55 291.886 270.482 291.749 270.291 291.749 270.076L291.749 230.388C291.749 230.258 291.8 230.132 291.892 230.039L300.47 221.279 298.169 218.128 286.999 228.051 286.999 273.826C286.999 273.868 286.993 273.91 286.983 273.95L285.858 278.325C285.795 278.569 285.561 278.729 285.311 278.697 285.061 278.665 284.874 278.453 284.874 278.201L284.874 228.576C284.874 228.455 284.917 228.339 284.996 228.248L296.277 215.263ZM860.311 214.263 907.561 214.263C907.771 214.263 907.958 214.394 908.03 214.59 908.103 214.786 908.046 215.007 907.887 215.143L895.929 225.392 932.999 302.08 932.999 296.258 897.24 225.74C897.126 225.514 897.198 225.238 897.409 225.097L911.471 215.722C911.678 215.585 911.955 215.62 912.121 215.805L915.371 219.43C915.466 219.536 915.512 219.678 915.496 219.819 915.48 219.961 915.404 220.089 915.288 220.172L904.942 227.492 932.999 287.03 932.999 250.826 932.999 246.263 932.874 239.585 932.438 234.179 931.762 230.136 930.796 227.296 929.225 224.88 926.688 222.034 923.158 218.755 918.625 215.155C918.459 215.023 918.394 214.8 918.464 214.599 918.534 214.398 918.724 214.263 918.936 214.263L961.624 214.263C961.835 214.263 962.024 214.397 962.095 214.596 962.166 214.795 962.103 215.018 961.939 215.151L957.252 218.964 953.514 222.204 950.79 224.93 949.046 227.099 947.342 230.446 946.168 234.648 945.431 239.711 945.186 245.597 945.186 251.138 945.186 328.826C945.186 329.102 944.962 329.326 944.686 329.326L927.186 329.326C926.994 329.326 926.818 329.216 926.735 329.042L889.874 252.09 889.874 293.701 889.749 298.713 890.805 310.925 891.781 314.46 893.299 317.558 895.297 320.101 897.881 322.254C897.954 322.315 898.008 322.396 898.037 322.486L898.459 323.802 899.399 324.099C899.5 324.131 899.588 324.194 899.651 324.279L907.963 335.529C908.076 335.681 908.093 335.883 908.008 336.051 907.923 336.22 907.75 336.326 907.561 336.326L857.999 336.326C857.789 336.326 857.602 336.196 857.53 335.999L855.405 330.249C855.348 330.096 855.37 329.924 855.464 329.79 855.557 329.656 855.71 329.576 855.874 329.576L896.175 329.576 895.475 329.326 854.374 329.326C854.154 329.326 853.96 329.183 853.896 328.973 853.831 328.763 853.911 328.536 854.093 328.412L859.155 324.975 863.186 321.748 866.172 318.634 868.179 315.715 869.518 312.306 870.51 307.659 871.127 301.897 871.311 295 871.311 227.15 859.948 215.107C859.811 214.961 859.773 214.749 859.852 214.565 859.931 214.382 860.112 214.263 860.311 214.263ZM762.749 214.263 806.061 214.263C806.249 214.263 806.421 214.369 806.507 214.536 806.592 214.704 806.576 214.905 806.466 215.057L797.686 227.152 797.961 227.887 797.997 227.684 808.372 215.809C808.517 215.643 808.754 215.592 808.955 215.683L813.517 217.745C813.657 217.809 813.76 217.933 813.797 218.082 813.833 218.231 813.799 218.389 813.705 218.51L805.19 229.353 815.596 257.547 817.051 256.319 819.957 254.232 822.878 252.578C823.009 252.504 823.166 252.493 823.306 252.548 823.446 252.603 823.554 252.718 823.6 252.861L825.775 259.661 824.825 255.628C824.782 255.448 824.843 255.259 824.982 255.137 825.121 255.015 825.317 254.98 825.49 255.046L831.552 257.359C831.697 257.414 831.809 257.534 831.853 257.683L833.228 262.308 835.28 267.84 838.022 274.319 841.514 281.738C841.589 281.899 841.574 282.087 841.474 282.234 841.373 282.38 841.203 282.462 841.026 282.45L839.276 282.325 838.036 282.263 837.21 282.199 836.936 282.201 829.892 281.574 825.835 281.262 824.125 281.177 837.863 315.859 857.292 335.474C857.434 335.617 857.475 335.832 857.398 336.018 857.32 336.205 857.138 336.326 856.936 336.326L804.249 336.326C804.048 336.326 803.867 336.206 803.788 336.021L801.351 330.271C801.285 330.117 801.302 329.94 801.394 329.8 801.487 329.66 801.644 329.576 801.811 329.576L846.011 329.576 843.289 327.616 844.161 328.468C844.306 328.611 844.351 328.826 844.274 329.015 844.198 329.203 844.015 329.326 843.811 329.326L796.686 329.326C796.485 329.326 796.304 329.206 796.226 329.021 796.148 328.836 796.188 328.622 796.327 328.478L808.045 316.392 799.971 294.662 793.646 302.942 787.54 312.103C787.423 312.278 787.21 312.361 787.006 312.312L782.381 311.187C782.228 311.15 782.101 311.043 782.039 310.898 781.977 310.753 781.987 310.588 782.066 310.451L785.128 305.139 788.772 299.734 797.693 289.208 797.57 288.784 794.042 292.364 790.002 297.028 786.021 302.254 781.968 307.929C781.881 308.051 781.744 308.127 781.595 308.137 781.446 308.147 781.3 308.09 781.198 307.982L778.073 304.669C778.052 304.648 778.034 304.625 778.018 304.6L774.331 298.975 770.091 292.99 767.837 289.986 766.218 294.374 763.992 302.791 763.251 310.015 763.679 314.533 764.957 318.307 766.12 320.326 767.974 323.044 770.46 326.337 773.578 330.265 773.99 330.944 774.518 332.123 775.148 333.634 775.962 335.638C776.025 335.792 776.006 335.967 775.914 336.105 775.821 336.243 775.665 336.326 775.499 336.326L726.186 336.326C725.989 336.326 725.81 336.21 725.73 336.029L723.167 330.279C723.098 330.125 723.112 329.946 723.204 329.804 723.297 329.662 723.454 329.576 723.624 329.576L764.521 329.576 764.321 329.326 719.124 329.326C718.911 329.326 718.722 329.191 718.652 328.991 718.582 328.79 718.646 328.567 718.813 328.434L724.875 323.622 730.161 318.77 734.755 313.739 738.598 308.589 741.631 303.447 744.673 297.109 747.787 289.634 750.903 280.908 752.463 276.17 750.902 275.214 748.82 274.418 746.355 273.68 743.407 273.13 740.06 272.697C739.9 272.676 739.76 272.58 739.683 272.438 739.607 272.296 739.604 272.126 739.675 271.981L744.175 262.794 747.914 254.005C747.969 253.875 748.077 253.775 748.21 253.729 748.343 253.682 748.49 253.695 748.614 253.762L749.896 254.465 749.624 254.157C749.472 253.985 749.457 253.732 749.587 253.543L752.337 249.543C752.486 249.325 752.78 249.261 753.006 249.397L755.819 251.085 758.175 252.865 760.09 254.648C760.108 254.665 760.125 254.683 760.141 254.703L761.017 255.808 771.312 226.851 762.351 215.066C762.236 214.915 762.216 214.712 762.301 214.541 762.385 214.371 762.559 214.263 762.749 214.263ZM626.749 214.263 670.061 214.263C670.249 214.263 670.421 214.369 670.507 214.536 670.592 214.704 670.576 214.905 670.466 215.057L661.686 227.152 661.961 227.887 661.997 227.684 672.372 215.809C672.517 215.643 672.754 215.592 672.955 215.683L677.517 217.745C677.657 217.809 677.76 217.933 677.797 218.082 677.833 218.231 677.799 218.389 677.705 218.51L669.19 229.353 679.596 257.547 681.051 256.319 683.957 254.232 686.878 252.578C687.009 252.504 687.166 252.493 687.306 252.548 687.446 252.603 687.554 252.718 687.6 252.861L689.775 259.662 688.825 255.628C688.782 255.448 688.843 255.259 688.982 255.137 689.121 255.015 689.317 254.98 689.49 255.046L695.552 257.359C695.697 257.414 695.809 257.534 695.853 257.683L697.228 262.308 699.28 267.84 702.022 274.319 705.514 281.738C705.589 281.899 705.574 282.087 705.474 282.234 705.373 282.38 705.203 282.462 705.026 282.45L703.276 282.325 702.036 282.263 701.21 282.199 700.936 282.201 693.892 281.574 689.835 281.262 688.125 281.177 701.863 315.859 721.292 335.474C721.434 335.617 721.475 335.832 721.398 336.018 721.32 336.205 721.138 336.326 720.936 336.326L668.249 336.326C668.048 336.326 667.867 336.206 667.788 336.021L665.351 330.271C665.285 330.117 665.302 329.94 665.394 329.8 665.487 329.66 665.644 329.576 665.811 329.576L710.011 329.576 707.289 327.616 708.161 328.468C708.306 328.611 708.351 328.826 708.274 329.015 708.198 329.203 708.015 329.326 707.811 329.326L660.686 329.326C660.485 329.326 660.304 329.206 660.226 329.021 660.148 328.836 660.188 328.622 660.327 328.478L672.045 316.392 663.971 294.662 657.646 302.942 651.54 312.103C651.423 312.278 651.21 312.361 651.006 312.312L646.381 311.187C646.228 311.15 646.101 311.043 646.039 310.898 645.977 310.753 645.987 310.588 646.066 310.451L649.128 305.139 652.772 299.734 661.693 289.208 661.57 288.784 658.042 292.364 654.002 297.028 650.021 302.254 645.968 307.929C645.881 308.051 645.744 308.127 645.595 308.137 645.446 308.147 645.3 308.09 645.198 307.982L642.073 304.669C642.052 304.648 642.034 304.625 642.018 304.6L638.331 298.975 634.091 292.99 631.837 289.986 630.218 294.374 627.992 302.791 627.251 310.016 627.679 314.533 628.957 318.306 630.12 320.326 631.974 323.044 634.46 326.337 637.578 330.265 637.99 330.944 638.518 332.123 639.148 333.634 639.962 335.638C640.025 335.792 640.007 335.967 639.914 336.105 639.821 336.243 639.665 336.326 639.499 336.326L590.186 336.326C589.989 336.326 589.81 336.21 589.73 336.029L587.167 330.279C587.098 330.125 587.112 329.946 587.204 329.804 587.297 329.662 587.454 329.576 587.624 329.576L628.521 329.576 628.321 329.326 583.124 329.326C582.911 329.326 582.722 329.191 582.652 328.991 582.582 328.79 582.646 328.567 582.813 328.434L588.875 323.622 594.161 318.77 598.755 313.739 602.598 308.589 605.631 303.447 608.673 297.109 611.787 289.634 614.903 280.908 616.463 276.17 614.902 275.214 612.82 274.418 610.355 273.68 607.407 273.13 604.06 272.697C603.9 272.676 603.76 272.58 603.683 272.438 603.607 272.296 603.604 272.126 603.675 271.981L608.175 262.794 611.914 254.005C611.969 253.875 612.077 253.775 612.21 253.729 612.343 253.682 612.49 253.695 612.614 253.762L613.896 254.465 613.624 254.157C613.472 253.985 613.457 253.732 613.587 253.543L616.337 249.543C616.486 249.325 616.78 249.261 617.006 249.397L619.819 251.085 622.176 252.865 624.09 254.648C624.108 254.665 624.125 254.683 624.141 254.703L625.017 255.808 635.312 226.851 626.351 215.066C626.236 214.915 626.216 214.712 626.301 214.541 626.385 214.371 626.559 214.263 626.749 214.263ZM376.186 214.263 471.686 214.263C471.85 214.263 472.004 214.344 472.098 214.479 472.191 214.614 472.212 214.786 472.154 214.94L470.529 219.252C470.512 219.298 470.488 219.341 470.459 219.38L466.209 224.942 462.294 231.034 458.56 237.696 455.137 244.854C455.064 245.008 454.917 245.114 454.748 245.135 454.578 245.156 454.41 245.089 454.301 244.958L452.176 242.395 451.151 240.924 451.115 240.853 449.596 240.364C449.572 240.357 449.548 240.347 449.525 240.336L448.525 239.836 447.9 239.523C447.872 239.509 447.845 239.492 447.82 239.473L444.882 237.223 442.4 235.486 440.365 234.254 438.832 233.55 437.163 233.133 434.638 232.886 431.408 232.7 427.428 232.638 425.811 232.638 423.652 232.763 420.948 232.826 418.124 232.989 418.124 261.326 430.528 261.326 444.191 246.302C444.33 246.149 444.549 246.098 444.742 246.172 444.934 246.247 445.061 246.432 445.061 246.638L445.061 247.902 450.654 249.726C450.86 249.793 450.999 249.985 450.999 250.201L450.999 291.076C450.999 291.234 450.924 291.383 450.796 291.478 450.669 291.572 450.505 291.6 450.353 291.554L444.603 289.804C444.393 289.74 444.249 289.546 444.249 289.326L444.249 287.558 444.202 287.548 436.457 279.527 436.374 279.576 418.124 279.576 418.124 317.13 424.803 317.014 430.901 316.577 435.926 315.831 439.835 314.851 443.129 313.388 446.247 311.248 449.192 308.487 451.879 305.066 454.916 298.187C454.941 298.13 454.977 298.079 455.02 298.035L455.27 297.785 455.914 297.204 456.993 296.315 458.37 295.189C458.497 295.084 458.669 295.05 458.827 295.096 458.986 295.143 459.111 295.264 459.162 295.421L460.787 300.421 462.404 304.712 463.96 308.446 465.565 311.467 467.425 314.502 469.913 318.17 473.027 322.405 476.71 327.274C476.825 327.426 476.844 327.629 476.759 327.799 476.674 327.969 476.501 328.076 476.311 328.076L376.186 328.076C375.983 328.076 375.799 327.952 375.723 327.763 375.646 327.574 375.692 327.358 375.839 327.216L388.749 314.739 388.749 279.742 384.047 281.109 377.58 284.032C377.35 284.136 377.078 284.052 376.947 283.836L374.509 279.836C374.371 279.609 374.435 279.312 374.655 279.162L377.968 276.912 381.459 275.13C381.481 275.119 381.503 275.11 381.526 275.102L385.213 273.852 388.749 273.164 388.749 273.158 384.904 273.569 380.604 274.736 376.139 276.72 371.441 279.506C371.263 279.611 371.039 279.597 370.877 279.469 370.715 279.341 370.648 279.126 370.708 278.929L371.958 274.866 373.477 271.316C373.486 271.294 373.498 271.272 373.511 271.251L375.323 268.313C375.338 268.29 375.354 268.268 375.372 268.247L377.497 265.81C377.519 265.785 377.543 265.762 377.569 265.742L380.006 263.867C380.031 263.849 380.056 263.832 380.084 263.818L382.771 262.443C382.802 262.427 382.835 262.415 382.868 262.406L385.868 261.593C385.898 261.585 385.929 261.58 385.96 261.577L388.749 261.363 388.749 227.909 375.834 215.119C375.69 214.976 375.647 214.761 375.724 214.573 375.801 214.386 375.984 214.263 376.186 214.263ZM253.436 214.263 297.374 214.263C297.57 214.263 297.747 214.378 297.829 214.556 297.91 214.734 297.88 214.944 297.751 215.091L289.872 224.161 297.917 217.015C298.022 216.921 298.162 216.876 298.302 216.891 298.442 216.906 298.57 216.98 298.653 217.094L301.528 221.031C301.672 221.229 301.652 221.501 301.481 221.676L292.749 230.593 292.749 268.579 315.349 238.525 317.659 235.404 319.297 232.546 320.323 229.952 320.616 227.551 319.984 225.253 317.981 222.896 314.603 220.785 309.728 219.304C309.518 219.24 309.374 219.046 309.374 218.826L309.374 214.763C309.374 214.487 309.598 214.263 309.874 214.263L358.936 214.263C359.212 214.263 359.436 214.487 359.436 214.763L359.436 218.763C359.436 218.984 359.292 219.178 359.081 219.242L355.143 220.43 351.199 222.159 347.304 224.326 343.874 226.632 346.487 225.025 350.085 223.193 353.759 221.796 357.501 220.841 361.363 220.269C361.604 220.233 361.835 220.376 361.911 220.607L363.599 225.732C363.645 225.874 363.626 226.029 363.547 226.155 363.467 226.281 363.336 226.365 363.188 226.384L359.813 226.822 356.499 227.685 353.23 228.859 350.035 230.461 346.89 232.437 343.74 234.848 340.646 237.635 337.609 240.797 323.225 256.349 353.083 316.189 377.744 335.432C377.912 335.563 377.979 335.787 377.909 335.989 377.84 336.19 377.65 336.326 377.436 336.326L320.061 336.326C319.885 336.326 319.722 336.234 319.632 336.083L316.195 330.333C316.102 330.178 316.1 329.986 316.189 329.829 316.278 329.673 316.444 329.576 316.624 329.576L364.501 329.576 359.592 326.954 361.381 328.441C361.543 328.576 361.603 328.798 361.532 328.996 361.46 329.194 361.272 329.326 361.061 329.326L312.749 329.326C312.544 329.326 312.36 329.201 312.284 329.011 312.209 328.821 312.256 328.604 312.404 328.464L323.45 317.967 303.977 278.595 292.749 293.803 292.749 316.91 306.649 335.527C306.763 335.678 306.781 335.881 306.696 336.05 306.611 336.219 306.438 336.326 306.249 336.326L259.436 336.326C259.259 336.326 259.095 336.232 259.005 336.079L255.63 330.329C255.539 330.174 255.538 329.983 255.627 329.828 255.716 329.672 255.882 329.576 256.061 329.576L296.279 329.576 295.941 329.243 295.811 329.326 252.749 329.326C252.55 329.326 252.369 329.208 252.29 329.025 252.211 328.842 252.248 328.63 252.384 328.484L264.061 316.004 264.061 227.763 253.059 215.091C252.93 214.943 252.9 214.734 252.981 214.556 253.063 214.378 253.24 214.263 253.436 214.263ZM526.41 213.325 518.701 213.884 511.723 215.551 505.559 218.325 500.077 222.145 495.588 226.879 492.396 232.281 490.492 238.362 489.876 245.142 490.369 251.621 491.784 257.343 494.176 262.31 497.483 266.537 500.19 268.751C500.379 268.906 500.429 269.173 500.309 269.384 500.189 269.596 499.935 269.691 499.706 269.609L496.235 268.37 497.03 271.268 498.661 274.41 501.011 276.941 503.984 278.882 508.094 280.602 513.695 282.469 520.868 284.465 529.494 286.591 535.319 288.032 540.08 289.347 543.874 290.487 546.499 291.55C546.525 291.56 546.549 291.573 546.573 291.587L550.948 294.275C550.973 294.29 550.997 294.308 551.018 294.327L555.275 298.111 557.042 297.308C557.171 297.25 557.319 297.248 557.449 297.305 557.579 297.362 557.678 297.471 557.723 297.605L557.786 297.793C557.798 297.831 557.806 297.87 557.81 297.91L558.185 302.473C558.187 302.502 558.187 302.532 558.184 302.562L557.809 306.437C557.805 306.475 557.797 306.513 557.785 306.549L556.597 310.049C556.585 310.087 556.568 310.122 556.546 310.156L554.609 313.218C554.587 313.253 554.561 313.284 554.532 313.313L551.782 315.938C551.757 315.961 551.731 315.981 551.703 315.999L548.328 318.124C548.301 318.141 548.273 318.155 548.243 318.167L544.243 319.729C544.214 319.74 544.185 319.749 544.154 319.755L539.467 320.638 534.279 320.95 527.534 320.505 526.847 320.38C526.609 320.337 526.436 320.13 526.436 319.888L526.436 318.357 520.302 314.628C520.267 314.607 520.236 314.583 520.208 314.555L515.145 309.492C515.115 309.462 515.09 309.429 515.068 309.393L511.381 303.143C511.362 303.11 511.346 303.076 511.335 303.041L509.089 296.008 504.545 296.679 505.53 300.964 507.142 305.305 509.232 309.115 511.806 312.487 513.898 314.394C514.095 314.574 514.117 314.877 513.947 315.082 513.776 315.288 513.475 315.324 513.261 315.163L511.511 313.851C511.491 313.836 511.472 313.819 511.455 313.802L507.58 309.864C507.554 309.838 507.531 309.809 507.512 309.778L504.512 304.965C504.495 304.939 504.481 304.91 504.47 304.88L502.282 299.193C502.273 299.168 502.265 299.142 502.259 299.116L500.952 292.877 497.327 292.152 494.707 299.651 491.184 307.696 482.872 322.446C482.791 322.59 482.645 322.684 482.482 322.699 482.318 322.714 482.158 322.647 482.052 322.521L474.452 313.406 470.739 307.55 467.968 302.007 463.271 300.857 465.996 307.517 469.9 314.402 474.628 320.748 480.29 326.41C480.46 326.58 480.485 326.846 480.35 327.044L478.1 330.357C478.007 330.494 477.852 330.576 477.686 330.576L383.342 330.576 385.097 335.326 480.638 335.326 484.309 328.526C484.402 328.352 484.589 328.25 484.786 328.265 484.982 328.279 485.152 328.408 485.219 328.594L486.685 332.654 491.486 331.283C491.514 331.275 491.543 331.269 491.571 331.266L496.321 330.766C496.349 330.763 496.377 330.763 496.405 330.764L501.526 331.084 506.367 331.965 520.148 335.334 528.214 336.764 537.27 337.265 546.352 336.519 554.701 334.354 562.364 330.646 569.274 325.531 572.363 322.507 575.024 319.293 577.306 315.968 579.157 312.459 580.579 308.756 581.63 304.937 582.249 300.929 582.437 296.733 582.195 292.854 581.514 289.142 580.298 285.668 578.69 282.327 576.563 279.222 573.981 276.326 570.894 273.607 568.124 271.614 568.124 273.513C568.124 273.716 568.002 273.898 567.815 273.975 567.628 274.053 567.413 274.01 567.27 273.867L567.232 273.827 562.701 269.854 557.206 266.459 550.67 263.681 543.067 261.437 528.552 257.87 524.302 256.682C524.158 256.642 524.04 256.54 523.979 256.404 523.919 256.267 523.922 256.111 523.989 255.977L524.637 254.683 523.548 253.643 520.048 250.643C520.027 250.625 520.008 250.605 519.99 250.584L517.49 247.584C517.467 247.556 517.447 247.526 517.43 247.495L515.93 244.62C515.907 244.575 515.89 244.526 515.882 244.476L515.382 241.663C515.373 241.618 515.372 241.571 515.376 241.525L515.626 239.087C515.63 239.054 515.637 239.021 515.647 238.989L516.334 236.801C516.346 236.764 516.362 236.729 516.381 236.696L517.569 234.696C517.585 234.668 517.605 234.641 517.627 234.617L519.252 232.805C519.276 232.778 519.303 232.754 519.332 232.732L521.332 231.295C521.36 231.275 521.39 231.258 521.421 231.244L523.671 230.244C523.698 230.232 523.726 230.222 523.755 230.215L526.318 229.59C526.346 229.583 526.374 229.579 526.402 229.577L529.152 229.39C529.184 229.387 529.216 229.388 529.248 229.392L534.31 230.017C534.349 230.022 534.388 230.031 534.424 230.045L539.424 231.92C539.456 231.932 539.487 231.948 539.516 231.966L544.454 235.091C544.476 235.105 544.498 235.122 544.518 235.139L549.265 239.352 550.338 238.816C550.466 238.752 550.615 238.746 550.747 238.799 550.88 238.853 550.984 238.96 551.032 239.095L551.912 241.548 552.958 244.816 553.506 246.094 554.371 247.487 556.441 246.452 557.483 244.428 559.039 241.067 561.037 236.384 563.482 230.493 566.566 223.763 570.492 216.965 568.294 215.818 563.576 217.908C563.54 217.924 563.501 217.936 563.462 217.943L559.274 218.693C559.233 218.701 559.19 218.703 559.148 218.699L557.484 218.57 555.458 218.253 553.057 217.747 550.256 216.999 543.597 215.38 537.44 214.26 531.663 213.575ZM526.338 212.327 531.71 212.577 537.557 213.267 543.776 214.397 550.492 216.028 553.315 216.78 555.664 217.274 557.638 217.582 559.161 217.698 563.226 216.969 568.109 214.806C568.248 214.745 568.408 214.75 568.543 214.82L571.418 216.32C571.538 216.383 571.628 216.493 571.666 216.624 571.704 216.755 571.687 216.895 571.619 217.014L570.446 219.044 571.421 217.826C571.564 217.647 571.812 217.588 572.02 217.684L576.77 219.872C576.959 219.958 577.074 220.152 577.06 220.359 577.046 220.566 576.906 220.743 576.708 220.804L576.115 220.986 574.457 224.776 572.827 228.287 571.452 231.225 570.194 233.679 568.703 236.91 567.391 239.784 566.267 242.281 565.264 244.414 563.828 247.535 563.009 249.175C562.986 249.219 562.958 249.26 562.923 249.296L561.673 250.608C561.535 250.753 561.323 250.802 561.136 250.732L556.636 249.044C556.405 248.958 556.272 248.717 556.321 248.475L556.515 247.533 554.41 248.586C554.179 248.701 553.898 248.622 553.761 248.402L552.636 246.59C552.623 246.568 552.612 246.546 552.602 246.523L552.039 245.21 550.96 241.854 550.281 239.963 549.41 240.398C549.227 240.49 549.007 240.461 548.854 240.325L543.885 235.914 539.025 232.839 534.129 231.002 529.173 230.391 526.513 230.572 524.036 231.176 521.874 232.137 519.96 233.513 518.404 235.248 517.271 237.156 516.616 239.24 516.378 241.557 516.853 244.225 518.292 246.985 520.731 249.911 524.199 252.884 525.594 254.214C525.753 254.366 525.794 254.603 525.696 254.8L525.155 255.883 528.821 256.907 543.306 260.465 550.953 262.721 557.632 265.553C557.655 265.563 557.678 265.575 557.699 265.588L563.262 269.026C563.285 269.04 563.308 269.057 563.328 269.075L567.124 272.402 567.124 270.638C567.124 270.451 567.229 270.279 567.396 270.193 567.563 270.108 567.763 270.123 567.916 270.233L571.478 272.795 574.642 275.576 577.309 278.555 579.536 281.793C579.55 281.814 579.563 281.836 579.574 281.859L581.199 285.234 582.471 288.848C582.479 288.872 582.486 288.898 582.491 288.923L583.178 292.673 583.435 296.669 583.248 300.973 582.618 305.089 581.544 309.021 580.091 312.817 578.191 316.434 575.849 319.859 573.134 323.145 569.974 326.246 562.922 331.478C562.896 331.496 562.87 331.512 562.842 331.526L555.092 335.276C555.062 335.29 555.031 335.302 554.999 335.31L546.562 337.497C546.534 337.505 546.506 337.509 546.477 337.512L537.352 338.262 528.159 337.763 519.974 336.318 506.13 332.937 501.347 332.068 496.385 331.765 491.719 332.256 486.511 333.744C486.258 333.816 485.993 333.681 485.904 333.433L484.658 329.984 481.376 336.063C481.289 336.225 481.12 336.326 480.936 336.326L384.749 336.326C384.54 336.326 384.352 336.196 384.28 335.999L382.155 330.249C382.098 330.096 382.12 329.924 382.214 329.79 382.307 329.656 382.46 329.576 382.624 329.576L477.422 329.576 479.29 326.825 473.895 321.43C473.878 321.412 473.862 321.394 473.848 321.375L469.098 315 465.126 308.01 461.974 300.328C461.902 300.154 461.935 299.955 462.057 299.812 462.18 299.67 462.372 299.608 462.555 299.653L468.43 301.09C468.573 301.125 468.693 301.221 468.759 301.352L471.634 307.102 475.296 312.871 482.356 321.325 490.313 307.205 493.791 299.251 496.527 291.411C496.609 291.176 496.852 291.037 497.097 291.086L501.472 291.961C501.668 292 501.822 292.152 501.863 292.348L503.23 298.872 505.386 304.477 506.731 306.634 506.248 305.754C506.236 305.733 506.226 305.71 506.218 305.688L504.593 301.313 503.449 296.376C503.418 296.24 503.445 296.097 503.523 295.982 503.602 295.866 503.725 295.789 503.863 295.769L509.363 294.956C509.606 294.921 509.838 295.066 509.913 295.299L512.271 302.683 515.897 308.83 520.872 313.805 527.196 317.649C527.345 317.739 527.436 317.901 527.436 318.076L527.436 319.471 527.713 319.522 534.344 319.952 539.406 319.639 543.922 318.781 547.835 317.253 551.127 315.18 553.797 312.632 555.669 309.671 556.819 306.283 557.184 302.51 556.854 298.492 555.393 299.156C555.213 299.238 555.002 299.206 554.854 299.075L550.387 295.104 546.085 292.461 543.499 291.414 539.793 290.305 535.053 288.995 529.254 287.561 520.629 285.436 513.427 283.433 507.778 281.55 503.556 279.787C503.528 279.776 503.501 279.761 503.475 279.745L500.413 277.745C500.379 277.722 500.348 277.696 500.32 277.666L497.882 275.041C497.852 275.008 497.826 274.971 497.805 274.931L496.118 271.681C496.101 271.65 496.088 271.617 496.079 271.583L495.017 267.708C494.967 267.528 495.022 267.336 495.159 267.209 495.296 267.083 495.491 267.042 495.667 267.105L497.321 267.696 496.807 267.275C496.779 267.252 496.753 267.226 496.73 267.197L493.355 262.884C493.333 262.856 493.314 262.825 493.298 262.793L490.861 257.73C490.846 257.699 490.834 257.667 490.826 257.633L489.388 251.821C489.382 251.794 489.377 251.767 489.375 251.739L488.875 245.176C488.873 245.149 488.873 245.121 488.876 245.093L489.501 238.218C489.504 238.183 489.511 238.148 489.522 238.114L491.459 231.927C491.471 231.89 491.486 231.855 491.506 231.822L494.756 226.322C494.775 226.289 494.798 226.259 494.823 226.232L499.386 221.419C499.409 221.395 499.435 221.373 499.463 221.353L505.026 217.478C505.051 217.461 505.078 217.445 505.106 217.432L511.356 214.62C511.385 214.607 511.415 214.597 511.445 214.59L518.508 212.902C518.534 212.896 518.561 212.892 518.588 212.89Z" fill="#E2F0D9" fill-rule="evenodd"/><path d="M758.423 277.704C758.361 278.858 757.779 281.155 756.675 284.595L753.846 293.385C752.38 297.86 751.647 301.584 751.647 304.556 751.647 307.542 752.132 309.984 753.103 311.881L753.308 312.221 753.086 311.342C752.771 309.725 752.614 307.981 752.614 306.109 752.614 299.987 755.011 291.388 759.807 280.313ZM622.423 277.704C622.361 278.858 621.779 281.155 620.675 284.595L617.846 293.385C616.38 297.86 615.647 301.584 615.647 304.556 615.647 307.542 616.132 309.984 617.103 311.881L617.308 312.221 617.086 311.342C616.771 309.725 616.614 307.981 616.614 306.109 616.614 299.987 619.011 291.388 623.807 280.313ZM566.733 273.617 566.976 273.933C570.022 278.841 571.545 284.633 571.545 291.309 571.545 301.23 567.81 309.564 560.34 316.308 552.87 323.053 543.665 326.425 532.725 326.425 525.957 326.425 518.484 325.416 510.308 323.397L499.448 320.719C495.983 319.894 493.027 319.482 490.58 319.482 488.206 319.482 485.455 320.109 482.328 321.364L481.654 321.667 482.023 321.959 481.116 323.648 483.254 322.702C486.08 321.61 488.752 321.064 491.27 321.064 494.831 321.064 499.263 321.687 504.564 322.934L516.77 325.89C521.896 327.126 527.331 327.744 533.074 327.744 544.103 327.744 553.478 324.239 561.197 317.23 568.916 310.22 572.776 301.777 572.776 291.898 572.776 285.656 571.027 279.896 567.528 274.615ZM405.756 268.681 405.756 313.505 407.69 313.505 407.69 269.208 427.072 269.208 426.564 268.681ZM296.875 267.276 281.207 287.324 281.207 312.795 282.35 314.09 282.35 287.123 297.386 269.099ZM498.693 267.085 499.364 267.862C502.001 270.065 506.57 271.958 513.072 273.543L526.945 276.988C536.526 279.383 543.015 281.5 546.412 283.338 547.261 283.797 548.054 284.348 548.789 284.991L550.738 287.102 550.226 286.085C549.493 284.943 548.637 283.876 547.658 282.882 541.38 279.595 531.345 276.6 517.553 273.897 511.955 272.801 507.11 271.325 503.017 269.467ZM440.561 244.198 446.362 246.023 446.362 286.909 440.561 285.147ZM778.811 241.767 771.167 264.648C771.502 264.849 771.699 265.009 771.757 265.128L774.188 268.242C776.099 270.133 778.132 272.564 780.287 275.537L782.402 278.573 784.795 275.174C785.941 273.848 787.292 272.532 788.848 271.227ZM642.811 241.767 635.167 264.648C635.502 264.849 635.699 265.009 635.757 265.128L638.188 268.242C640.099 270.133 642.132 272.564 644.287 275.537L646.402 278.573 648.795 275.174C649.941 273.848 651.292 272.532 652.848 271.227ZM878.188 232.459 878.188 280.34C878.188 295.894 879.145 305.923 881.059 310.426 881.538 311.551 882.189 312.604 883.012 313.584L884.11 314.585 883.11 313.154C880.532 308.624 879.243 302.57 879.243 294.991L879.331 286.89 879.331 240.209ZM774.905 231.77 763.066 265.812C767.156 269.842 770.793 274.059 773.979 278.462L777.456 283.299 777.881 282.783C778.073 282.527 778.311 282.408 778.594 282.426 774.835 277.089 770.153 271.703 764.546 266.268L775.577 236.672ZM638.905 231.77 627.066 265.812C631.156 269.842 634.793 274.059 637.979 278.462L641.456 283.299 641.881 282.783C642.073 282.527 642.311 282.408 642.594 282.426 638.835 277.089 634.153 271.703 628.546 266.268L639.577 236.672ZM419.418 221.132C415.168 221.132 410.614 221.248 405.756 221.478L405.756 257.695 407.69 257.695 407.69 222.797C413.313 222.273 418.06 222.011 421.931 222.011 429.477 222.011 435.119 222.854 438.857 224.541L439.242 224.748 439.19 224.704C438.78 224.4 438.368 224.132 437.953 223.902 434.635 222.055 428.457 221.132 419.418 221.132ZM523.711 218.935C518.057 218.935 513.38 220.488 509.681 223.593 505.983 226.698 504.133 230.565 504.133 235.193 504.133 238.473 505.088 241.368 506.998 243.879L508.849 245.859 506.581 241.975C506.004 240.385 505.715 238.688 505.715 236.884 505.715 231.86 507.503 227.782 511.079 224.653 514.655 221.523 519.255 219.958 524.878 219.958 527.501 219.958 529.972 220.244 532.293 220.815L534.715 221.585 534.562 221.499C531.2 219.79 527.582 218.935 523.711 218.935ZM960.46 216.964 958.233 222.857C953.836 223.886 950.953 225.607 949.585 228.02 948.218 230.433 947.534 234.803 947.534 241.13L947.534 331.699 926.08 331.699 924.324 325.898 941.645 325.898 941.645 241.991C941.645 233.528 942.806 227.527 945.128 223.987 947.449 220.447 952.56 218.106 960.46 216.964ZM468.808 214.804 471.683 218.46 470.86 220.01C463.876 229.396 458.862 237.593 455.818 244.599L451.965 241.327C455.973 231.611 461.587 222.77 468.808 214.804ZM567.662 214.004 572.394 216.175 571.618 216.419C569.122 222.112 567.111 226.403 565.585 229.291 561.429 238.454 559.042 243.617 558.426 244.782L557.166 246.093 552.675 244.425 553.157 242.008C554.83 238.194 557.261 233.208 560.451 227.05L566.374 215.532ZM856.18 210.585 903.429 210.585 891.174 221.13 929.34 300.125 929.34 291.993 893.525 221.353 907.623 211.964 910.85 215.627 900.15 223.177 929.34 285.132 929.34 246.645 929.34 242.078C929.34 232.386 928.59 226.003 927.091 222.928 925.591 219.853 921.48 215.739 914.756 210.585L957.479 210.585C950.568 216.03 946.24 220.048 944.495 222.64 941.833 226.686 940.502 232.935 940.502 241.388L940.502 246.99 940.502 324.667 923.024 324.667 885.219 245.731 885.219 289.55 885.105 294.547 886.131 306.83C887.176 312.042 889.592 315.926 893.381 318.484L893.936 320.02 895.077 320.436 903.429 331.699 853.822 331.699 851.698 325.898 894.906 325.898 891.404 324.667 850.235 324.667C857.585 320.023 862.324 315.734 864.451 311.799 866.578 307.865 867.641 300.883 867.641 290.853L867.641 222.779ZM758.601 210.585 801.93 210.585 792.968 222.909 806.227 258.332 806.944 257.39 794.19 223.884 804.58 211.964 809.169 214.026 800.466 225.119 811.208 254.235 813.238 252.513C815.125 251.004 817.036 249.783 818.973 248.852 820.989 256.198 823.581 263.23 826.748 269.947 823.743 269.806 821.922 269.736 821.284 269.736 816.227 269.736 812.85 270.243 811.152 271.257L826.479 311.889 827.312 312.695 812.546 272.194C815.539 271.258 818.366 270.79 821.026 270.79 822.599 270.79 824.101 270.858 825.531 270.994L828.36 271.417 824.053 261.891C822.786 258.397 821.823 254.884 821.163 251.352L827.219 253.677C828.568 259.193 831.8 267.23 836.917 277.79 834.258 277.619 832.869 277.533 832.752 277.533L825.772 276.932C824.191 276.789 822.84 276.682 821.718 276.611L819.192 276.509 833.253 311.978 852.773 331.699 800.09 331.699 797.637 325.898 843.396 325.898 834.025 319.197 839.675 324.667 792.553 324.667 804.446 312.382 795.979 289.508C791.091 295.428 786.758 301.49 782.98 307.692L778.334 306.53C780.15 302.976 782.375 299.419 785.007 295.859L794.112 285.189 793.633 283.649C788.184 288.94 782.767 295.547 777.381 303.469L774.273 300.146C772.023 296.553 769.372 292.678 766.319 288.521L763.524 284.792 761.601 290.033C759.594 296.138 758.59 301.403 758.59 305.83 758.59 309.204 759.169 312.053 760.325 314.377 761.482 316.701 764.378 320.723 769.012 326.444 769.427 326.971 770.202 328.722 771.339 331.699L722.048 331.699 719.478 325.898 761.395 325.898 760.41 324.667 714.997 324.667C723.556 318.363 730.168 311.719 734.834 304.734 738.916 298.623 743.045 289.352 747.22 276.923L748.892 271.771 746.97 270.619C744.437 269.435 740.759 268.568 735.936 268.018 739.208 261.797 741.969 255.811 744.222 250.059 746.404 251.145 747.722 251.91 748.177 252.354L752.209 256.635C753.168 257.199 753.867 257.965 754.306 258.935L754.895 257.434 754.052 257.044C751.353 254.67 749.096 252.762 747.283 251.321L745.848 249.683 748.562 245.663C752.619 247.914 755.44 250.241 757.026 252.644L767.735 222.578ZM622.601 210.585 665.93 210.585 656.968 222.909 670.227 258.332 670.944 257.39 658.19 223.884 668.58 211.964 673.169 214.026 664.466 225.119 675.208 254.235 677.238 252.513C679.125 251.004 681.036 249.783 682.973 248.852 684.989 256.198 687.581 263.23 690.748 269.947 687.743 269.806 685.922 269.736 685.284 269.736 680.227 269.736 676.85 270.243 675.152 271.257L690.479 311.889 691.312 312.695 676.546 272.194C679.539 271.258 682.366 270.79 685.026 270.79 686.599 270.79 688.101 270.858 689.531 270.994L692.36 271.417 688.053 261.891C686.786 258.397 685.823 254.884 685.163 251.352L691.219 253.677C692.568 259.193 695.8 267.23 700.917 277.79 698.258 277.619 696.869 277.533 696.752 277.533L689.772 276.932C688.191 276.789 686.84 276.682 685.718 276.611L683.192 276.509 697.253 311.978 716.773 331.699 664.09 331.699 661.637 325.898 707.396 325.898 698.025 319.197 703.675 324.667 656.553 324.667 668.446 312.382 659.979 289.508C655.091 295.428 650.758 301.49 646.98 307.692L642.334 306.53C644.151 302.976 646.375 299.419 649.007 295.859L658.112 285.189 657.633 283.649C652.184 288.94 646.767 295.547 641.381 303.469L638.273 300.146C636.023 296.553 633.372 292.678 630.319 288.521L627.524 284.792 625.601 290.033C623.594 296.138 622.59 301.403 622.59 305.83 622.59 309.204 623.169 312.053 624.325 314.377 625.482 316.701 628.378 320.723 633.012 326.444 633.427 326.971 634.202 328.722 635.339 331.699L586.048 331.699 583.478 325.898 625.395 325.898 624.41 324.667 578.997 324.667C587.556 318.363 594.168 311.719 598.834 304.734 602.916 298.623 607.045 289.352 611.22 276.923L612.892 271.771 610.97 270.619C608.437 269.435 604.759 268.568 599.936 268.018 603.208 261.797 605.969 255.811 608.222 250.059 610.404 251.145 611.723 251.91 612.177 252.354L616.209 256.635C617.168 257.199 617.867 257.965 618.306 258.935L618.895 257.434 618.052 257.044C615.353 254.67 613.096 252.762 611.283 251.321L609.848 249.683 612.562 245.663C616.619 247.914 619.44 250.241 621.026 252.644L631.735 222.578ZM372.004 210.585 467.53 210.585 465.891 214.895C460.081 222.013 454.956 230.535 450.517 240.46 448.749 238.45 447.72 237.134 447.433 236.51L447.336 236.309 445.606 235.705C444.755 235.369 444.212 235.103 443.978 234.906 439.775 231.558 436.735 229.568 434.856 228.936 432.977 228.304 429.109 227.988 423.253 227.988 421.476 227.988 418.238 228.115 413.537 228.37L413.491 228.372 413.491 257.695 426.567 257.695 440.385 242.466 440.385 283.031 431.678 273.99 432.222 274.921 413.491 274.921 413.491 313.505C423.79 313.505 431.248 312.725 435.863 311.164 440.478 309.603 444.585 306.271 448.183 301.169L451.216 294.206C451.31 294.02 452.411 293.091 454.519 291.42 456.682 298.504 458.828 303.877 460.96 307.539 463.091 311.202 466.833 316.501 472.184 323.437L372.004 323.437 385.102 310.793 385.102 274.921C381.872 275.462 377.916 276.957 373.234 279.408L370.798 275.402C375.005 272.071 379.773 270.079 385.102 269.425L385.102 268.497C385.153 268.503 385.05 268.505 384.792 268.505 379.409 268.505 373.481 270.644 367.006 274.921 369.934 263.437 375.966 257.695 385.102 257.695L385.102 223.534ZM249.261 210.585 293.233 210.585 281.207 224.438 281.207 274.015 282.35 269.663 282.35 223.678 294.111 213.256 296.939 217.143 288.063 226.233 288.063 265.915 311.585 234.659C315.181 230.369 316.979 226.608 316.979 223.375 316.979 221.723 316.038 220.046 314.158 218.342 312.277 216.639 309.472 215.409 305.744 214.652L305.744 210.585 354.762 210.585 354.762 214.593C344.28 217.139 333.565 224.961 322.619 238.058L310.641 251.975 342.017 312.349 342.666 312.886 312.47 251.564 328.939 232.565C337.633 222.858 347.073 217.543 357.259 216.62L358.989 221.759C349.844 222.422 341.207 227.262 333.077 236.278L318.487 252.103 348.514 312.366 373.294 331.699 315.898 331.699 312.47 325.898 362.366 325.898 351.32 320.041 356.916 324.667 308.588 324.667 319.877 313.946 299.912 273.481 288.063 289.47 288.063 312.931 302.109 331.699 255.284 331.699 251.933 325.898 293.335 325.898 289.142 321.788 291.683 324.667 248.571 324.667 260.377 312.026 260.377 223.411ZM522.224 208.652C529.046 208.652 537.038 209.89 546.2 212.367 550.191 213.464 553.138 214.013 555.041 214.013 557.533 214.013 560.571 213.043 564.156 211.103L567.051 212.614C563.922 217.654 561.49 222.303 559.754 226.561 556.229 235.231 553.856 240.603 552.635 242.678L550.034 244.007C549.092 242.595 548.536 241.548 548.367 240.866 547.979 239.656 547.61 238.54 547.26 237.516L546.407 235.125 545.06 235.796C538.435 229.067 531.758 225.703 525.028 225.703 521.152 225.703 517.961 226.806 515.453 229.012 512.946 231.219 511.692 234.015 511.692 237.4 511.692 241.109 514.359 245.017 519.693 249.125L521.12 250.405 520.274 252.027 524.502 253.229 539.052 256.764C549.883 259.377 558.006 263.563 563.422 269.32L563.447 269.353 563.447 266.511C573.651 273.065 578.752 281.752 578.752 292.574 578.752 304.048 574.315 313.76 565.439 321.709 556.563 329.658 545.797 333.632 533.139 333.632 526.714 333.632 520.968 332.987 515.898 331.697L502.113 328.315C498.968 327.524 495.668 327.128 492.213 327.128 489.229 327.128 485.903 327.79 482.235 329.114L480.602 324.603 476.788 331.699 380.581 331.699 378.458 325.898 473.514 325.898 475.749 322.612C467.651 315.416 461.82 306.542 458.254 295.992L464.164 297.449C465.798 301.253 467.988 305.107 470.735 309.01L478.27 318.028 486.565 303.317C489.155 297.924 491.238 292.633 492.813 287.442L497.242 288.282C498.492 297.597 501.953 304.598 507.626 309.286L509.401 310.608 507.307 308.643C503.475 304.416 500.961 298.91 499.765 292.125L505.287 291.317C507.526 302.021 513.35 309.563 522.758 313.943L522.758 315.75 523.473 315.878C525.577 316.171 527.795 316.318 530.127 316.318 537.418 316.318 543.141 314.688 547.296 311.429 551.451 308.17 553.528 303.81 553.528 298.351 553.528 296.767 553.406 295.256 553.161 293.819L553.104 293.607 551.034 294.575C547.988 291.397 545.036 289.155 542.179 287.849 539.322 286.543 533.675 284.9 525.239 282.919 512.697 280.017 504.144 277.442 499.583 275.193 495.021 272.944 492.267 269.016 491.319 263.41L495.689 264.959 492.998 262.755C487.824 257.518 485.237 250.263 485.237 240.987 485.237 231.385 488.681 223.596 495.569 217.618 502.457 211.641 511.342 208.652 522.224 208.652Z" stroke="#385723" stroke-linejoin="round" stroke-miterlimit="10" fill="#A9D18E" fill-rule="evenodd"/><text fill="#000000" fill-opacity="0" font-family="Arial,Arial_MSFontService,sans-serif" font-size="124.98" x="248.571" y="318.01">KESAAN</text><text font-family="Times New Roman,Times New Roman_MSFontService,sans-serif" font-weight="700" font-size="27" transform="translate(256.496 360)">K<tspan font-weight="400" font-size="20" x="20.6667" y="0">esaan</tspan><tspan font-size="27" x="70" y="0">E</tspan><tspan font-weight="400" font-size="20" x="87.8333" y="0">mpowerment through </tspan>S<tspan font-weight="400" font-size="20" x="280.167" y="0">atellite</tspan><tspan font-weight="400" font-size="20" x="334.167" y="0">-</tspan><tspan font-weight="400" font-size="20" x="340.833" y="0">based </tspan>A<tspan font-weight="400" font-size="20" x="410.667" y="0">gricultural </tspan>A<tspan font-weight="400" font-size="20" x="518" y="0">dvisory and </tspan><tspan font-size="27" x="616.833" y="0">N</tspan><tspan font-weight="400" font-size="20" x="636.167" y="0">owcast</tspan></text></g></svg>