<svg width="734" height="225" xmlns="http://www.w3.org/2000/svg" xmlns:xlink="http://www.w3.org/1999/xlink" overflow="hidden"><defs><clipPath id="clip0"><rect x="245" y="162" width="734" height="225"/></clipPath></defs><g clip-path="url(#clip0)" transform="translate(-245 -162)"><path d="M771.871 288.304C771.81 289.458 771.227 291.755 770.123 295.195L767.294 303.985C765.828 308.46 765.095 312.184 765.095 315.156 765.095 318.142 765.581 320.584 766.552 322.481L766.756 322.82 766.534 321.941C766.219 320.325 766.062 318.581 766.062 316.709 766.062 310.587 768.46 301.988 773.255 290.913ZM635.871 288.304C635.81 289.458 635.227 291.755 634.123 295.195L631.294 303.985C629.828 308.46 629.095 312.184 629.095 315.156 629.095 318.142 629.581 320.584 630.552 322.481L630.756 322.821 630.534 321.941C630.219 320.325 630.062 318.581 630.062 316.709 630.062 310.587 632.46 301.988 637.255 290.913ZM580.181 284.217 580.424 284.533C583.47 289.441 584.994 295.232 584.994 301.909 584.994 311.83 581.258 320.163 573.788 326.908 566.318 333.653 557.113 337.025 546.173 337.025 539.405 337.025 531.932 336.016 523.756 333.997L512.896 331.319C509.431 330.494 506.476 330.082 504.028 330.082 501.654 330.082 498.903 330.709 495.777 331.964L495.102 332.267 495.472 332.559 494.564 334.247 496.702 333.301C499.529 332.21 502.201 331.664 504.718 331.664 508.279 331.664 512.711 332.287 518.013 333.534L530.219 336.49C535.345 337.726 540.779 338.344 546.522 338.344 557.552 338.344 566.926 334.839 574.645 327.83 582.364 320.82 586.224 312.376 586.224 302.498 586.224 296.256 584.475 290.495 580.977 285.215ZM419.205 279.281 419.205 324.105 421.138 324.105 421.138 279.808 440.521 279.808 440.013 279.281ZM310.324 277.876 294.656 297.923 294.656 323.395 295.798 324.69 295.798 297.723 310.834 279.699ZM512.141 277.685 512.812 278.462C515.449 280.665 520.018 282.558 526.52 284.142L540.393 287.588C549.974 289.983 556.463 292.1 559.86 293.937 560.71 294.397 561.502 294.948 562.237 295.591L564.186 297.702 563.674 296.685C562.941 295.543 562.085 294.476 561.107 293.482 554.828 290.195 544.793 287.199 531.001 284.497 525.403 283.401 520.558 281.924 516.465 280.067ZM454.009 254.798 459.81 256.623 459.81 297.509 454.009 295.747ZM792.259 252.367 784.615 275.248C784.95 275.449 785.147 275.609 785.206 275.728L787.636 278.842C789.547 280.733 791.58 283.164 793.735 286.137L795.85 289.173 798.243 285.774C799.389 284.448 800.74 283.132 802.296 281.827ZM656.259 252.367 648.615 275.248C648.95 275.449 649.147 275.609 649.206 275.728L651.636 278.842C653.547 280.733 655.58 283.164 657.735 286.137L659.85 289.173 662.243 285.774C663.389 284.448 664.74 283.132 666.296 281.827ZM891.636 243.059 891.636 290.94C891.636 306.494 892.593 316.523 894.508 321.026 894.986 322.151 895.637 323.204 896.461 324.184L897.558 325.184 896.558 323.754C893.98 319.224 892.691 313.17 892.691 305.591L892.779 297.49 892.779 250.809ZM788.353 242.37 776.514 276.412C780.604 280.442 784.242 284.659 787.428 289.062L790.904 293.899 791.329 293.383C791.521 293.127 791.759 293.008 792.042 293.026 788.284 287.689 783.601 282.303 777.995 276.868L789.025 247.272ZM652.353 242.37 640.514 276.412C644.604 280.442 648.242 284.659 651.428 289.062L654.904 293.899 655.329 293.383C655.521 293.127 655.759 293.008 656.042 293.026 652.284 287.689 647.601 282.303 641.994 276.868L653.025 247.272ZM432.866 231.732C428.616 231.732 424.062 231.848 419.205 232.078L419.205 268.295 421.138 268.295 421.138 233.397C426.761 232.873 431.508 232.611 435.379 232.611 442.925 232.611 448.567 233.454 452.306 235.141L452.69 235.348 452.638 235.304C452.228 235 451.816 234.732 451.401 234.501 448.083 232.655 441.905 231.732 432.866 231.732ZM537.159 229.535C531.505 229.535 526.828 231.087 523.13 234.192 519.431 237.297 517.581 241.164 517.581 245.793 517.581 249.073 518.536 251.968 520.446 254.479L522.297 256.459 520.029 252.574C519.452 250.985 519.163 249.288 519.163 247.484 519.163 242.459 520.952 238.382 524.528 235.253 528.104 232.123 532.703 230.558 538.326 230.558 540.949 230.558 543.421 230.844 545.741 231.415L548.163 232.185 548.01 232.099C544.648 230.389 541.031 229.535 537.159 229.535ZM973.909 227.564 971.681 233.457C967.284 234.486 964.401 236.207 963.034 238.62 961.666 241.033 960.982 245.403 960.982 251.73L960.982 342.299 939.528 342.299 937.772 336.498 955.093 336.498 955.093 252.591C955.093 244.128 956.254 238.126 958.576 234.587 960.898 231.047 966.009 228.706 973.909 227.564ZM482.256 225.404 485.131 229.06 484.308 230.61C477.324 239.996 472.311 248.192 469.266 255.199L465.413 251.926C469.421 242.211 475.036 233.37 482.256 225.404ZM581.11 224.603 585.842 226.775 585.066 227.019C582.57 232.712 580.559 237.002 579.033 239.891 574.877 249.054 572.491 254.217 571.875 255.382L570.614 256.693 566.123 255.025 566.605 252.608C568.278 248.794 570.709 243.808 573.899 237.65L579.822 226.132ZM869.628 221.185 916.877 221.185 904.622 231.729 942.788 310.725 942.788 302.593 906.973 231.953 921.071 222.564 924.298 226.227 913.598 233.777 942.788 295.732 942.788 257.245 942.788 252.678C942.788 242.986 942.039 236.603 940.539 233.528 939.039 230.453 934.928 226.339 928.204 221.185L970.927 221.185C964.016 226.63 959.688 230.648 957.943 233.24 955.281 237.286 953.951 243.535 953.951 251.988L953.951 257.59 953.951 335.267 936.473 335.267 898.667 256.331 898.667 300.15 898.553 305.147 899.579 317.43C900.624 322.642 903.04 326.526 906.829 329.083L907.384 330.62 908.525 331.036 916.877 342.299 867.27 342.299 865.147 336.498 908.355 336.498 904.853 335.267 863.683 335.267C871.034 330.623 875.772 326.333 877.899 322.399 880.026 318.464 881.089 311.482 881.089 301.453L881.089 233.379ZM772.049 221.185 815.378 221.185 806.416 233.509 819.675 268.932 820.392 267.99 807.638 234.484 818.029 222.564 822.617 224.625 813.914 235.719 824.656 264.835 826.686 263.113C828.573 261.604 830.484 260.383 832.421 259.452 834.438 266.798 837.03 273.83 840.196 280.547 837.192 280.406 835.37 280.336 834.732 280.336 829.676 280.336 826.298 280.843 824.6 281.857L839.927 322.489 840.76 323.295 825.994 282.794C828.988 281.858 831.814 281.39 834.474 281.39 836.047 281.39 837.549 281.458 838.979 281.594L841.808 282.017 837.502 272.491C836.234 268.997 835.271 265.484 834.611 261.951L840.667 264.276C842.016 269.793 845.249 277.83 850.365 288.39 847.706 288.219 846.318 288.133 846.2 288.133L839.22 287.532C837.639 287.389 836.288 287.282 835.167 287.21L832.64 287.109 846.702 322.578 866.222 342.299 813.538 342.299 811.085 336.498 856.845 336.498 847.474 329.797 853.123 335.267 806.001 335.267 817.894 322.982 809.428 300.108C804.54 306.028 800.207 312.089 796.428 318.292L791.782 317.13C793.599 313.576 795.823 310.019 798.455 306.459L807.561 295.789 807.081 294.249C801.632 299.54 796.215 306.147 790.829 314.069L787.721 310.746C785.471 307.153 782.82 303.278 779.767 299.121L776.972 295.392 775.05 300.633C773.042 306.737 772.038 312.003 772.038 316.43 772.038 319.804 772.617 322.653 773.774 324.977 774.93 327.301 777.826 331.323 782.46 337.044 782.875 337.571 783.651 339.322 784.787 342.299L735.497 342.299 732.926 336.498 774.843 336.498 773.859 335.267 728.445 335.267C737.004 328.963 743.616 322.319 748.282 315.334 752.364 309.223 756.493 299.952 760.668 287.523L762.34 282.371 760.418 281.219C757.885 280.035 754.207 279.168 749.385 278.618 752.656 272.397 755.418 266.411 757.67 260.659 759.852 261.745 761.171 262.51 761.625 262.954L765.657 267.235C766.616 267.798 767.315 268.565 767.754 269.535L768.343 268.034 767.5 267.644C764.801 265.27 762.544 263.362 760.731 261.921L759.296 260.283 762.011 256.263C766.067 258.514 768.889 260.84 770.474 263.244L781.183 233.178ZM636.049 221.185 679.378 221.185 670.416 233.509 683.675 268.932 684.392 267.99 671.638 234.484 682.029 222.564 686.617 224.625 677.914 235.719 688.656 264.835 690.686 263.113C692.573 261.604 694.484 260.383 696.421 259.452 698.438 266.798 701.029 273.83 704.196 280.547 701.192 280.406 699.37 280.336 698.732 280.336 693.676 280.336 690.298 280.843 688.6 281.857L703.927 322.489 704.76 323.295 689.994 282.794C692.987 281.858 695.814 281.39 698.474 281.39 700.047 281.39 701.549 281.458 702.98 281.594L705.808 282.017 701.502 272.491C700.234 268.997 699.271 265.484 698.611 261.951L704.667 264.276C706.016 269.793 709.249 277.83 714.365 288.39 711.706 288.219 710.318 288.133 710.2 288.133L703.22 287.532C701.639 287.389 700.288 287.282 699.167 287.21L696.64 287.109 710.702 322.578 730.222 342.299 677.538 342.299 675.085 336.498 720.845 336.498 711.474 329.797 717.123 335.267 670.001 335.267 681.894 322.982 673.428 300.108C668.54 306.028 664.207 312.089 660.428 318.292L655.782 317.13C657.599 313.576 659.823 310.019 662.455 306.459L671.561 295.789 671.081 294.249C665.632 299.54 660.215 306.147 654.829 314.069L651.721 310.746C649.471 307.153 646.82 303.278 643.767 299.121L640.972 295.392 639.05 300.633C637.042 306.737 636.038 312.003 636.038 316.43 636.038 319.804 636.617 322.653 637.774 324.977 638.93 327.301 641.826 331.323 646.46 337.044 646.875 337.571 647.651 339.322 648.787 342.299L599.497 342.299 596.926 336.498 638.843 336.498 637.859 335.267 592.445 335.267C601.004 328.963 607.616 322.319 612.282 315.334 616.364 309.223 620.493 299.952 624.668 287.523L626.34 282.371 624.418 281.219C621.885 280.035 618.207 279.168 613.385 278.618 616.656 272.397 619.418 266.411 621.67 260.659 623.852 261.745 625.171 262.51 625.625 262.954L629.657 267.235C630.616 267.798 631.315 268.565 631.754 269.535L632.343 268.034 631.5 267.644C628.801 265.27 626.544 263.362 624.731 261.921L623.296 260.283 626.011 256.263C630.067 258.514 632.889 260.84 634.474 263.244L645.183 233.178ZM385.452 221.185 480.978 221.185 479.34 225.495C473.529 232.613 468.404 241.135 463.966 251.06 462.197 249.05 461.169 247.734 460.881 247.11L460.784 246.908 459.055 246.305C458.203 245.969 457.66 245.703 457.426 245.506 453.224 242.158 450.183 240.168 448.304 239.536 446.425 238.904 442.557 238.588 436.702 238.588 434.925 238.588 431.686 238.715 426.986 238.969L426.939 238.972 426.939 268.295 440.015 268.295 453.833 253.066 453.833 293.631 445.126 284.59 445.671 285.521 426.939 285.521 426.939 324.105C437.239 324.105 444.696 323.325 449.311 321.764 453.926 320.203 458.033 316.871 461.631 311.769L464.665 304.806C464.758 304.62 465.859 303.691 467.967 302.02 470.13 309.103 472.277 314.476 474.408 318.139 476.539 321.802 480.281 327.101 485.632 334.037L385.452 334.037 398.55 321.393 398.55 285.521C395.32 286.061 391.364 287.557 386.682 290.008L384.246 286.002C388.453 282.671 393.221 280.679 398.55 280.025L398.55 279.097C398.602 279.103 398.498 279.105 398.24 279.105 392.857 279.105 386.929 281.244 380.454 285.521 383.382 274.037 389.414 268.295 398.55 268.295L398.55 234.134ZM262.709 221.185 306.682 221.185 294.656 235.038 294.656 284.615 295.798 280.263 295.798 234.278 307.559 223.856 310.387 227.743 301.511 236.833 301.511 276.515 325.033 245.259C328.629 240.969 330.427 237.208 330.427 233.975 330.427 232.323 329.487 230.646 327.606 228.942 325.725 227.239 322.92 226.009 319.192 225.252L319.192 221.185 368.211 221.185 368.211 225.193C357.728 227.739 347.013 235.56 336.067 248.658L324.089 262.575 355.465 322.949 356.114 323.485 325.919 262.164 342.387 243.165C351.081 233.458 360.521 228.142 370.707 227.22L372.438 232.358C363.292 233.022 354.655 237.862 346.525 246.878L331.935 262.703 361.962 322.965 386.742 342.299 329.346 342.299 325.919 336.498 375.814 336.498 364.768 330.641 370.364 335.267 322.036 335.267 333.325 324.546 313.36 284.081 301.511 300.07 301.511 323.531 315.557 342.299 268.732 342.299 265.381 336.498 306.783 336.498 302.59 332.388 305.131 335.267 262.019 335.267 273.826 322.626 273.826 234.01ZM535.672 219.252C542.494 219.252 550.486 220.49 559.648 222.966 563.639 224.064 566.586 224.613 568.489 224.613 570.981 224.613 574.02 223.643 577.604 221.703L580.499 223.214C577.37 228.254 574.938 232.903 573.203 237.161 569.677 245.831 567.304 251.203 566.083 253.278L563.482 254.607C562.54 253.194 561.984 252.148 561.815 251.466 561.427 250.256 561.058 249.14 560.708 248.116L559.856 245.725 558.508 246.396C551.884 239.667 545.206 236.303 538.476 236.303 534.601 236.303 531.409 237.406 528.901 239.612 526.394 241.819 525.14 244.615 525.14 248 525.14 251.709 527.807 255.617 533.141 259.725L534.568 261.005 533.723 262.627 537.95 263.829 552.5 267.364C563.331 269.977 571.455 274.162 576.87 279.92L576.895 279.952 576.895 277.111C587.099 283.665 592.201 292.352 592.201 303.174 592.201 314.648 587.763 324.36 578.887 332.309 570.012 340.258 559.245 344.232 546.587 344.232 540.162 344.232 534.416 343.587 529.346 342.297L515.561 338.915C512.417 338.124 509.116 337.728 505.661 337.728 502.678 337.728 499.351 338.39 495.683 339.714L494.051 335.203 490.237 342.299 394.029 342.299 391.906 336.498 486.963 336.498 489.197 333.212C481.099 326.016 475.268 317.142 471.703 306.592L477.612 308.049C479.246 311.853 481.437 315.707 484.183 319.61L491.718 328.628 500.013 313.917C502.603 308.524 504.686 303.233 506.261 298.042L510.69 298.882C511.94 308.197 515.401 315.198 521.074 319.886L522.849 321.208 520.755 319.242C516.923 315.015 514.409 309.509 513.213 302.724L518.735 301.917C520.974 312.62 526.798 320.163 536.206 324.543L536.206 326.35 536.922 326.478C539.025 326.771 541.243 326.918 543.575 326.918 550.866 326.918 556.589 325.288 560.744 322.029 564.899 318.77 566.976 314.41 566.976 308.951 566.976 307.366 566.854 305.856 566.609 304.419L566.552 304.207 564.482 305.174C561.436 301.997 558.484 299.755 555.627 298.449 552.77 297.143 547.123 295.5 538.688 293.519 526.145 290.617 517.593 288.041 513.031 285.792 508.469 283.543 505.715 279.616 504.767 274.01L509.137 275.559 506.446 273.355C501.272 268.118 498.685 260.862 498.685 251.587 498.685 241.985 502.129 234.195 509.017 228.218 515.905 222.24 524.79 219.252 535.672 219.252Z" fill="#E2F0D9" fill-rule="evenodd"/><path d="M504.083 330.614 500.365 331.101 495.968 332.464 495.879 332.505 495.944 332.854 495.717 333.263 496.56 332.902 500.737 331.633C500.766 331.624 500.796 331.618 500.826 331.614L504.701 331.177C504.734 331.173 504.766 331.173 504.799 331.175L510.799 331.675 516.262 332.701 512.824 331.846 508.037 330.914ZM765.927 312.584 765.635 315.179 765.67 315.557ZM629.927 312.584 629.635 315.179 629.67 315.557ZM767.212 306.364 766.188 310.266 766.058 311.416ZM631.212 306.364 630.188 310.266 630.058 311.416ZM295.32 297.937 295.195 298.096 295.195 323.239 295.32 323.384ZM585.04 296.209 585.187 297.022 585.506 301.891C585.508 301.918 585.508 301.945 585.505 301.972L584.817 309.097C584.814 309.133 584.807 309.168 584.795 309.203L582.67 315.765C582.659 315.8 582.644 315.833 582.625 315.865L579.125 321.803C579.108 321.832 579.088 321.859 579.065 321.885L574.19 327.26C574.169 327.283 574.145 327.305 574.119 327.324L568.182 331.762C568.156 331.781 568.129 331.797 568.101 331.811L561.538 334.998C561.508 335.013 561.477 335.024 561.445 335.033L554.195 336.908C554.167 336.915 554.138 336.92 554.109 336.922L546.234 337.547C546.209 337.549 546.185 337.549 546.16 337.547L535.472 336.797 526.008 334.988 530.377 336.063 538.28 337.431 546.596 337.862 554.421 337.241 561.706 335.266 568.307 332.058 574.357 327.489 579.354 322.06 582.924 316.091 585.015 309.57 585.755 302.539 585.448 297.997ZM560.296 293.663 561.033 294.167 560.817 293.893ZM555.37 291.506 555.633 291.603 555.555 291.568ZM636.147 289.913 635.867 291.045 635.366 292.986 634.609 295.387 631.796 304.139 631.539 305.117 633.657 298.582 636.706 290.955ZM772.147 289.913 771.867 291.045 771.366 292.986 770.609 295.387 767.796 304.139 767.539 305.117 769.657 298.582 772.706 290.954ZM771.789 287.87C772.003 287.829 772.22 287.932 772.323 288.125L773.698 290.687C773.768 290.817 773.776 290.972 773.721 291.109L770.608 298.89 768.37 305.785 767.005 311.717 766.572 316.734 767.059 321.881 767.246 322.756C767.299 323.003 767.16 323.25 766.923 323.333 766.685 323.416 766.423 323.31 766.31 323.085L766.123 322.71C766.112 322.688 766.102 322.665 766.094 322.641L765.032 319.391C765.02 319.356 765.013 319.319 765.009 319.282L764.634 315.22C764.631 315.186 764.632 315.152 764.635 315.118L765.198 310.118C765.201 310.094 765.205 310.07 765.211 310.047L766.844 303.833 769.655 295.086 770.398 292.736 770.897 290.802 771.261 289.365 771.386 288.303C771.411 288.086 771.574 287.911 771.789 287.87ZM635.789 287.87C636.003 287.829 636.22 287.932 636.323 288.125L637.698 290.687C637.768 290.817 637.776 290.972 637.721 291.109L634.608 298.89 632.37 305.785 631.005 311.717 630.572 316.734 631.059 321.881 631.246 322.756C631.299 323.003 631.16 323.25 630.923 323.333 630.685 323.416 630.423 323.31 630.31 323.085L630.123 322.71C630.112 322.688 630.102 322.665 630.094 322.641L629.032 319.391C629.02 319.356 629.013 319.319 629.009 319.282L628.634 315.22C628.631 315.186 628.632 315.152 628.635 315.118L629.198 310.118C629.201 310.094 629.205 310.07 629.211 310.047L630.844 303.833 633.655 295.086 634.398 292.736 634.897 290.802 635.261 289.365 635.386 288.303C635.411 288.086 635.574 287.911 635.789 287.87ZM540.018 286.99 540.565 287.126 547.197 288.878 550.36 289.823 548.723 289.273 540.504 287.094ZM783.962 283.888 787.837 288.802 790.981 293.123 791.006 293.094C791.045 293.05 791.091 293.013 791.143 292.985L791.31 292.893 785.365 285.358ZM647.962 283.888 651.837 288.802 654.981 293.123 655.006 293.094C655.045 293.05 655.091 293.013 655.143 292.985L655.31 292.893 649.365 285.358ZM579.881 283.847C580.095 283.674 580.409 283.707 580.583 283.921L581.395 284.921C581.413 284.942 581.428 284.965 581.442 284.989L583.754 289.051C583.767 289.073 583.778 289.096 583.787 289.12L585.432 293.437 586.432 297.812C586.438 297.838 586.442 297.864 586.444 297.89L586.756 302.515C586.758 302.544 586.758 302.572 586.755 302.601L586.005 309.726C586.001 309.76 585.994 309.794 585.983 309.826L583.858 316.451C583.847 316.488 583.831 316.522 583.811 316.555L580.186 322.618C580.169 322.647 580.148 322.675 580.125 322.7L575.063 328.2C575.042 328.222 575.02 328.242 574.996 328.26L568.871 332.885C568.845 332.905 568.817 332.922 568.788 332.936L562.101 336.186C562.073 336.199 562.043 336.21 562.013 336.219L554.638 338.219C554.608 338.227 554.577 338.232 554.547 338.235L546.544 338.86 538.109 338.416 530.138 337.034 517.977 334.04 510.716 332.672 504.765 332.176 500.983 332.603 496.954 333.821 494.767 334.758C494.57 334.842 494.342 334.792 494.199 334.634 494.055 334.475 494.029 334.243 494.133 334.056L494.869 332.73 494.812 332.683C494.68 332.573 494.614 332.402 494.637 332.232 494.66 332.061 494.769 331.915 494.925 331.843L495.672 331.509 500.109 330.134C500.136 330.125 500.164 330.119 500.192 330.115L504.005 329.615C504.039 329.611 504.074 329.61 504.108 329.613L508.228 329.933 513.065 330.876 523.851 333.558 535.542 335.8 546.193 336.547 553.987 335.929 561.146 334.077 567.621 330.932 573.482 326.552 578.29 321.251 581.736 315.405 583.827 308.946 584.506 301.916 584.203 297.2 583.397 292.737 581.984 288.621 580.023 284.822 579.804 284.548C579.632 284.333 579.667 284.02 579.881 283.847ZM704.627 280.632 704.607 280.832C704.51 280.972 704.349 281.054 704.179 281.048L702.179 280.986 700.551 280.923 699.417 280.86 698.757 280.861 695.275 280.986 692.489 281.234 690.343 281.715 689.273 282.143 689.545 282.867 689.566 282.563C689.633 282.437 689.751 282.346 689.889 282.313L694.264 281.25C694.291 281.244 694.317 281.24 694.344 281.238L698.469 280.925 703.028 281.112 704.982 281.413ZM840.627 280.632 840.607 280.832C840.51 280.972 840.349 281.054 840.179 281.048L838.179 280.986 836.551 280.923 835.417 280.86 834.757 280.861 831.275 280.986 828.489 281.234 826.343 281.715 825.273 282.143 825.545 282.867 825.566 282.563C825.633 282.437 825.751 282.346 825.889 282.313L830.264 281.25C830.291 281.244 830.317 281.24 830.344 281.238L834.469 280.925 839.028 281.112 840.982 281.413ZM419.757 279.799 419.757 323.611 420.695 323.611 420.695 279.861 420.757 279.799ZM310.164 279.012 300.107 291.833 310.331 279.616ZM419.257 278.799 440.07 278.799C440.213 278.799 440.349 278.86 440.443 278.966L440.943 279.529C441.074 279.676 441.107 279.886 441.026 280.066 440.945 280.246 440.767 280.361 440.57 280.361L421.695 280.361 421.695 324.111C421.695 324.387 421.471 324.611 421.195 324.611L419.257 324.611C418.981 324.611 418.757 324.387 418.757 324.111L418.757 279.299C418.757 279.022 418.981 278.799 419.257 278.799ZM310.481 277.433C310.666 277.47 310.814 277.609 310.864 277.791L311.364 279.603C311.408 279.761 311.371 279.931 311.266 280.057L296.32 297.918 296.32 324.736C296.32 324.945 296.189 325.132 295.993 325.205 295.797 325.278 295.576 325.22 295.44 325.061L294.315 323.749C294.237 323.658 294.195 323.543 294.195 323.424L294.195 297.924C294.195 297.812 294.232 297.703 294.301 297.615L309.989 277.615C310.105 277.467 310.296 277.396 310.481 277.433ZM512.436 277.298 516.717 279.656 523.315 282.126 531.112 284.06 540.76 286.128 549.042 288.325 555.959 290.654 561.334 293.029C561.409 293.062 561.474 293.112 561.525 293.177L564.087 296.427C564.108 296.453 564.127 296.482 564.142 296.513L564.642 297.513C564.754 297.736 564.683 298.007 564.478 298.148 564.272 298.29 563.993 298.257 563.825 298.073L561.927 295.991 559.635 294.423 556.585 293.018 552.364 291.465 546.942 289.845 540.324 288.096 526.436 284.655 521.9 283.394 518.037 281.998 514.92 280.466 512.545 278.904C512.504 278.877 512.467 278.844 512.436 278.806L511.811 278.056C511.657 277.871 511.656 277.603 511.809 277.418 511.962 277.232 512.225 277.182 512.436 277.298ZM766.768 267.689 767.601 268.623 767.73 268.313 767.31 268.133C767.261 268.112 767.216 268.084 767.177 268.049ZM630.768 267.689 631.601 268.623 631.73 268.313 631.31 268.133C631.262 268.112 631.216 268.084 631.177 268.049ZM681.889 262.729 683.855 267.986 683.876 267.959ZM817.889 262.728 819.855 267.986 819.876 267.959ZM454.57 255.488 454.57 295.428 459.32 296.874 459.32 257.036ZM792.263 253.987 785.224 275.103 785.544 275.327C785.585 275.355 785.621 275.389 785.651 275.429L788.089 278.554 791.003 281.776 794.154 285.869 795.881 288.307 797.848 285.511C797.866 285.485 797.887 285.461 797.909 285.44L801.744 281.723ZM656.263 253.987 649.224 275.103 649.544 275.327C649.585 275.355 649.621 275.389 649.651 275.429L652.089 278.554 655.003 281.776 658.154 285.869 659.881 288.307 661.848 285.511C661.866 285.485 661.887 285.461 661.909 285.44L665.744 281.723ZM792.255 251.924C792.47 251.923 792.661 252.059 792.73 252.262L802.793 281.699C802.855 281.883 802.807 282.085 802.668 282.22L798.639 286.125 796.291 289.461C796.198 289.594 796.046 289.673 795.883 289.674 795.721 289.674 795.568 289.595 795.474 289.463L793.361 286.478 790.261 282.446 787.301 279.169 784.909 276.103 784.345 275.708C784.164 275.581 784.088 275.35 784.158 275.141L791.783 252.266C791.851 252.062 792.041 251.924 792.255 251.924ZM656.255 251.924C656.47 251.923 656.661 252.059 656.73 252.262L666.793 281.699C666.855 281.883 666.807 282.085 666.668 282.22L662.639 286.125 660.291 289.461C660.198 289.594 660.045 289.673 659.883 289.674 659.721 289.674 659.568 289.595 659.474 289.463L657.361 286.478 654.261 282.446 651.3 279.169 648.909 276.103 648.345 275.708C648.164 275.581 648.088 275.35 648.158 275.141L655.783 252.266C655.851 252.062 656.041 251.924 656.255 251.924ZM892.195 250.036 892.195 290.986 892.257 296.543 892.305 298.488 892.32 297.541 892.32 250.897ZM652.176 244.541 641.141 276.304 641.543 276.737 652.557 247.243ZM788.176 244.541 777.141 276.304 777.543 276.737 788.557 247.243ZM891.659 242.612C891.92 242.594 892.152 242.78 892.19 243.039L893.315 250.789C893.318 250.813 893.32 250.837 893.32 250.861L893.32 297.556 893.194 305.588 893.439 310.91 894.176 315.727 895.353 319.939 897.006 323.55 897.98 324.951C898.126 325.161 898.09 325.447 897.896 325.615 897.702 325.782 897.413 325.776 897.227 325.6L896.165 324.6C896.134 324.571 896.106 324.538 896.084 324.502L894.084 321.314C894.064 321.283 894.048 321.25 894.036 321.216L893.332 319.221 892.763 316.685 892.324 313.736 891.884 310.213 891.57 306.194 891.382 301.623 891.257 296.554 891.195 290.986 891.195 243.111C891.195 242.849 891.397 242.631 891.659 242.612ZM788.431 241.926C788.661 241.948 788.845 242.125 788.877 242.354L789.565 247.229C789.577 247.311 789.567 247.395 789.538 247.474L778.585 276.805 786.15 284.739 792.462 292.739C792.553 292.855 792.589 293.004 792.56 293.149 792.53 293.293 792.438 293.417 792.309 293.488L791.7 293.82 791.321 294.253C791.221 294.367 791.074 294.43 790.922 294.423 790.77 294.416 790.63 294.341 790.54 294.218L787.052 289.421 781.953 282.951 776.203 276.764C776.078 276.628 776.037 276.434 776.097 276.26L787.91 242.26C787.986 242.041 788.201 241.904 788.431 241.926ZM652.431 241.926C652.661 241.948 652.845 242.125 652.877 242.354L653.565 247.229C653.576 247.311 653.567 247.395 653.538 247.474L642.585 276.805 650.15 284.739 656.462 292.739C656.553 292.855 656.589 293.004 656.56 293.149 656.53 293.293 656.438 293.417 656.309 293.488L655.7 293.82 655.321 294.253C655.221 294.367 655.074 294.43 654.922 294.423 654.77 294.416 654.63 294.341 654.54 294.218L651.052 289.421 645.953 282.951 640.203 276.764C640.078 276.628 640.037 276.434 640.097 276.26L651.91 242.26C651.986 242.041 652.201 241.904 652.431 241.926ZM343.477 241.382 340.554 244.397 336.443 249.006 324.732 262.68 341.954 295.821 325.496 262.394C325.407 262.214 325.435 261.998 325.567 261.846L342.067 242.846ZM295.32 235.092 295.195 235.235 295.195 280.721 295.32 280.235ZM431.493 232.262 426.267 232.361 419.757 232.594 419.757 267.799 420.695 267.799 420.695 233.424C420.695 233.162 420.897 232.944 421.159 232.925L428.909 232.362ZM432.897 231.236 439.18 231.426 444.423 231.935 448.548 232.81C448.579 232.816 448.608 232.825 448.637 232.837L451.637 234.087C451.665 234.099 451.692 234.113 451.717 234.129L452.967 234.942C453.19 235.086 453.26 235.379 453.129 235.61 452.997 235.84 452.708 235.927 452.471 235.808L452.153 235.645 449.03 234.538 445.21 233.734 440.677 233.298 435.402 233.111 428.981 233.36 421.695 233.889 421.695 268.299C421.695 268.575 421.471 268.799 421.195 268.799L419.257 268.799C418.981 268.799 418.757 268.575 418.757 268.299L418.757 232.111C418.757 231.842 418.97 231.621 419.239 231.611L426.248 231.361ZM537.186 230.051 533.21 230.357 529.603 231.212 526.376 232.613 523.453 234.622 521.09 236.985 519.462 239.639 518.437 242.593 518.136 245.785 518.802 250.267 519.12 250.876 518.96 250.232C518.954 250.208 518.949 250.183 518.947 250.159L518.697 247.534C518.694 247.503 518.694 247.473 518.697 247.442L519.009 243.88C519.012 243.842 519.02 243.804 519.032 243.768L520.094 240.518C520.106 240.484 520.12 240.451 520.139 240.421L521.826 237.546C521.844 237.514 521.866 237.486 521.89 237.459L524.203 234.959C524.226 234.934 524.251 234.912 524.278 234.892L527.153 232.83C527.181 232.81 527.211 232.793 527.242 232.779L530.492 231.341C530.521 231.329 530.55 231.319 530.579 231.312L534.267 230.437C534.292 230.431 534.318 230.427 534.343 230.425L537.991 230.14ZM537.156 229.05C537.188 229.048 537.219 229.048 537.25 229.052L542.875 229.677C542.915 229.681 542.955 229.691 542.993 229.705L548.243 231.642C548.311 231.667 548.372 231.706 548.423 231.758L548.548 231.883C548.712 232.047 548.742 232.302 548.62 232.499 548.498 232.696 548.257 232.784 548.037 232.71L545.634 231.91 542.17 231.298 538.421 231.11 534.46 231.419 530.855 232.275 527.694 233.673 524.902 235.675 522.661 238.098 521.028 240.88 520 244.025 519.697 247.484 519.939 250.026 520.538 252.421 522.752 256.235C522.88 256.455 522.822 256.736 522.618 256.887 522.414 257.039 522.129 257.014 521.955 256.828L520.08 254.828C520.049 254.795 520.023 254.758 520.002 254.718L517.877 250.655C517.851 250.606 517.833 250.552 517.825 250.497L517.138 245.872C517.132 245.832 517.131 245.792 517.134 245.752L517.447 242.439C517.451 242.399 517.459 242.36 517.472 242.322L518.535 239.26C518.547 239.226 518.562 239.193 518.581 239.162L520.269 236.412C520.289 236.379 520.313 236.348 520.341 236.32L522.779 233.883C522.8 233.861 522.824 233.841 522.849 233.824L525.849 231.762C525.875 231.743 525.904 231.728 525.933 231.715L529.246 230.277C529.273 230.266 529.301 230.256 529.329 230.25L533.017 229.375C533.042 229.369 533.068 229.365 533.094 229.363ZM973.155 228.275 968.638 229.158 964.408 230.629 961.202 232.565 959.048 234.898 957.54 237.913 956.502 241.868 955.819 246.752 955.632 252.611 955.632 336.549C955.632 336.825 955.408 337.049 955.132 337.049L938.495 337.049 939.94 341.799 960.507 341.799 960.507 251.722 960.635 247.31 961.02 243.622 961.708 240.685C961.714 240.659 961.722 240.633 961.732 240.608L962.607 238.483C962.625 238.441 962.647 238.402 962.675 238.367L963.988 236.679C964.014 236.645 964.044 236.615 964.078 236.589L965.953 235.152C965.98 235.131 966.008 235.114 966.038 235.099L968.476 233.912C968.501 233.899 968.528 233.889 968.555 233.881L971.317 233.076ZM578.743 227.291 576.753 230.736 575.108 234.332ZM973.849 227.12C974.027 227.086 974.211 227.15 974.328 227.289 974.444 227.429 974.477 227.62 974.412 227.79L972.162 233.665C972.106 233.811 971.985 233.922 971.835 233.966L968.875 234.829 966.521 235.976 964.737 237.344 963.506 238.927 962.672 240.952 961.994 243.85 961.63 247.413 961.507 251.75 961.507 342.299C961.507 342.575 961.283 342.799 961.007 342.799L939.57 342.799C939.35 342.799 939.156 342.655 939.091 342.444L937.341 336.694C937.295 336.543 937.324 336.378 937.418 336.251 937.512 336.124 937.661 336.049 937.82 336.049L954.632 336.049 954.632 252.611 954.82 246.72 955.512 241.73 956.586 237.61C956.595 237.576 956.607 237.544 956.623 237.513L958.185 234.388C958.206 234.345 958.233 234.307 958.265 234.272L960.515 231.834C960.547 231.8 960.583 231.77 960.624 231.746L963.936 229.746C963.966 229.728 963.998 229.713 964.031 229.701L968.343 228.201C968.365 228.194 968.388 228.187 968.411 228.183ZM482.243 226.219 477.543 231.833 473.067 238.296 469.211 245.072 466.06 251.849 469.147 254.438 471.511 249.487 474.9 243.589 479.037 237.197 483.88 230.373 484.537 229.161ZM581.278 225.229 580.304 226.447 574.391 237.9 572.143 242.332 570.208 246.266 568.522 249.761 567.11 252.77 566.708 254.73 570.498 256.152 571.469 255.133 572.24 253.59 573.68 250.461 574.676 248.343 575.802 245.841 577.116 242.964 578.625 239.695 579.867 237.274 581.241 234.338 582.862 230.848 584.612 226.848 584.674 226.793ZM482.266 224.924C482.417 224.926 482.559 224.997 482.652 225.116L485.527 228.804C485.649 228.96 485.667 229.175 485.572 229.349L484.759 230.849 479.853 237.775 475.74 244.133 472.378 249.985 469.771 255.451C469.704 255.591 469.577 255.692 469.426 255.725 469.275 255.758 469.117 255.719 468.998 255.619L465.123 252.369C464.95 252.224 464.896 251.98 464.991 251.775L468.304 244.65 472.198 237.801 476.721 231.264 481.874 225.103C481.971 224.987 482.115 224.921 482.266 224.924ZM870.792 221.736 881.496 233.08C881.583 233.173 881.632 233.296 881.632 233.424L881.632 301.5 881.442 308.477 880.809 314.34 879.809 319.028C879.803 319.055 879.795 319.081 879.785 319.106L878.41 322.606C878.396 322.642 878.378 322.676 878.357 322.707L876.294 325.707C876.279 325.729 876.262 325.75 876.243 325.77L873.132 329.002 869.038 332.275 865.321 334.799 904.882 334.799C904.94 334.799 904.996 334.808 905.05 334.828L908.55 336.078C908.779 336.16 908.916 336.394 908.875 336.634 908.833 336.874 908.625 337.049 908.382 337.049L865.913 337.049 867.668 341.799 915.891 341.799 908.264 331.476 907.232 331.15C907.077 331.102 906.955 330.981 906.906 330.826L906.45 329.402 903.937 327.308C903.91 327.285 903.886 327.26 903.864 327.233L901.802 324.608C901.78 324.58 901.761 324.55 901.746 324.519L900.183 321.331C900.17 321.303 900.159 321.274 900.15 321.244L899.15 317.619C899.142 317.59 899.137 317.56 899.134 317.529L898.07 305.161 898.195 300.174 898.195 256.361C898.195 256.128 898.356 255.925 898.584 255.874 898.812 255.822 899.045 255.935 899.146 256.145L936.822 334.799 953.507 334.799 953.507 257.611 953.508 252.028 953.762 246.039 954.526 240.852 955.713 236.602C955.722 236.57 955.734 236.539 955.749 236.509L957.499 233.072C957.515 233.041 957.534 233.012 957.555 232.985L959.404 230.695 962.18 227.921 965.942 224.661 969.538 221.736 929.69 221.736 933.16 224.495 936.755 227.841 939.318 230.716C939.335 230.735 939.35 230.755 939.364 230.776L940.989 233.276C941.012 233.311 941.03 233.348 941.043 233.387L942.043 236.325C942.052 236.351 942.058 236.377 942.063 236.404L942.756 240.571 943.195 246.039 943.32 252.736 943.32 257.299 943.32 295.736C943.32 295.97 943.157 296.173 942.929 296.224 942.701 296.275 942.467 296.161 942.367 295.949L913.18 234.012C913.077 233.792 913.146 233.531 913.343 233.39L923.573 226.152 920.987 223.267 907.654 232.156 943.266 302.385C943.301 302.455 943.32 302.533 943.32 302.611L943.32 310.736C943.32 310.969 943.159 311.171 942.931 311.223 942.704 311.276 942.471 311.164 942.37 310.954L904.182 231.954C904.083 231.749 904.135 231.504 904.307 231.356L915.531 221.736ZM773.078 221.736 781.593 232.933C781.695 233.068 781.722 233.245 781.666 233.404L770.978 263.466C770.917 263.637 770.768 263.762 770.589 263.792 770.41 263.822 770.228 263.752 770.115 263.609L768.701 261.826 766.893 260.135 764.625 258.415 762.215 256.969 759.953 260.26 761.105 261.562 764.15 264.049 767.778 267.246 768.579 267.589C768.831 267.697 768.949 267.988 768.844 268.241L768.219 269.741C768.153 269.9 768.01 270.013 767.84 270.042 767.671 270.07 767.499 270.01 767.384 269.881L765.333 267.582 761.309 263.371 760.08 262.55 757.939 261.377 754.394 269.706 750.2 278.268 752.912 278.62 755.963 279.195 758.498 279.957 760.623 280.769C760.652 280.78 760.68 280.794 760.706 280.81L762.644 281.997C762.841 282.118 762.93 282.36 762.857 282.58L761.166 287.717 758.031 296.491 754.895 304.015 751.813 310.428 748.72 315.66 744.814 320.886 740.158 325.979 734.818 330.878 729.879 334.799 773.882 334.799C774.034 334.799 774.178 334.868 774.273 334.986L775.273 336.236C775.393 336.386 775.416 336.592 775.333 336.765 775.25 336.938 775.074 337.049 774.882 337.049L733.715 337.049 735.832 341.799 784.077 341.799 783.546 340.491 782.925 339.002 782.453 337.931 782.116 337.359 778.983 333.412 776.469 330.08 774.574 327.298 773.386 325.236C773.37 325.207 773.357 325.177 773.346 325.147L772.034 321.272C772.021 321.235 772.013 321.197 772.009 321.158L771.572 316.533C771.569 316.501 771.569 316.468 771.572 316.435L772.322 309.123C772.325 309.097 772.33 309.071 772.336 309.046L774.601 300.5 776.538 295.25C776.602 295.079 776.754 294.955 776.935 294.929 777.116 294.902 777.297 294.977 777.407 295.124L780.228 298.885 784.488 304.899 788.151 310.488 790.829 313.326 794.547 308.121 798.567 302.846 802.651 298.135 806.776 293.948C806.901 293.821 807.083 293.77 807.255 293.814 807.426 293.857 807.562 293.988 807.612 294.159L808.05 295.659C808.097 295.82 808.06 295.994 807.951 296.122L798.922 306.766 795.315 312.111 792.586 316.845 796.223 317.73 802.172 308.808 809.047 299.808C809.158 299.663 809.339 299.59 809.519 299.617 809.699 299.643 809.85 299.766 809.913 299.937L818.413 322.812C818.481 322.993 818.438 323.196 818.304 323.334L807.188 334.799 851.906 334.799 847.158 330.156C846.971 329.973 846.956 329.677 847.125 329.477 847.293 329.277 847.587 329.24 847.799 329.393L857.174 336.143C857.35 336.27 857.425 336.496 857.358 336.702 857.292 336.909 857.099 337.049 856.882 337.049L811.887 337.049 813.901 341.799 865.058 341.799 846.402 322.963C846.354 322.915 846.317 322.858 846.292 322.795L832.23 287.295C832.167 287.137 832.189 286.958 832.288 286.82 832.387 286.682 832.55 286.603 832.72 286.612L835.233 286.738 839.302 287.051 846.257 287.674 846.608 287.675 847.407 287.737 848.668 287.8 849.566 287.864 846.422 281.181 843.663 274.66 841.59 269.066 840.286 264.678 835.335 262.789 836.36 267.151 837.963 272.342 842.275 281.842C842.351 282.009 842.329 282.205 842.218 282.351 842.107 282.497 841.924 282.571 841.743 282.543L838.986 282.111 834.545 281.922 830.461 282.232 826.669 283.152 841.289 323.127C841.367 323.34 841.292 323.58 841.105 323.709 840.918 323.839 840.667 323.826 840.494 323.678L839.619 322.928C839.555 322.873 839.506 322.803 839.477 322.725L824.164 282.037C824.068 281.783 824.194 281.498 824.447 281.397L826.009 280.772C826.034 280.762 826.06 280.754 826.086 280.748L828.401 280.238 831.239 279.986 834.757 279.861 835.472 279.862 836.589 279.924 838.21 279.986 839.434 280.025 835.406 270.388 832.156 260.223 829.861 261.517 827.017 263.556 825.017 265.243C824.893 265.348 824.725 265.386 824.567 265.345 824.409 265.303 824.282 265.187 824.226 265.034L813.476 235.909C813.416 235.746 813.444 235.564 813.552 235.427L821.845 224.866 818.202 223.22 808.269 234.589 820.912 267.871C820.975 268.036 820.946 268.223 820.835 268.361L820.085 269.298C819.973 269.439 819.793 269.508 819.616 269.48 819.438 269.451 819.289 269.33 819.226 269.161L805.976 233.724C805.918 233.567 805.942 233.391 806.04 233.255L814.401 221.736ZM637.078 221.736 645.593 232.933C645.695 233.068 645.722 233.245 645.666 233.404L634.978 263.466C634.917 263.637 634.768 263.762 634.589 263.792 634.41 263.822 634.228 263.752 634.115 263.609L632.701 261.826 630.893 260.135 628.625 258.415 626.215 256.969 623.953 260.26 625.105 261.562 628.15 264.049 631.778 267.246 632.579 267.589C632.831 267.697 632.949 267.988 632.844 268.241L632.219 269.741C632.153 269.9 632.01 270.013 631.84 270.042 631.671 270.07 631.499 270.01 631.384 269.881L629.333 267.582 625.309 263.371 624.08 262.55 621.939 261.377 618.394 269.706 614.2 278.268 616.912 278.62 619.963 279.195 622.498 279.957 624.623 280.769C624.652 280.78 624.68 280.794 624.706 280.81L626.644 281.997C626.841 282.118 626.93 282.36 626.857 282.58L625.166 287.717 622.031 296.491 618.895 304.015 615.813 310.428 612.72 315.66 608.814 320.886 604.158 325.979 598.818 330.878 593.879 334.799 637.882 334.799C638.034 334.799 638.178 334.868 638.273 334.986L639.273 336.236C639.393 336.386 639.416 336.592 639.333 336.765 639.25 336.938 639.074 337.049 638.882 337.049L597.715 337.049 599.832 341.799 648.077 341.799 647.546 340.491 646.925 339.002 646.453 337.931 646.116 337.359 642.983 333.412 640.469 330.08 638.574 327.298 637.386 325.236C637.37 325.207 637.357 325.177 637.346 325.147L636.034 321.272C636.021 321.235 636.013 321.197 636.009 321.158L635.572 316.533C635.569 316.501 635.569 316.468 635.572 316.435L636.322 309.123C636.325 309.097 636.33 309.071 636.336 309.046L638.601 300.5 640.538 295.25C640.602 295.079 640.754 294.955 640.935 294.929 641.116 294.902 641.297 294.977 641.407 295.124L644.228 298.885 648.488 304.899 652.151 310.488 654.829 313.326 658.547 308.121 662.567 302.846 666.651 298.135 670.776 293.948C670.901 293.821 671.083 293.77 671.255 293.814 671.426 293.857 671.563 293.988 671.612 294.159L672.05 295.659C672.097 295.82 672.06 295.994 671.951 296.122L662.922 306.766 659.315 312.111 656.586 316.845 660.223 317.73 666.172 308.808 673.047 299.808C673.158 299.663 673.339 299.59 673.519 299.617 673.699 299.643 673.85 299.766 673.913 299.937L682.413 322.812C682.481 322.993 682.438 323.196 682.304 323.334L671.188 334.799 715.906 334.799 711.158 330.156C710.971 329.973 710.956 329.677 711.125 329.477 711.293 329.277 711.587 329.24 711.799 329.393L721.174 336.143C721.35 336.27 721.425 336.496 721.358 336.702 721.292 336.909 721.099 337.049 720.882 337.049L675.887 337.049 677.901 341.799 729.058 341.799 710.402 322.963C710.354 322.915 710.317 322.858 710.292 322.795L696.23 287.295C696.167 287.137 696.189 286.958 696.288 286.82 696.387 286.682 696.55 286.603 696.72 286.612L699.233 286.738 703.302 287.051 710.257 287.674 710.608 287.675 711.407 287.737 712.668 287.8 713.566 287.864 710.422 281.181 707.663 274.66 705.59 269.066 704.286 264.678 699.335 262.789 700.36 267.151 701.963 272.342 706.275 281.842C706.351 282.009 706.329 282.205 706.218 282.351 706.107 282.497 705.924 282.571 705.743 282.543L702.986 282.111 698.545 281.922 694.461 282.232 690.669 283.152 705.289 323.127C705.367 323.34 705.292 323.58 705.105 323.709 704.918 323.839 704.667 323.826 704.494 323.678L703.619 322.928C703.555 322.873 703.506 322.803 703.477 322.725L688.164 282.037C688.068 281.783 688.194 281.498 688.447 281.397L690.009 280.772C690.034 280.762 690.06 280.754 690.086 280.748L692.4 280.238 695.239 279.986 698.757 279.861 699.472 279.862 700.589 279.924 702.21 279.986 703.434 280.025 699.406 270.388 696.156 260.223 693.861 261.517 691.017 263.556 689.017 265.243C688.893 265.348 688.725 265.386 688.567 265.345 688.41 265.303 688.282 265.187 688.226 265.034L677.476 235.909C677.416 235.746 677.444 235.564 677.552 235.427L685.845 224.866 682.202 223.22 672.269 234.589 684.912 267.871C684.975 268.036 684.946 268.223 684.835 268.361L684.085 269.298C683.973 269.439 683.794 269.508 683.616 269.48 683.438 269.451 683.289 269.33 683.226 269.161L669.976 233.724C669.918 233.567 669.942 233.391 670.04 233.255L678.401 221.736ZM386.723 221.736 398.922 233.818C399.016 233.912 399.07 234.04 399.07 234.174L399.07 268.299C399.07 268.56 398.869 268.777 398.608 268.797L395.405 269.044 392.501 269.83 389.901 271.16 387.539 272.977 385.474 275.346 383.702 278.217 382.235 281.633 381.365 284.46 385.054 282.279 389.554 280.279C389.578 280.269 389.602 280.26 389.626 280.254L394.001 279.066C394.027 279.059 394.053 279.054 394.08 279.051L398.257 278.611 398.57 278.611C398.846 278.611 399.07 278.835 399.07 279.111L399.07 280.049C399.07 280.288 398.9 280.494 398.665 280.539L394.855 281.272 391.202 282.511 387.851 284.212 384.932 286.195 386.892 289.411 392.989 286.655C393.01 286.646 393.033 286.638 393.055 286.631L398.43 285.068C398.581 285.025 398.744 285.054 398.87 285.149 398.996 285.243 399.07 285.391 399.07 285.549L399.07 321.424C399.07 321.559 399.015 321.689 398.917 321.783L386.744 333.549 484.627 333.549 481.542 329.47 478.406 325.204 475.893 321.497 474.003 318.408 472.358 315.303 470.789 311.537 469.157 307.203 467.758 302.899 466.95 303.56 465.904 304.42 465.298 304.965 465.114 305.149 462.09 312.001C462.073 312.039 462.051 312.075 462.025 312.108L459.275 315.608C459.26 315.627 459.243 315.646 459.224 315.663L456.224 318.476C456.206 318.493 456.186 318.509 456.165 318.523L452.978 320.711C452.952 320.728 452.926 320.743 452.898 320.756L449.523 322.256C449.496 322.267 449.469 322.277 449.441 322.284L445.393 323.293 440.293 324.047 434.141 324.486 426.953 324.611C426.819 324.613 426.69 324.562 426.594 324.468 426.499 324.374 426.445 324.245 426.445 324.111L426.445 285.549C426.445 285.272 426.669 285.049 426.945 285.049L444.812 285.049 444.703 284.868C444.573 284.65 444.626 284.369 444.828 284.214 445.03 284.06 445.315 284.081 445.492 284.264L453.382 292.436 453.382 254.404 440.44 268.635C440.345 268.739 440.211 268.799 440.07 268.799L426.945 268.799C426.669 268.799 426.445 268.575 426.445 268.299L426.445 238.986C426.445 238.71 426.669 238.486 426.945 238.486L426.978 238.487 430.246 238.299 432.916 238.237 435.132 238.111 436.765 238.111 440.786 238.174 444.056 238.363 446.618 238.613C446.643 238.616 446.667 238.62 446.691 238.626L448.441 239.064C448.471 239.071 448.501 239.082 448.529 239.095L450.204 239.871 452.294 241.139 454.811 242.902 457.711 245.123 458.293 245.414 459.259 245.897 460.973 246.448C461.124 246.496 461.244 246.614 461.294 246.766L461.334 246.885 462.267 248.229 463.893 250.191 467.009 243.679 470.774 236.966 474.735 230.808 478.94 225.303 480.285 221.736ZM263.854 221.736 274.26 233.721C274.339 233.812 274.382 233.928 274.382 234.049L274.382 322.674C274.382 322.8 274.334 322.923 274.247 323.015L263.222 334.799 304.035 334.799 302.255 332.752C302.079 332.549 302.094 332.243 302.29 332.059 302.486 331.875 302.792 331.879 302.983 332.067L307.171 336.192C307.315 336.335 307.359 336.55 307.282 336.738 307.205 336.926 307.023 337.049 306.82 337.049L266.255 337.049 269.044 341.799 314.572 341.799 301.169 323.848C301.105 323.761 301.07 323.656 301.07 323.549L301.07 300.111C301.07 300.004 301.104 299.9 301.167 299.814L312.98 283.814C313.084 283.674 313.253 283.598 313.426 283.613 313.6 283.628 313.753 283.733 313.83 283.889L333.83 324.327C333.928 324.523 333.885 324.76 333.727 324.911L323.322 334.799 368.999 334.799 364.5 331.058C364.303 330.894 364.262 330.607 364.405 330.395 364.548 330.182 364.829 330.112 365.055 330.233L376.055 336.108C376.258 336.216 376.36 336.448 376.305 336.67 376.249 336.893 376.049 337.049 375.82 337.049L326.826 337.049 329.666 341.799 385.304 341.799 361.7 323.38C361.641 323.334 361.593 323.276 361.56 323.209L331.497 262.959C331.405 262.773 331.437 262.549 331.578 262.397L346.209 246.577 349.298 243.364 352.454 240.526 355.679 238.063 358.909 236.039 362.214 234.39 365.569 233.19 369.005 232.303 371.781 231.943 370.414 227.792 367.068 228.283 363.435 229.204 359.859 230.557 356.331 232.35 352.814 234.506 349.464 237.11 346.117 240.083 342.822 243.501 326.54 262.251 356.581 323.265C356.684 323.475 356.628 323.729 356.445 323.876 356.263 324.023 356.003 324.023 355.82 323.877L355.195 323.377C355.14 323.333 355.096 323.279 355.064 323.217L323.689 262.842C323.595 262.661 323.62 262.441 323.753 262.286L335.697 248.341 339.836 243.7 343.921 239.491 348.015 235.777 352.103 232.634 356.139 229.924 360.119 227.716 364.175 225.945 367.757 224.865 367.757 221.736 319.695 221.736 319.695 224.928 324.278 226.32C324.32 226.333 324.36 226.351 324.397 226.375L327.897 228.562C327.941 228.589 327.98 228.623 328.013 228.662L330.138 231.162C330.185 231.218 330.22 231.283 330.239 231.354L330.927 233.854C330.944 233.916 330.949 233.982 330.941 234.047L330.629 236.609C330.623 236.651 330.613 236.693 330.597 236.732L329.535 239.42C329.526 239.442 329.515 239.464 329.503 239.485L327.784 242.471 325.469 245.599 301.969 276.849C301.84 277.021 301.615 277.091 301.411 277.023 301.207 276.955 301.07 276.764 301.07 276.549L301.07 236.861C301.07 236.73 301.121 236.605 301.212 236.511L309.791 227.751 307.49 224.6 296.32 234.523 296.32 280.299C296.32 280.341 296.314 280.382 296.304 280.423L295.179 284.798C295.116 285.042 294.882 285.201 294.632 285.17 294.382 285.138 294.195 284.925 294.195 284.674L294.195 235.049C294.195 234.928 294.238 234.812 294.317 234.721L305.598 221.736ZM869.632 220.736 916.882 220.736C917.091 220.736 917.279 220.866 917.351 221.063 917.424 221.259 917.366 221.48 917.208 221.616L905.25 231.865 942.32 308.553 942.32 302.731 906.561 232.212C906.447 231.986 906.519 231.711 906.73 231.57L920.792 222.195C920.999 222.057 921.276 222.092 921.442 222.277L924.692 225.902C924.787 226.009 924.833 226.15 924.817 226.292 924.801 226.434 924.725 226.562 924.609 226.644L914.263 233.965 942.32 293.502 942.32 257.299 942.32 252.736 942.195 246.058 941.759 240.651 941.083 236.609 940.117 233.769 938.546 231.353 936.009 228.506 932.479 225.227 927.946 221.628C927.78 221.495 927.715 221.272 927.785 221.071 927.855 220.871 928.045 220.736 928.257 220.736L970.945 220.736C971.156 220.736 971.345 220.869 971.416 221.069 971.487 221.268 971.424 221.491 971.26 221.624L966.573 225.437 962.835 228.676 960.111 231.402 958.367 233.572 956.663 236.918 955.489 241.121 954.752 246.184 954.507 252.07 954.507 257.611 954.507 335.299C954.507 335.575 954.283 335.799 954.007 335.799L936.507 335.799C936.315 335.799 936.139 335.688 936.056 335.515L899.195 258.562 899.195 300.174 899.07 305.186 900.126 317.397 901.102 320.933 902.62 324.031 904.618 326.573 907.202 328.727C907.275 328.788 907.329 328.868 907.358 328.959L907.78 330.275 908.72 330.572C908.821 330.604 908.909 330.667 908.972 330.751L917.284 342.001C917.397 342.153 917.414 342.355 917.329 342.524 917.244 342.692 917.071 342.799 916.882 342.799L867.32 342.799C867.11 342.799 866.923 342.668 866.851 342.472L864.726 336.722C864.669 336.569 864.691 336.397 864.784 336.263 864.878 336.129 865.031 336.049 865.195 336.049L905.496 336.049 904.796 335.799 863.695 335.799C863.475 335.799 863.281 335.655 863.217 335.446 863.152 335.236 863.232 335.008 863.414 334.885L868.476 331.447 872.507 328.221 875.493 325.107 877.5 322.188 878.839 318.779 879.831 314.132 880.448 308.37 880.632 301.473 880.632 233.622 869.269 221.579C869.132 221.434 869.094 221.221 869.173 221.038 869.252 220.855 869.433 220.736 869.632 220.736ZM772.07 220.736 815.382 220.736C815.57 220.736 815.742 220.842 815.828 221.009 815.913 221.176 815.897 221.378 815.787 221.53L807.007 233.625 807.282 234.36 807.318 234.157 817.693 222.282C817.838 222.116 818.075 222.065 818.276 222.156L822.838 224.218C822.978 224.281 823.081 224.405 823.118 224.555 823.154 224.704 823.12 224.862 823.026 224.982L814.51 235.825 824.917 264.019 826.372 262.791 829.278 260.705 832.199 259.051C832.33 258.977 832.487 258.966 832.627 259.021 832.767 259.075 832.875 259.191 832.921 259.334L835.095 266.134 834.146 262.101C834.103 261.92 834.164 261.732 834.303 261.61 834.442 261.488 834.638 261.453 834.81 261.519L840.873 263.831C841.018 263.887 841.13 264.007 841.174 264.156L842.549 268.781 844.601 274.312 847.343 280.791 850.835 288.211C850.91 288.371 850.895 288.56 850.795 288.706 850.694 288.853 850.524 288.935 850.347 288.922L848.597 288.797 847.357 288.735 846.531 288.672 846.257 288.674 839.213 288.047 835.156 287.735 833.446 287.649 847.184 322.332 866.612 341.947C866.755 342.09 866.796 342.305 866.719 342.491 866.641 342.677 866.459 342.799 866.257 342.799L813.57 342.799C813.369 342.799 813.188 342.679 813.109 342.494L810.672 336.744C810.606 336.589 810.623 336.412 810.715 336.273 810.808 336.133 810.964 336.049 811.132 336.049L855.332 336.049 852.61 334.089 853.482 334.941C853.627 335.083 853.672 335.299 853.595 335.487 853.519 335.676 853.335 335.799 853.132 335.799L806.007 335.799C805.806 335.799 805.625 335.678 805.547 335.494 805.469 335.309 805.509 335.095 805.648 334.951L817.366 322.865 809.292 301.135 802.967 309.415 796.861 318.576C796.744 318.751 796.531 318.834 796.327 318.784L791.702 317.659C791.549 317.622 791.422 317.515 791.36 317.37 791.298 317.226 791.308 317.06 791.387 316.924L794.449 311.611 798.093 306.207 807.014 295.68 806.891 295.256 803.363 298.837 799.323 303.501 795.342 308.727 791.289 314.402C791.202 314.523 791.065 314.6 790.916 314.61 790.767 314.62 790.621 314.563 790.519 314.454L787.394 311.142C787.373 311.12 787.355 311.097 787.339 311.073L783.652 305.448 779.412 299.463 777.158 296.458 775.539 300.847 773.313 309.264 772.572 316.488 773 321.006 774.278 324.779 775.441 326.799 777.295 329.517 779.781 332.81 782.899 336.738 783.311 337.416 783.839 338.596 784.469 340.106 785.283 342.11C785.346 342.265 785.327 342.44 785.234 342.578 785.142 342.716 784.986 342.799 784.82 342.799L735.507 342.799C735.31 342.799 735.131 342.682 735.051 342.502L732.488 336.752C732.419 336.597 732.433 336.418 732.525 336.276 732.618 336.134 732.775 336.049 732.945 336.049L773.842 336.049 773.642 335.799 728.445 335.799C728.232 335.799 728.043 335.664 727.973 335.463 727.903 335.262 727.967 335.039 728.134 334.907L734.196 330.094 739.482 325.243 744.076 320.211 747.919 315.062 750.952 309.919 753.994 303.582 757.108 296.106 760.224 287.38 761.784 282.643 760.223 281.687 758.141 280.891 755.676 280.153 752.728 279.603 749.38 279.169C749.221 279.149 749.081 279.052 749.004 278.91 748.928 278.768 748.925 278.598 748.996 278.454L753.496 269.266 757.235 260.478C757.29 260.348 757.398 260.247 757.531 260.201 757.664 260.155 757.811 260.167 757.935 260.235L759.217 260.937 758.945 260.63C758.793 260.458 758.778 260.205 758.908 260.015L761.658 256.015C761.807 255.798 762.1 255.734 762.327 255.87L765.14 257.557 767.496 259.337 769.411 261.121C769.429 261.138 769.446 261.156 769.461 261.175L770.338 262.281 780.633 233.323 771.672 221.539C771.557 221.388 771.537 221.184 771.622 221.014 771.706 220.844 771.88 220.736 772.07 220.736ZM636.07 220.736 679.382 220.736C679.57 220.736 679.742 220.842 679.828 221.009 679.913 221.176 679.897 221.378 679.787 221.53L671.007 233.625 671.282 234.36 671.318 234.157 681.693 222.282C681.838 222.116 682.075 222.065 682.276 222.156L686.838 224.218C686.978 224.281 687.081 224.405 687.118 224.555 687.154 224.704 687.12 224.862 687.026 224.982L678.511 235.825 688.917 264.019 690.372 262.791 693.278 260.705 696.199 259.051C696.33 258.977 696.487 258.966 696.627 259.021 696.767 259.075 696.875 259.191 696.921 259.334L699.096 266.134 698.146 262.101C698.103 261.92 698.164 261.732 698.303 261.61 698.442 261.488 698.638 261.453 698.81 261.519L704.873 263.831C705.018 263.887 705.13 264.007 705.174 264.156L706.549 268.781 708.601 274.312 711.343 280.791 714.835 288.211C714.91 288.371 714.895 288.56 714.795 288.706 714.694 288.853 714.524 288.935 714.347 288.922L712.597 288.797 711.357 288.735 710.531 288.672 710.257 288.674 703.213 288.047 699.156 287.735 697.446 287.649 711.184 322.332 730.612 341.947C730.755 342.09 730.796 342.305 730.719 342.491 730.641 342.677 730.459 342.799 730.257 342.799L677.57 342.799C677.369 342.799 677.188 342.679 677.109 342.494L674.672 336.744C674.606 336.589 674.623 336.412 674.715 336.273 674.808 336.133 674.964 336.049 675.132 336.049L719.332 336.049 716.61 334.089 717.482 334.941C717.627 335.083 717.672 335.299 717.595 335.487 717.519 335.676 717.335 335.799 717.132 335.799L670.007 335.799C669.806 335.799 669.625 335.678 669.547 335.494 669.469 335.309 669.508 335.095 669.648 334.951L681.366 322.865 673.292 301.135 666.967 309.415 660.861 318.576C660.744 318.751 660.531 318.834 660.327 318.784L655.702 317.659C655.549 317.622 655.422 317.515 655.36 317.37 655.298 317.226 655.308 317.06 655.387 316.924L658.449 311.611 662.093 306.207 671.014 295.68 670.891 295.256 667.363 298.837 663.323 303.501 659.342 308.727 655.289 314.402C655.202 314.523 655.065 314.6 654.916 314.61 654.767 314.62 654.621 314.563 654.519 314.454L651.394 311.142C651.373 311.12 651.355 311.097 651.339 311.073L647.652 305.448 643.412 299.463 641.158 296.458 639.539 300.847 637.313 309.264 636.572 316.488 637 321.006 638.278 324.779 639.441 326.799 641.295 329.517 643.781 332.81 646.899 336.738 647.311 337.416 647.839 338.596 648.469 340.106 649.283 342.11C649.346 342.265 649.327 342.44 649.234 342.578 649.142 342.716 648.986 342.799 648.82 342.799L599.507 342.799C599.31 342.799 599.131 342.682 599.051 342.502L596.488 336.752C596.419 336.597 596.433 336.418 596.525 336.276 596.618 336.134 596.775 336.049 596.945 336.049L637.842 336.049 637.642 335.799 592.445 335.799C592.232 335.799 592.043 335.664 591.973 335.463 591.903 335.262 591.967 335.039 592.134 334.907L598.196 330.094 603.482 325.243 608.076 320.211 611.919 315.062 614.952 309.919 617.994 303.582 621.108 296.106 624.224 287.38 625.784 282.643 624.223 281.687 622.141 280.891 619.676 280.153 616.728 279.603 613.38 279.169C613.221 279.149 613.081 279.052 613.004 278.91 612.928 278.768 612.925 278.598 612.996 278.454L617.496 269.266 621.235 260.478C621.29 260.348 621.398 260.247 621.531 260.201 621.664 260.155 621.811 260.167 621.935 260.235L623.217 260.937 622.945 260.63C622.793 260.458 622.778 260.205 622.908 260.015L625.658 256.015C625.807 255.798 626.1 255.734 626.327 255.87L629.14 257.557 631.496 259.337 633.411 261.121C633.429 261.138 633.446 261.156 633.461 261.175L634.338 262.281 644.633 233.323 635.672 221.539C635.557 221.388 635.537 221.184 635.622 221.014 635.706 220.844 635.88 220.736 636.07 220.736ZM385.507 220.736 481.007 220.736C481.171 220.736 481.325 220.817 481.418 220.952 481.512 221.087 481.533 221.259 481.475 221.412L479.85 225.725C479.833 225.771 479.809 225.813 479.78 225.852L475.53 231.415 471.615 237.507 467.881 244.168 464.458 251.327C464.385 251.481 464.238 251.586 464.069 251.607 463.899 251.628 463.731 251.562 463.622 251.43L461.497 248.868 460.472 247.397 460.436 247.326 458.917 246.837C458.892 246.829 458.869 246.82 458.846 246.808L457.846 246.308 457.221 245.996C457.193 245.982 457.166 245.965 457.141 245.946L454.203 243.696 451.721 241.958 449.686 240.726 448.153 240.022 446.484 239.605 443.959 239.359 440.728 239.173 436.749 239.111 435.132 239.111 432.973 239.235 430.269 239.298 427.445 239.462 427.445 267.799 439.849 267.799 453.512 252.775C453.651 252.622 453.87 252.57 454.063 252.645 454.255 252.719 454.382 252.905 454.382 253.111L454.382 254.375 459.975 256.198C460.181 256.265 460.32 256.457 460.32 256.674L460.32 297.549C460.32 297.707 460.245 297.856 460.117 297.95 459.99 298.045 459.826 298.073 459.674 298.027L453.924 296.277C453.714 296.213 453.57 296.019 453.57 295.799L453.57 294.031 453.523 294.021 445.778 286 445.695 286.049 427.445 286.049 427.445 323.602 434.124 323.486 440.222 323.05 445.246 322.304 449.156 321.324 452.45 319.86 455.568 317.72 458.513 314.96 461.2 311.539 464.237 304.659C464.262 304.603 464.298 304.551 464.341 304.508L464.591 304.258 465.235 303.677 466.314 302.788 467.691 301.662C467.818 301.557 467.99 301.522 468.148 301.569 468.306 301.615 468.432 301.737 468.483 301.894L470.108 306.894 471.725 311.185 473.281 314.919 474.886 317.939 476.746 320.975 479.234 324.643 482.348 328.877 486.031 333.747C486.146 333.898 486.164 334.101 486.08 334.271 485.995 334.441 485.822 334.549 485.632 334.549L385.507 334.549C385.303 334.549 385.12 334.425 385.044 334.236 384.967 334.047 385.013 333.831 385.16 333.689L398.07 321.211 398.07 286.215 393.368 287.581 386.901 290.504C386.671 290.608 386.399 290.524 386.268 290.309L383.83 286.309C383.692 286.081 383.756 285.785 383.976 285.635L387.289 283.385 390.78 281.603C390.802 281.592 390.824 281.583 390.847 281.575L394.534 280.325 398.07 279.637 398.07 279.631 394.225 280.042 389.925 281.209 385.46 283.193 380.762 285.979C380.584 286.084 380.36 286.069 380.198 285.941 380.036 285.813 379.969 285.599 380.029 285.402L381.279 281.339 382.798 277.789C382.807 277.766 382.819 277.745 382.832 277.724L384.644 274.786C384.659 274.763 384.675 274.741 384.693 274.72L386.818 272.283C386.84 272.258 386.864 272.235 386.89 272.215L389.327 270.34C389.352 270.321 389.377 270.305 389.405 270.291L392.092 268.916C392.123 268.9 392.155 268.888 392.189 268.879L395.189 268.066C395.219 268.058 395.25 268.052 395.281 268.05L398.07 267.836 398.07 234.382 385.155 221.591C385.011 221.449 384.968 221.233 385.045 221.046 385.122 220.858 385.305 220.736 385.507 220.736ZM262.757 220.736 306.695 220.736C306.891 220.736 307.068 220.85 307.15 221.029 307.231 221.207 307.201 221.416 307.072 221.564L299.193 230.634 307.238 223.487C307.343 223.394 307.483 223.349 307.623 223.364 307.763 223.379 307.89 223.452 307.974 223.566L310.849 227.504C310.993 227.701 310.973 227.974 310.802 228.148L302.07 237.065 302.07 275.052 324.67 244.998 326.98 241.876 328.618 239.019 329.644 236.424 329.936 234.024 329.305 231.726 327.301 229.369 323.923 227.258 319.049 225.777C318.839 225.713 318.695 225.519 318.695 225.299L318.695 221.236C318.695 220.96 318.919 220.736 319.195 220.736L368.257 220.736C368.533 220.736 368.757 220.96 368.757 221.236L368.757 225.236C368.757 225.457 368.613 225.651 368.402 225.715L364.464 226.902 360.52 228.632 356.625 230.798 353.195 233.105 355.808 231.498 359.406 229.665 363.08 228.269 366.822 227.314 370.684 226.741C370.925 226.706 371.156 226.849 371.232 227.08L372.92 232.205C372.966 232.346 372.947 232.501 372.868 232.628 372.788 232.754 372.657 232.838 372.509 232.857L369.134 233.294 365.82 234.158 362.551 235.332 359.356 236.933 356.21 238.91 353.061 241.321 349.967 244.108 346.93 247.27 332.546 262.822 362.404 322.662 387.065 341.904C387.233 342.036 387.299 342.259 387.23 342.461 387.161 342.663 386.971 342.799 386.757 342.799L329.382 342.799C329.206 342.799 329.043 342.706 328.953 342.555L325.516 336.805C325.423 336.651 325.421 336.458 325.51 336.302 325.599 336.145 325.765 336.049 325.945 336.049L373.822 336.049 368.913 333.426 370.702 334.914C370.864 335.049 370.924 335.271 370.852 335.469 370.781 335.667 370.593 335.799 370.382 335.799L322.07 335.799C321.865 335.799 321.681 335.674 321.605 335.484 321.53 335.294 321.577 335.077 321.725 334.936L332.771 324.44 313.298 285.068 302.07 300.276 302.07 323.383 315.97 341.999C316.084 342.151 316.102 342.354 316.017 342.523 315.932 342.692 315.759 342.799 315.57 342.799L268.757 342.799C268.58 342.799 268.416 342.705 268.326 342.552L264.951 336.802C264.86 336.647 264.859 336.456 264.948 336.3 265.037 336.145 265.203 336.049 265.382 336.049L305.6 336.049 305.261 335.715 305.132 335.799 262.07 335.799C261.871 335.799 261.69 335.68 261.611 335.498 261.532 335.315 261.569 335.102 261.705 334.957L273.382 322.476 273.382 234.235 262.38 221.564C262.251 221.416 262.221 221.207 262.302 221.029 262.384 220.85 262.561 220.736 262.757 220.736ZM535.731 219.797 528.021 220.357 521.044 222.024 514.88 224.798 509.397 228.617 504.909 233.352 501.717 238.753 499.813 244.835 499.196 251.615 499.69 258.094 501.105 263.816 503.497 268.783 506.804 273.009 509.511 275.224C509.7 275.378 509.75 275.645 509.63 275.857 509.51 276.069 509.256 276.164 509.027 276.082L505.556 274.842 506.35 277.74 507.982 280.883 510.332 283.413 513.305 285.355 517.415 287.074 523.016 288.942 530.189 290.938 538.815 293.063 544.64 294.504 549.401 295.82 553.195 296.96 555.82 298.023C555.846 298.033 555.87 298.046 555.894 298.06L560.269 300.748C560.294 300.763 560.318 300.78 560.339 300.8L564.596 304.584 566.363 303.781C566.492 303.722 566.64 303.721 566.77 303.778 566.9 303.834 566.999 303.944 567.044 304.078L567.107 304.266C567.119 304.303 567.127 304.343 567.131 304.383L567.506 308.945C567.508 308.975 567.508 309.005 567.505 309.034L567.13 312.909C567.126 312.948 567.118 312.985 567.106 313.022L565.918 316.522C565.906 316.559 565.888 316.595 565.867 316.628L563.93 319.691C563.908 319.725 563.882 319.757 563.852 319.785L561.102 322.41C561.078 322.433 561.052 322.454 561.024 322.472L557.649 324.597C557.622 324.614 557.594 324.628 557.564 324.639L553.564 326.202C553.535 326.213 553.506 326.222 553.475 326.227L548.788 327.11 543.6 327.423 536.855 326.978 536.168 326.853C535.93 326.81 535.757 326.603 535.757 326.361L535.757 324.83 529.623 321.101C529.588 321.08 529.557 321.055 529.529 321.027L524.466 315.965C524.436 315.935 524.411 315.901 524.389 315.865L520.702 309.615C520.683 309.583 520.667 309.549 520.656 309.513L518.41 302.48 513.866 303.152 514.851 307.437 516.463 311.778 518.553 315.588 521.127 318.959 523.219 320.867C523.416 321.046 523.438 321.349 523.267 321.555 523.097 321.76 522.796 321.796 522.582 321.636L520.832 320.324C520.812 320.309 520.793 320.292 520.776 320.274L516.901 316.337C516.875 316.311 516.852 316.282 516.833 316.251L513.833 311.438C513.816 311.411 513.802 311.383 513.791 311.353L511.603 305.666C511.593 305.641 511.586 305.615 511.58 305.589L510.273 299.349 506.648 298.624 504.028 306.124 500.505 314.169 492.193 328.919C492.112 329.062 491.966 329.157 491.803 329.172 491.639 329.186 491.479 329.12 491.373 328.994L483.773 319.879 480.06 314.022 477.289 308.479 472.592 307.33 475.317 313.989 479.221 320.875 483.949 327.221 489.611 332.883C489.78 333.052 489.806 333.319 489.671 333.517L487.421 336.83C487.328 336.967 487.173 337.049 487.007 337.049L392.663 337.049 394.418 341.799 489.959 341.799 493.63 334.999C493.723 334.825 493.91 334.723 494.107 334.737 494.303 334.752 494.473 334.881 494.54 335.066L496.006 339.127 500.807 337.755C500.835 337.747 500.864 337.742 500.892 337.739L505.642 337.239C505.67 337.236 505.698 337.235 505.726 337.237L510.847 337.557 515.688 338.438 529.469 341.806 537.535 343.237 546.591 343.738 555.673 342.991 564.021 340.827 571.685 337.119 578.595 332.004 581.684 328.98 584.345 325.766 586.627 322.441 588.478 318.932 589.9 315.229 590.951 311.41 591.57 307.402 591.758 303.205 591.515 299.326 590.835 295.615 589.619 292.141 588.011 288.8 585.884 285.694 583.302 282.799 580.215 280.08 577.445 278.087 577.445 279.986C577.445 280.188 577.323 280.371 577.136 280.448 576.949 280.525 576.734 280.483 576.591 280.34L576.553 280.3 572.021 276.327 566.527 272.931 559.991 270.153 552.388 267.909 537.873 264.343 533.623 263.155C533.479 263.115 533.361 263.013 533.3 262.876 533.24 262.74 533.243 262.583 533.31 262.45L533.957 261.155 532.869 260.116 529.369 257.116C529.348 257.098 529.328 257.078 529.311 257.056L526.811 254.056C526.788 254.029 526.768 253.999 526.751 253.967L525.251 251.092C525.228 251.047 525.211 250.999 525.202 250.949L524.702 248.136C524.694 248.09 524.693 248.044 524.697 247.998L524.947 245.56C524.951 245.527 524.958 245.493 524.968 245.461L525.655 243.274C525.667 243.237 525.683 243.202 525.702 243.168L526.89 241.168C526.906 241.14 526.926 241.114 526.947 241.09L528.572 239.277C528.597 239.25 528.624 239.226 528.653 239.205L530.653 237.768C530.681 237.748 530.71 237.731 530.742 237.717L532.992 236.717C533.019 236.705 533.047 236.695 533.076 236.688L535.639 236.063C535.667 236.056 535.695 236.052 535.723 236.05L538.473 235.862C538.505 235.86 538.537 235.861 538.568 235.865L543.631 236.49C543.67 236.495 543.708 236.504 543.745 236.518L548.745 238.393C548.777 238.405 548.808 238.42 548.837 238.439L553.775 241.564C553.797 241.578 553.819 241.594 553.839 241.612L558.586 245.825 559.659 245.289C559.786 245.225 559.936 245.219 560.068 245.272 560.201 245.325 560.305 245.433 560.353 245.567L561.233 248.021 562.279 251.289 562.827 252.567 563.692 253.96 565.762 252.924 566.803 250.901 568.36 247.54 570.358 242.857 572.803 236.965 575.887 230.236 579.813 223.438 577.615 222.291 572.897 224.381C572.861 224.397 572.822 224.409 572.783 224.416L568.595 225.166C568.554 225.173 568.511 225.175 568.469 225.172L566.805 225.043 564.779 224.725 562.378 224.219 559.577 223.472 552.918 221.853 546.761 220.733 540.984 220.048ZM535.659 218.8 541.031 219.049 546.878 219.74 553.097 220.869 559.813 222.5 562.636 223.253 564.985 223.747 566.959 224.055 568.482 224.17 572.547 223.442 577.43 221.279C577.569 221.217 577.729 221.222 577.864 221.293L580.739 222.793C580.859 222.856 580.949 222.966 580.987 223.096 581.025 223.227 581.008 223.368 580.94 223.486L579.767 225.517 580.742 224.299C580.885 224.119 581.133 224.061 581.341 224.157L586.091 226.344C586.28 226.431 586.395 226.625 586.381 226.832 586.367 227.039 586.227 227.216 586.029 227.277L585.436 227.459 583.778 231.249 582.148 234.759 580.773 237.698 579.515 240.152 578.024 243.383 576.712 246.256 575.588 248.754 574.585 250.887 573.149 254.008 572.329 255.647C572.307 255.692 572.279 255.732 572.244 255.768L570.994 257.081C570.856 257.226 570.644 257.275 570.457 257.204L565.957 255.517C565.726 255.43 565.593 255.189 565.642 254.948L565.836 254.006 563.731 255.058C563.5 255.174 563.219 255.094 563.082 254.875L561.957 253.062C561.944 253.041 561.933 253.019 561.923 252.996L561.36 251.683 560.281 248.326 559.602 246.435 558.731 246.871C558.548 246.962 558.328 246.933 558.175 246.798L553.206 242.387 548.346 239.311 543.45 237.475 538.494 236.863 535.834 237.045 533.357 237.649 531.195 238.61 529.281 239.985 527.725 241.721 526.592 243.629 525.937 245.712 525.699 248.03 526.174 250.698 527.613 253.457 530.052 256.384 533.52 259.356 534.915 260.687C535.074 260.839 535.115 261.076 535.017 261.272L534.475 262.355 538.142 263.38 552.627 266.938 560.274 269.194 566.953 272.026C566.976 272.036 566.999 272.047 567.02 272.061L572.583 275.498C572.606 275.513 572.629 275.529 572.649 275.548L576.445 278.875 576.445 277.111C576.445 276.924 576.55 276.752 576.717 276.666 576.884 276.581 577.084 276.596 577.237 276.705L580.799 279.268 583.963 282.048 586.63 285.028 588.857 288.266C588.871 288.287 588.884 288.309 588.895 288.332L590.52 291.707 591.792 295.321C591.8 295.345 591.807 295.37 591.812 295.396L592.499 299.146 592.756 303.142 592.569 307.446 591.939 311.562 590.864 315.493 589.412 319.29 587.512 322.906 585.17 326.331 582.455 329.617 579.295 332.718 572.242 337.95C572.217 337.969 572.191 337.985 572.162 337.999L564.412 341.749C564.383 341.763 564.352 341.774 564.32 341.783L555.883 343.97C555.855 343.977 555.827 343.982 555.798 343.984L546.673 344.734 537.48 344.235 529.295 342.791 515.451 339.409 510.668 338.541 505.706 338.238 501.04 338.729 495.832 340.217C495.579 340.289 495.314 340.153 495.224 339.906L493.979 336.457 490.697 342.536C490.61 342.698 490.441 342.799 490.257 342.799L394.07 342.799C393.86 342.799 393.673 342.668 393.601 342.472L391.476 336.722C391.419 336.569 391.441 336.397 391.534 336.263 391.628 336.129 391.781 336.049 391.945 336.049L486.742 336.049 488.611 333.297 483.216 327.902C483.199 327.885 483.183 327.867 483.169 327.847L478.419 321.472 474.447 314.483 471.295 306.801C471.223 306.627 471.256 306.427 471.378 306.285 471.501 306.142 471.693 306.081 471.876 306.125L477.751 307.563C477.894 307.598 478.014 307.694 478.079 307.825L480.954 313.575 484.617 319.343 491.677 327.798 499.634 313.678 503.112 305.723 505.848 297.884C505.93 297.648 506.173 297.509 506.418 297.558L510.793 298.433C510.989 298.473 511.143 298.625 511.184 298.821L512.551 305.344 514.707 310.95 516.052 313.107 515.569 312.227C515.557 312.205 515.547 312.183 515.539 312.16L513.914 307.785 512.77 302.849C512.739 302.713 512.766 302.57 512.844 302.454 512.923 302.339 513.046 302.262 513.184 302.241L518.684 301.429C518.927 301.393 519.159 301.538 519.234 301.772L521.591 309.156 525.218 315.302 530.193 320.278 536.517 324.121C536.666 324.212 536.757 324.374 536.757 324.549L536.757 325.944 537.034 325.994 543.665 326.425 548.727 326.112 553.243 325.254 557.156 323.725 560.448 321.652 563.118 319.104 564.99 316.144 566.14 312.755 566.505 308.982 566.175 304.965 564.714 305.629C564.534 305.711 564.323 305.679 564.175 305.547L559.708 301.577 555.406 298.934 552.82 297.887 549.114 296.778 544.374 295.468 538.575 294.034 529.95 291.909 522.748 289.905 517.099 288.023 512.877 286.26C512.849 286.248 512.822 286.234 512.796 286.217L509.734 284.217C509.7 284.195 509.669 284.169 509.641 284.139L507.203 281.514C507.173 281.481 507.147 281.444 507.126 281.404L505.438 278.154C505.422 278.123 505.409 278.09 505.4 278.056L504.338 274.181C504.288 274.001 504.343 273.809 504.48 273.682 504.616 273.555 504.812 273.515 504.988 273.578L506.642 274.168 506.128 273.748C506.1 273.725 506.074 273.698 506.051 273.669L502.676 269.357C502.654 269.328 502.635 269.298 502.619 269.266L500.182 264.203C500.167 264.172 500.155 264.14 500.147 264.106L498.709 258.294C498.703 258.267 498.698 258.239 498.696 258.212L498.196 251.649C498.194 251.621 498.194 251.594 498.197 251.566L498.822 244.691C498.825 244.655 498.832 244.621 498.843 244.587L500.78 238.399C500.792 238.363 500.807 238.327 500.827 238.294L504.077 232.794C504.096 232.762 504.119 232.732 504.144 232.705L508.707 227.892C508.73 227.867 508.756 227.845 508.784 227.826L514.346 223.951C514.372 223.933 514.399 223.918 514.427 223.905L520.677 221.093C520.706 221.08 520.735 221.07 520.766 221.062L527.829 219.375C527.855 219.369 527.882 219.364 527.909 219.362Z" fill="#E2F0D9" fill-rule="evenodd"/><path d="M767.744 284.176C767.682 285.331 767.1 287.628 765.995 291.067L763.167 299.858C761.701 304.333 760.968 308.056 760.968 311.028 760.968 314.015 761.453 316.457 762.424 318.354L762.629 318.693 762.407 317.814C762.092 316.198 761.935 314.454 761.935 312.581 761.935 306.459 764.332 297.861 769.128 286.786ZM631.744 284.176C631.682 285.331 631.1 287.628 629.995 291.067L627.167 299.858C625.701 304.333 624.968 308.056 624.968 311.028 624.968 314.015 625.453 316.457 626.424 318.354L626.629 318.693 626.407 317.814C626.092 316.198 625.935 314.454 625.935 312.581 625.935 306.459 628.332 297.861 633.128 286.786ZM576.054 280.09 576.297 280.406C579.343 285.313 580.866 291.105 580.866 297.781 580.866 307.703 577.131 316.036 569.661 322.781 562.191 329.526 552.986 332.898 542.046 332.898 535.278 332.898 527.805 331.889 519.629 329.87L508.769 327.192C505.304 326.367 502.348 325.955 499.901 325.955 497.527 325.955 494.776 326.582 491.649 327.836L490.975 328.14 491.344 328.432 490.437 330.12 492.575 329.174C495.401 328.082 498.073 327.537 500.591 327.537 504.152 327.537 508.584 328.16 513.885 329.407L526.091 332.362C531.217 333.598 536.652 334.216 542.395 334.216 553.424 334.216 562.799 330.712 570.518 323.702 578.237 316.693 582.097 308.249 582.097 298.371 582.097 292.129 580.348 286.368 576.849 281.088ZM415.077 275.154 415.077 319.978 417.011 319.978 417.011 275.681 436.393 275.681 435.885 275.154ZM306.196 273.749 290.528 293.796 290.528 319.268 291.671 320.563 291.671 293.596 306.707 275.571ZM508.014 273.558 508.685 274.334C511.322 276.538 515.891 278.431 522.393 280.015L536.266 283.461C545.847 285.856 552.336 287.972 555.733 289.81 556.582 290.27 557.375 290.821 558.11 291.464L560.059 293.575 559.547 292.557C558.813 291.416 557.958 290.349 556.979 289.355 550.701 286.067 540.666 283.072 526.874 280.37 521.276 279.274 516.431 277.797 512.338 275.94ZM449.882 250.671 455.683 252.496 455.683 293.381 449.882 291.62ZM788.132 248.24 780.488 271.12C780.823 271.322 781.02 271.482 781.078 271.601L783.509 274.714C785.42 276.605 787.453 279.037 789.608 282.01L791.723 285.046 794.116 281.647C795.262 280.321 796.613 279.005 798.169 277.7ZM652.132 248.24 644.488 271.12C644.823 271.322 645.02 271.482 645.078 271.601L647.509 274.714C649.42 276.605 651.453 279.037 653.608 282.01L655.723 285.046 658.116 281.647C659.262 280.321 660.613 279.005 662.169 277.7ZM887.509 238.932 887.509 286.813C887.509 302.367 888.466 312.395 890.38 316.898 890.859 318.024 891.51 319.077 892.333 320.057L893.431 321.057 892.431 319.627C889.853 315.097 888.564 309.042 888.564 301.463L888.651 293.362 888.651 246.681ZM784.226 238.242 772.387 272.285C776.476 276.315 780.114 280.532 783.3 284.934L786.777 289.772 787.202 289.256C787.394 289 787.632 288.881 787.915 288.899 784.156 283.562 779.474 278.175 773.867 272.741L784.897 243.145ZM648.226 238.242 636.387 272.285C640.476 276.315 644.114 280.532 647.3 284.934L650.777 289.772 651.202 289.256C651.394 289 651.632 288.881 651.915 288.899 648.156 283.562 643.474 278.175 637.867 272.741L648.897 243.145ZM428.739 227.605C424.489 227.605 419.935 227.72 415.077 227.951L415.077 264.167 417.011 264.167 417.011 229.269C422.634 228.746 427.381 228.484 431.252 228.484 438.798 228.484 444.44 229.327 448.178 231.013L448.563 231.221 448.511 231.177C448.101 230.873 447.689 230.605 447.274 230.374 443.956 228.528 437.778 227.605 428.739 227.605ZM533.032 225.408C527.378 225.408 522.701 226.96 519.002 230.065 515.304 233.17 513.454 237.037 513.454 241.666 513.454 244.946 514.409 247.841 516.319 250.352L518.17 252.332 515.902 248.447C515.325 246.858 515.036 245.161 515.036 243.357 515.036 238.332 516.824 234.255 520.4 231.125 523.976 227.996 528.576 226.431 534.199 226.431 536.822 226.431 539.293 226.716 541.614 227.288L544.036 228.058 543.883 227.971C540.521 226.262 536.903 225.408 533.032 225.408ZM969.781 223.437 967.554 229.33C963.157 230.359 960.274 232.08 958.906 234.493 957.538 236.906 956.855 241.276 956.855 247.603L956.855 338.171 935.401 338.171 933.645 332.371 950.966 332.371 950.966 248.464C950.966 240.001 952.127 233.999 954.449 230.459 956.77 226.919 961.881 224.579 969.781 223.437ZM478.129 221.277 481.003 224.933 480.181 226.483C473.197 235.869 468.183 244.065 465.139 251.072L461.286 247.799C465.294 238.084 470.908 229.243 478.129 221.277ZM576.983 220.476 581.715 222.647 580.939 222.892C578.442 228.585 576.432 232.875 574.906 235.764 570.75 244.926 568.363 250.09 567.747 251.254L566.487 252.566 561.996 250.897 562.478 248.48C564.151 244.666 566.582 239.68 569.771 233.522L575.694 222.005ZM865.5 217.058 912.75 217.058 900.495 227.602 938.661 306.598 938.661 298.465 902.846 227.826 916.944 218.437 920.171 222.099 909.471 229.65 938.661 291.604 938.661 253.118 938.661 248.55C938.661 238.859 937.911 232.475 936.412 229.401 934.912 226.326 930.801 222.212 924.077 217.058L966.8 217.058C959.889 222.503 955.56 226.521 953.815 229.113 951.154 233.159 949.823 239.408 949.823 247.861L949.823 253.463 949.823 331.14 932.345 331.14 894.54 252.203 894.54 296.022 894.426 301.02 895.452 313.302C896.497 318.515 898.913 322.399 902.702 324.956L903.257 326.492 904.398 326.909 912.75 338.171 863.143 338.171 861.019 332.371 904.227 332.371 900.725 331.14 859.556 331.14C866.906 326.496 871.645 322.206 873.772 318.272 875.899 314.337 876.962 307.355 876.962 297.326L876.962 229.252ZM767.922 217.058 811.251 217.058 802.289 229.382 815.548 264.805 816.265 263.863 803.511 230.357 813.901 218.437 818.49 220.498 809.787 231.592 820.529 260.708 822.559 258.986C824.446 257.476 826.357 256.256 828.293 255.325 830.31 262.671 832.902 269.703 836.069 276.42 833.064 276.279 831.243 276.208 830.605 276.208 825.548 276.208 822.171 276.716 820.473 277.73L835.8 318.362 836.633 319.168 821.866 278.667C824.86 277.731 827.687 277.263 830.347 277.263 831.92 277.263 833.422 277.331 834.852 277.466L837.681 277.889 833.374 268.364C832.107 264.869 831.143 261.356 830.484 257.824L836.54 260.149C837.889 265.665 841.121 273.703 846.238 284.263 843.579 284.092 842.19 284.006 842.073 284.006L835.093 283.405C833.512 283.262 832.161 283.155 831.039 283.083L828.513 282.982 842.574 318.451 862.094 338.171 809.411 338.171 806.958 332.371 852.717 332.371 843.346 325.669 848.996 331.14 801.874 331.14 813.767 318.855 805.3 295.981C800.412 301.901 796.079 307.962 792.301 314.165L787.655 313.003C789.471 309.449 791.696 305.892 794.328 302.332L803.433 291.661 802.953 290.121C797.505 295.413 792.088 302.02 786.702 309.942L783.594 306.619C781.344 303.026 778.693 299.151 775.64 294.994L772.845 291.265 770.922 296.506C768.915 302.61 767.911 307.876 767.911 312.303 767.911 315.676 768.49 318.525 769.646 320.849 770.803 323.173 773.699 327.196 778.333 332.917 778.748 333.444 779.523 335.195 780.66 338.171L731.369 338.171 728.799 332.371 770.716 332.371 769.731 331.14 724.318 331.14C732.877 324.836 739.489 318.191 744.155 311.207 748.237 305.095 752.366 295.825 756.54 283.396L758.213 278.244 756.291 277.091C753.757 275.907 750.08 275.04 745.257 274.49 748.529 268.269 751.29 262.283 753.542 256.532 755.725 257.618 757.043 258.383 757.498 258.827L761.53 263.107C762.489 263.671 763.188 264.438 763.627 265.408L764.216 263.907 763.372 263.517C760.674 261.143 758.417 259.235 756.604 257.794L755.168 256.156 757.883 252.136C761.94 254.386 764.761 256.713 766.347 259.116L777.056 229.051ZM631.922 217.058 675.251 217.058 666.289 229.382 679.548 264.805 680.265 263.863 667.511 230.357 677.901 218.437 682.49 220.498 673.787 231.592 684.529 260.708 686.559 258.986C688.445 257.476 690.357 256.256 692.293 255.325 694.31 262.671 696.902 269.703 700.069 276.42 697.064 276.279 695.243 276.208 694.605 276.208 689.548 276.208 686.171 276.716 684.473 277.73L699.8 318.362 700.633 319.168 685.866 278.667C688.86 277.731 691.687 277.263 694.347 277.263 695.92 277.263 697.422 277.331 698.852 277.466L701.681 277.889 697.374 268.364C696.107 264.869 695.143 261.356 694.484 257.824L700.54 260.149C701.889 265.665 705.121 273.703 710.238 284.263 707.579 284.092 706.19 284.006 706.073 284.006L699.093 283.405C697.512 283.262 696.161 283.155 695.039 283.083L692.513 282.982 706.574 318.451 726.094 338.171 673.411 338.171 670.958 332.371 716.717 332.371 707.346 325.669 712.996 331.14 665.874 331.14 677.767 318.855 669.3 295.981C664.412 301.901 660.079 307.962 656.301 314.165L651.655 313.003C653.471 309.449 655.696 305.892 658.328 302.332L667.433 291.661 666.953 290.121C661.505 295.413 656.088 302.02 650.702 309.942L647.594 306.619C645.344 303.026 642.693 299.151 639.64 294.994L636.845 291.265 634.922 296.506C632.915 302.61 631.911 307.876 631.911 312.303 631.911 315.676 632.49 318.525 633.646 320.849 634.803 323.173 637.699 327.196 642.333 332.917 642.748 333.444 643.523 335.195 644.659 338.171L595.369 338.171 592.799 332.371 634.716 332.371 633.731 331.14 588.318 331.14C596.877 324.836 603.489 318.191 608.155 311.207 612.237 305.095 616.366 295.825 620.54 283.396L622.213 278.244 620.291 277.091C617.757 275.907 614.08 275.04 609.257 274.49 612.529 268.269 615.29 262.283 617.542 256.532 619.725 257.618 621.043 258.383 621.498 258.827L625.53 263.107C626.489 263.671 627.188 264.438 627.627 265.408L628.216 263.907 627.372 263.517C624.673 261.143 622.417 259.235 620.604 257.794L619.168 256.156 621.883 252.136C625.94 254.386 628.761 256.713 630.347 259.116L641.056 229.051ZM381.325 217.058 476.851 217.058 475.212 221.367C469.401 228.486 464.277 237.007 459.838 246.933 458.07 244.923 457.041 243.607 456.754 242.983L456.657 242.781 454.927 242.177C454.076 241.842 453.533 241.575 453.299 241.379 449.096 238.031 446.056 236.041 444.177 235.409 442.297 234.777 438.43 234.46 432.574 234.46 430.797 234.46 427.559 234.588 422.858 234.842L422.812 234.845 422.812 264.167 435.888 264.167 449.706 248.939 449.706 289.503 440.999 280.463 441.543 281.394 422.812 281.394 422.812 319.978C433.111 319.978 440.569 319.198 445.184 317.637 449.799 316.076 453.906 312.744 457.504 307.642L460.537 300.679C460.631 300.492 461.732 299.564 463.84 297.893 466.003 304.976 468.149 310.349 470.281 314.012 472.412 317.674 476.153 322.974 481.505 329.91L381.325 329.91 394.423 317.266 394.423 281.394C391.193 281.934 387.237 283.43 382.555 285.881L380.119 281.875C384.326 278.544 389.094 276.552 394.423 275.898L394.423 274.97C394.474 274.975 394.371 274.978 394.113 274.978 388.73 274.978 382.802 277.117 376.327 281.394 379.255 269.91 385.287 264.167 394.423 264.167L394.423 230.007ZM258.582 217.058 302.554 217.058 290.528 230.91 290.528 280.488 291.671 276.136 291.671 230.151 303.432 219.729 306.259 223.616 297.384 232.705 297.384 272.388 320.906 241.132C324.502 236.842 326.3 233.08 326.3 229.848 326.3 228.196 325.359 226.518 323.478 224.815 321.598 223.112 318.793 221.882 315.065 221.124L315.065 217.058 364.083 217.058 364.083 221.065C353.6 223.611 342.886 231.433 331.94 244.531L319.962 258.448 351.338 318.822 351.987 319.358 321.791 258.037 338.26 239.038C346.954 229.33 356.394 224.015 366.58 223.092L368.31 228.231C359.165 228.895 350.527 233.735 342.398 242.751L327.808 258.575 357.835 318.838 382.614 338.171 325.219 338.171 321.791 332.371 371.687 332.371 360.641 326.513 366.237 331.14 317.909 331.14 329.198 320.419 309.233 279.953 297.384 295.943 297.384 319.404 311.43 338.171 264.605 338.171 261.254 332.371 302.656 332.371 298.463 328.26 301.004 331.14 257.892 331.14 269.698 318.499 269.698 229.883ZM531.545 215.124C538.367 215.124 546.359 216.363 555.521 218.839 559.512 219.937 562.459 220.486 564.362 220.486 566.854 220.486 569.892 219.516 573.477 217.576L576.372 219.086C573.243 224.126 570.811 228.775 569.075 233.034 565.55 241.704 563.177 247.076 561.956 249.151L559.355 250.48C558.413 249.067 557.857 248.02 557.688 247.339 557.3 246.129 556.931 245.012 556.581 243.989L555.728 241.597 554.381 242.269C547.756 235.54 541.079 232.175 534.349 232.175 530.473 232.175 527.282 233.278 524.774 235.485 522.267 237.691 521.013 240.487 521.013 243.873 521.013 247.582 523.68 251.49 529.014 255.598L530.44 256.878 529.595 258.5 533.823 259.702 548.373 263.236C559.204 265.85 567.327 270.035 572.743 275.793L572.768 275.825 572.768 272.984C582.972 279.537 588.073 288.225 588.073 299.046 588.073 310.521 583.635 320.232 574.76 328.181 565.884 336.13 555.118 340.105 542.459 340.105 536.035 340.105 530.288 339.46 525.219 338.17L511.434 334.788C508.289 333.997 504.989 333.601 501.534 333.601 498.55 333.601 495.224 334.263 491.556 335.587L489.923 331.076 486.109 338.171 389.902 338.171 387.779 332.371 482.835 332.371 485.07 329.084C476.972 321.888 471.141 313.015 467.575 302.464L473.485 303.921C475.119 307.725 477.309 311.579 480.056 315.483L487.591 324.501 495.886 309.79C498.476 304.397 500.559 299.105 502.134 293.914L506.563 294.755C507.813 304.069 511.274 311.071 516.947 315.759L518.722 317.081 516.628 315.115C512.796 310.888 510.282 305.382 509.086 298.597L514.608 297.79C516.847 308.493 522.671 316.035 532.079 320.416L532.079 322.223 532.794 322.351C534.898 322.644 537.116 322.79 539.448 322.79 546.739 322.79 552.462 321.161 556.617 317.902 560.771 314.642 562.849 310.283 562.849 304.824 562.849 303.239 562.726 301.729 562.482 300.292L562.425 300.079 560.355 301.047C557.309 297.869 554.357 295.628 551.5 294.321 548.642 293.016 542.996 291.372 534.56 289.392 522.018 286.49 513.465 283.914 508.904 281.665 504.342 279.416 501.588 275.489 500.64 269.883L505.01 271.432 502.319 269.227C497.145 263.991 494.558 256.735 494.558 247.46 494.558 237.858 498.002 230.068 504.89 224.091 511.778 218.113 520.663 215.124 531.545 215.124Z" stroke="#385723" stroke-linejoin="round" stroke-miterlimit="10" fill="#FFFFFF" fill-rule="evenodd"/><text fill="#000000" fill-opacity="0" font-family="Arial,Arial_MSFontService,sans-serif" font-size="124.98" x="257.892" y="324.482">KESAAN</text></g></svg>